<?xml version="1.0" encoding="UTF-8"?>
<!DOCTYPE svg PUBLIC "-//W3C//DTD SVG 1.1//EN" "http://www.w3.org/Graphics/SVG/1.1/DTD/svg11.dtd">
<!-- Creator: CorelDRAW 2020 (64-Bit) -->
<svg xmlns="http://www.w3.org/2000/svg" xml:space="preserve" width="32.4273mm" height="28.5047mm" version="1.1" style="shape-rendering:geometricPrecision; text-rendering:geometricPrecision; image-rendering:optimizeQuality; fill-rule:evenodd; clip-rule:evenodd"
viewBox="0 0 3232.35 2841.35"
 xmlns:xlink="http://www.w3.org/1999/xlink"
 xmlns:xodm="http://www.corel.com/coreldraw/odm/2003">
 <defs>
  <style type="text/css">
   <![CDATA[
    .str6 {stroke:#E0EAFF;stroke-width:105.49;stroke-miterlimit:10}
    .str7 {stroke:#E0EAFF;stroke-width:210.99;stroke-miterlimit:10}
    .str1 {stroke:#E8F1FF;stroke-width:35.17;stroke-miterlimit:10}
    .str0 {stroke:#FEFEFE;stroke-width:19.94;stroke-miterlimit:22.9256}
    .str3 {stroke:#00A551;stroke-width:35.17;stroke-linecap:round;stroke-linejoin:round;stroke-miterlimit:10}
    .str2 {stroke:#389DDC;stroke-width:35.17;stroke-linecap:round;stroke-linejoin:round;stroke-miterlimit:10}
    .str5 {stroke:#7CB4F8;stroke-width:35.17;stroke-linecap:round;stroke-linejoin:round;stroke-miterlimit:10}
    .str11 {stroke:#9DD2F3;stroke-width:35.17;stroke-linecap:round;stroke-linejoin:round;stroke-miterlimit:10}
    .str9 {stroke:#9DD2F3;stroke-width:35.17;stroke-linecap:round;stroke-linejoin:round;stroke-miterlimit:4}
    .str4 {stroke:#ADD3FC;stroke-width:35.17;stroke-linecap:round;stroke-linejoin:round;stroke-miterlimit:10}
    .str8 {stroke:#E8F1FF;stroke-width:35.17;stroke-linecap:round;stroke-linejoin:round;stroke-miterlimit:10}
    .str12 {stroke:#F1809D;stroke-width:35.17;stroke-linecap:round;stroke-linejoin:round;stroke-miterlimit:10}
    .str10 {stroke:#9DD2F3;stroke-width:35.17;stroke-linecap:round;stroke-linejoin:round;stroke-miterlimit:4;stroke-dasharray:168.778178 168.778178}
    .fil56 {fill:none}
    .fil67 {fill:none;fill-rule:nonzero}
    .fil27 {fill:#FFD23A;fill-rule:nonzero}
    .fil49 {fill:#FCB53D;fill-rule:nonzero}
    .fil18 {fill:#FAAA3C;fill-rule:nonzero}
    .fil16 {fill:#F9A33E;fill-rule:nonzero}
    .fil12 {fill:#F1624D;fill-rule:nonzero}
    .fil10 {fill:#F15F56;fill-rule:nonzero}
    .fil1 {fill:#EE4477;fill-rule:nonzero}
    .fil15 {fill:#F18768;fill-rule:nonzero}
    .fil11 {fill:#F07D44;fill-rule:nonzero}
    .fil9 {fill:#EB4A6A;fill-rule:nonzero}
    .fil2 {fill:#EA4389;fill-rule:nonzero}
    .fil17 {fill:#F8C539;fill-rule:nonzero}
    .fil29 {fill:#F0A047;fill-rule:nonzero}
    .fil13 {fill:#E6649C;fill-rule:nonzero}
    .fil53 {fill:#F1BE39;fill-rule:nonzero}
    .fil25 {fill:#DF6F85;fill-rule:nonzero}
    .fil14 {fill:#E05899;fill-rule:nonzero}
    .fil19 {fill:#E8BC3B;fill-rule:nonzero}
    .fil3 {fill:#D83064;fill-rule:nonzero}
    .fil20 {fill:#D95499;fill-rule:nonzero}
    .fil26 {fill:#E2CA3B;fill-rule:nonzero}
    .fil8 {fill:#CB4E96;fill-rule:nonzero}
    .fil21 {fill:#C84292;fill-rule:nonzero}
    .fil52 {fill:#C1BE3F;fill-rule:nonzero}
    .fil37 {fill:#BFBF41;fill-rule:nonzero}
    .fil50 {fill:#BEC449;fill-rule:nonzero}
    .fil54 {fill:#AC4494;fill-rule:nonzero}
    .fil7 {fill:#9F4C99;fill-rule:nonzero}
    .fil22 {fill:#994796;fill-rule:nonzero}
    .fil23 {fill:#97529B;fill-rule:nonzero}
    .fil39 {fill:#88C070;fill-rule:nonzero}
    .fil51 {fill:#81C575;fill-rule:nonzero}
    .fil24 {fill:#82559F;fill-rule:nonzero}
    .fil55 {fill:#7A3B8D;fill-rule:nonzero}
    .fil41 {fill:#5DB978;fill-rule:nonzero}
    .fil46 {fill:#5CB677;fill-rule:nonzero}
    .fil36 {fill:#6970B0;fill-rule:nonzero}
    .fil45 {fill:#2DA48D;fill-rule:nonzero}
    .fil6 {fill:#644595;fill-rule:nonzero}
    .fil47 {fill:#2F938B;fill-rule:nonzero}
    .fil48 {fill:#318889;fill-rule:nonzero}
    .fil40 {fill:#348095;fill-rule:nonzero}
    .fil42 {fill:#3286AC;fill-rule:nonzero}
    .fil44 {fill:#367E95;fill-rule:nonzero}
    .fil43 {fill:#2C8889;fill-rule:nonzero}
    .fil38 {fill:#3A78B8;fill-rule:nonzero}
    .fil30 {fill:#307898;fill-rule:nonzero}
    .fil35 {fill:#4960A7;fill-rule:nonzero}
    .fil28 {fill:#554191;fill-rule:nonzero}
    .fil5 {fill:#47539C;fill-rule:nonzero}
    .fil34 {fill:#23638D;fill-rule:nonzero}
    .fil31 {fill:#255F82;fill-rule:nonzero}
    .fil4 {fill:#424690;fill-rule:nonzero}
    .fil33 {fill:#41407C;fill-rule:nonzero}
    .fil32 {fill:#2A4967;fill-rule:nonzero}
    .fil88 {fill:#162D56;fill-rule:nonzero}
    .fil87 {fill:#214488;fill-rule:nonzero}
    .fil78 {fill:#21448B;fill-rule:nonzero}
    .fil77 {fill:#2D52A9;fill-rule:nonzero}
    .fil74 {fill:#339DDE;fill-rule:nonzero}
    .fil75 {fill:#389DDC;fill-rule:nonzero}
    .fil85 {fill:#4988EA;fill-rule:nonzero}
    .fil65 {fill:#4F81DA;fill-rule:nonzero}
    .fil62 {fill:#56B673;fill-rule:nonzero}
    .fil82 {fill:#5990E3;fill-rule:nonzero}
    .fil81 {fill:#699FEE;fill-rule:nonzero}
    .fil76 {fill:#69B0D2;fill-rule:nonzero}
    .fil79 {fill:#7CB4F8;fill-rule:nonzero}
    .fil63 {fill:#7DC36F;fill-rule:nonzero}
    .fil61 {fill:#84BE69;fill-rule:nonzero}
    .fil80 {fill:#8DC5FF;fill-rule:nonzero}
    .fil66 {fill:#ADD3FC;fill-rule:nonzero}
    .fil60 {fill:#BDBD33;fill-rule:nonzero}
    .fil64 {fill:#BEBC31;fill-rule:nonzero}
    .fil59 {fill:#DF6980;fill-rule:nonzero}
    .fil69 {fill:#E1A013;fill-rule:nonzero}
    .fil73 {fill:#E8F1FF;fill-rule:nonzero}
    .fil72 {fill:#EC1C24;fill-rule:nonzero}
    .fil86 {fill:#ECA4A4;fill-rule:nonzero}
    .fil58 {fill:#F18261;fill-rule:nonzero}
    .fil68 {fill:#F33F6E;fill-rule:nonzero}
    .fil70 {fill:#FABE31;fill-rule:nonzero}
    .fil84 {fill:#FAD2B2;fill-rule:nonzero}
    .fil83 {fill:#FFCA05;fill-rule:nonzero}
    .fil57 {fill:#FFFBD4;fill-rule:nonzero}
    .fil71 {fill:white;fill-rule:nonzero}
    .fil0 {fill:url(#id1)}
   ]]>
  </style>
     <clipPath id="id0">
      <path d="M376.87 2097.57l2478.61 0c201.8,0 366.9,165.11 366.9,366.91l0 0.01c0,201.79 -165.1,366.89 -366.9,366.89l-2478.61 0c-201.8,0 -366.9,-165.1 -366.9,-366.89l0 -0.01c0,-201.8 165.1,-366.91 366.9,-366.91z"/>
     </clipPath>
  <linearGradient id="id1" gradientUnits="userSpaceOnUse" x1="1615.64" y1="2811.87" x2="1620.51" y2="-3.15">
   <stop offset="0" style="stop-opacity:1; stop-color:#0DA5D5"/>
   <stop offset="0.4" style="stop-opacity:1; stop-color:#85D1E9"/>
   <stop offset="1" style="stop-opacity:1; stop-color:#FEFEFE"/>
  </linearGradient>
 </defs>
 <g id="Capa_x0020_1">
  <metadata id="CorelCorpID_0Corel-Layer"/>
  <g id="_2120768378560">
   <rect class="fil0" x="99.23" y="-0.01" width="3037.69" height="2808.72" rx="87.7" ry="530.47"/>
   <g>
    <g>
    </g>
    <g style="clip-path:url(#id0)">
     <g>
      <g>
       <path class="fil1" d="M2941.23 1773.31l75.88 -72.18c36.88,46.23 70.29,94.35 99.99,144.11l-175.87 -71.93z"/>
       <path class="fil2" d="M2875.24 1548.15l65.99 225.16 75.88 -72.18c-42.79,-53.64 -90.22,-104.74 -141.86,-152.98z"/>
       <path class="fil3" d="M2248.69 1179.37l-219.09 106.8 -97.86 -188.1c109.96,19.13 215.99,46.5 316.94,81.3z"/>
       <path class="fil2" d="M2029.61 1286.17l565.48 115.07 13.14 -54.24c-110.07,-66.75 -230.68,-123.2 -359.54,-167.63l-219.09 106.8z"/>
       <path class="fil1" d="M2941.23 1773.31l-346.12 -372.07 13.13 -54.24c97.91,59.37 187.43,126.84 267,201.14l65.99 225.16z"/>
       <path class="fil4" d="M362.42 1447.51l219.33 264.42 -433.76 -66.33c63.36,-71.36 135.21,-137.7 214.43,-198.09z"/>
       <path class="fil5" d="M782.32 1211.77l-200.57 500.17 -219.34 -264.43c123.55,-94.18 264.96,-173.93 419.9,-235.74z"/>
       <path class="fil6" d="M1205.74 1365.77l-624 346.18 200.58 -500.17c76.86,-30.67 157.07,-56.88 240.02,-78.31l183.4 232.3z"/>
       <path class="fil7" d="M1737.11 1286.17l-531.37 79.59 156.5 -290.74c54.55,-4.89 109.88,-7.78 165.85,-8.57l209.03 219.71z"/>
       <path class="fil8" d="M1737.11 1286.17l292.5 0 -97.87 -188.1c-38.97,-6.77 -78.44,-12.52 -118.35,-17.18l-76.29 205.28z"/>
       <path class="fil9" d="M2941.23 1773.31l-173.06 421.94 434.5 -176.45c-23.51,-59.74 -52.22,-117.66 -85.57,-173.55l-175.87 -71.93z"/>
       <path class="fil10" d="M3278.42 2462.63l-510.25 -267.39 434.5 -176.44c49.84,126.66 76.71,261.28 76.71,400.83l0 0c0,14.39 -0.39,28.72 -0.96,43z"/>
       <path class="fil11" d="M2768.16 2195.24l341.25 644.4 142.26 -177.05c15.01,-65.15 24.02,-131.93 26.73,-199.95l-510.25 -267.4z"/>
       <path class="fil12" d="M3163.67 2908.42l-54.26 -68.78 142.26 -177.06c-19.6,84.98 -49.27,167.18 -88.01,245.84z"/>
       <polygon class="fil13" points="2595.11,1401.24 2221.59,1984.28 2941.23,1773.32 "/>
       <polygon class="fil14" points="2768.16,2195.24 2221.59,1984.28 2941.23,1773.32 "/>
       <polygon class="fil15" points="2280.67,2736.08 2221.59,1984.28 2768.16,2195.24 "/>
       <polygon class="fil16" points="3109.42,2839.64 2280.67,2736.08 2768.16,2195.24 "/>
       <path class="fil16" d="M3043.33 3104.16l66.09 -264.52 54.26 68.78c-33.54,68.08 -73.87,133.5 -120.34,195.74z"/>
       <polygon class="fil17" points="2280.67,2736.08 2595.11,3242.4 3109.42,2839.64 "/>
       <path class="fil18" d="M2771.23 3380l-176.12 -137.61 514.31 -402.75 -66.09 264.52c-75.47,101.07 -167.05,193.76 -272.1,275.83z"/>
       <path class="fil19" d="M2595.11 3242.39l-319.66 408.1c185.32,-66.88 352.93,-158.88 495.79,-270.49l-176.12 -137.61z"/>
       <polygon class="fil20" points="2029.61,1286.17 2221.59,1984.28 2595.1,1401.24 "/>
       <polygon class="fil21" points="1737.11,1286.17 2221.59,1984.28 2029.61,1286.17 "/>
       <polygon class="fil22" points="1205.74,1365.77 1288.23,1773.31 1737.11,1286.17 "/>
       <polygon class="fil23" points="2221.59,1984.28 1288.23,1773.32 1737.11,1286.17 "/>
       <polygon class="fil24" points="1288.23,1773.31 1753.2,2195.24 2221.59,1984.28 "/>
       <polygon class="fil25" points="2280.67,2736.08 1753.2,2195.24 2221.59,1984.28 "/>
       <polygon class="fil26" points="1877.73,3131.16 2280.67,2736.08 2595.11,3242.39 "/>
       <path class="fil27" d="M2085.4 3708.51l-207.66 -577.36 717.37 111.23 -319.66 408.1c-61.48,22.19 -124.92,41.58 -190.04,58.02z"/>
       <polygon class="fil28" points="581.74,1711.94 1288.23,1773.31 1205.74,1365.77 "/>
       <polygon class="fil29" points="1753.21,2195.24 1481.15,2684.29 2280.67,2736.08 "/>
       <path class="fil30" d="M206.37 3131.16l-74.23 44.47c-34.57,-40.31 -66.35,-82.22 -95.33,-125.45l169.57 80.98z"/>
       <path class="fil31" d="M-160.78 2434.59l403.71 -37.98 -356.67 339.1c-29.43,-96.76 -45.61,-197.55 -47.05,-301.12z"/>
       <path class="fil32" d="M-117.15 2114.61l360.08 282 -403.71 37.98c-0.06,-4.99 -0.24,-9.96 -0.24,-14.96l0 0c0,-104.89 15.17,-207 43.87,-305.02z"/>
       <path class="fil33" d="M147.98 1645.61l433.76 66.33 -614.02 193.25c48.15,-92.05 108.76,-179.02 180.26,-259.58z"/>
       <path class="fil34" d="M242.93 2396.62l338.81 -684.67 -614.02 193.25c-35.16,67.26 -63.72,137.22 -84.88,209.41l360.08 282.01z"/>
       <polygon class="fil35" points="1288.23,1773.31 1043.24,2091.68 581.74,1711.94 "/>
       <polygon class="fil36" points="1753.21,2195.24 1043.24,2091.68 1288.23,1773.32 "/>
       <polygon class="fil37" points="1481.15,2684.29 1043.24,2091.68 1753.2,2195.24 "/>
       <polygon class="fil38" points="242.93,2396.62 1043.24,2091.68 581.74,1711.94 "/>
       <polygon class="fil39" points="1481.15,2684.29 932.29,2842.69 1043.24,2091.68 "/>
       <polygon class="fil40" points="242.93,2396.62 725.56,2547.8 1043.24,2091.68 "/>
       <polygon class="fil41" points="932.29,2842.69 725.56,2547.79 1043.24,2091.68 "/>
       <path class="fil42" d="M-81.57 2827.24l807.13 -279.45 -482.63 -151.17 -356.67 339.1c9.41,30.93 20.12,61.46 32.17,91.53z"/>
       <polygon class="fil43" points="932.29,2842.69 206.37,3131.16 725.56,2547.79 "/>
       <path class="fil44" d="M36.8 3050.18l169.57 80.98 519.19 -583.37 -807.13 279.45c31.12,77.56 70.88,152.09 118.37,222.93z"/>
       <path class="fil45" d="M206.37 3131.16l6.82 131.25c-28.41,-28.06 -55.49,-56.98 -81.05,-86.78l74.23 -44.47z"/>
       <polygon class="fil46" points="867.52,3302.34 206.37,3131.16 932.29,2842.69 "/>
       <path class="fil47" d="M590.78 3538.35l276.73 -236.01 -661.14 -171.18 6.81 131.25c107.5,106.13 234.82,199.28 377.6,275.94z"/>
       <path class="fil48" d="M1059.94 3715.14l-192.42 -412.8 -276.74 236.01c142.49,76.5 300.34,136.57 469.16,176.79z"/>
       <path class="fil49" d="M1877.73 3131.16l-665.16 614.48c111.96,18.02 227.88,27.48 346.61,27.48l0 0c183.56,0 360.35,-22.71 526.22,-64.6l-207.66 -577.36z"/>
       <path class="fil50" d="M867.52 3302.34l1010.22 -171.18 -665.16 614.48c-51.77,-8.33 -102.66,-18.58 -152.63,-30.49l-192.42 -412.8z"/>
       <polygon class="fil51" points="932.29,2842.69 1877.73,3131.16 867.52,3302.34 "/>
       <polygon class="fil52" points="1481.15,2684.29 1877.73,3131.16 932.29,2842.69 "/>
       <polygon class="fil53" points="2280.67,2736.08 1877.73,3131.16 1481.15,2684.29 "/>
       <path class="fil54" d="M1813.4 1080.89l-76.29 205.28 -209.03 -219.71c10.35,-0.15 20.69,-0.31 31.09,-0.31l0 0c86.38,0 171.26,5.07 254.22,14.74z"/>
       <path class="fil55" d="M1362.24 1075.03l-156.5 290.74 -183.4 -232.3c108.91,-28.13 222.62,-47.92 339.9,-58.43z"/>
      </g>
     </g>
    </g>
    <path class="fil56 str0" d="M376.87 2097.57l2478.61 0c201.8,0 366.9,165.11 366.9,366.91l0 0.01c0,201.79 -165.1,366.89 -366.9,366.89l-2478.61 0c-201.8,0 -366.9,-165.1 -366.9,-366.89l0 -0.01c0,-201.8 165.1,-366.91 366.9,-366.91z"/>
    <rect class="fil56 str0" x="139.52" y="2168.72" width="2958.52" height="591.53" rx="429.46" ry="295.76"/>
   </g>
   <path class="fil57" d="M858.94 2584.21c45.65,0 82.28,-23.52 100.47,-67l-38.23 -15.78c-12.31,31.28 -32.68,43.13 -62.24,43.13 -49.21,0 -70.18,-35.38 -70.18,-81.66 0,-43.08 20.97,-78.47 69.57,-78.47 29.9,0 53.6,11.85 62.25,42.46l38.5 -15.5c-18.53,-43.42 -54.91,-66.73 -100.47,-66.73 -75.57,0 -110.8,56.22 -110.8,119.92 0,63.86 35.57,119.63 111.14,119.63z"/>
   <path id="1" class="fil57" d="M1091.39 2584.27c75.91,0 110.85,-56.33 110.85,-119.69 0,-63.42 -34.95,-119.59 -110.85,-119.59 -75.89,0 -110.84,56.17 -110.84,119.59 0,63.36 34.96,119.69 110.84,119.69zm0 -37.07c-49.21,0 -67.23,-38.7 -67.23,-82.61 0,-43.81 18.02,-82.52 67.23,-82.52 49.21,0 67.25,38.71 67.25,82.52 0,43.92 -18.04,82.61 -67.25,82.61z"/>
   <polygon id="2" class="fil57" points="1245.24,2580.9 1284.86,2580.9 1284.86,2406.95 1341.72,2560.63 1381.78,2560.63 1438.64,2406.95 1438.64,2580.9 1478.26,2580.9 1478.26,2348.37 1422.72,2348.37 1361.75,2513.73 1300.77,2348.37 1245.24,2348.37 "/>
   <polygon id="3" class="fil57" points="1537.51,2580.9 1690.24,2580.9 1690.24,2541.47 1578.78,2541.47 1578.78,2483.8 1682.65,2483.8 1682.65,2445.49 1578.78,2445.49 1578.78,2386.74 1690.24,2386.74 1690.24,2348.43 1537.51,2348.43 "/>
   <path id="4" class="fil57" d="M1739.85 2581.24l41.28 0 0 -99.75 27.58 0 56.58 99.75 47.33 0 -63.91 -103.86c26.03,-9.04 44.89,-31.23 44.89,-60.55 0,-43.58 -36.61,-68.47 -79.5,-68.47l-74.23 0 0 232.87zm41.55 -133.79l0 -61.67 33.01 0c23.52,0 38.34,12.47 38.34,31.74 0,17.46 -12.98,28.98 -34.95,29.93l-36.4 0z"/>
   <path id="5" class="fil57" d="M2040.79 2584.21c45.65,0 82.28,-23.52 100.47,-67l-38.22 -15.78c-12.32,31.28 -32.69,43.13 -62.25,43.13 -49.21,0 -70.18,-35.38 -70.18,-81.66 0,-43.08 20.97,-78.47 69.58,-78.47 29.9,0 53.59,11.85 62.25,42.46l38.5 -15.5c-18.53,-43.42 -54.92,-66.73 -100.48,-66.73 -75.57,0 -110.79,56.22 -110.79,119.92 0,63.86 35.57,119.63 111.13,119.63z"/>
   <polygon id="6" class="fil57" points="2178.71,2580.9 2219.98,2580.9 2219.98,2348.37 2178.71,2348.37 "/>
   <path id="7" class="fil57" d="M2373.71 2584.27c75.91,0 110.85,-56.33 110.85,-119.69 0,-63.42 -34.95,-119.59 -110.85,-119.59 -75.9,0 -110.84,56.17 -110.84,119.59 0,63.36 34.95,119.69 110.84,119.69zm0 -37.07c-49.21,0 -67.23,-38.7 -67.23,-82.61 0,-43.81 18.02,-82.52 67.23,-82.52 49.21,0 67.25,38.71 67.25,82.52 0,43.92 -18.04,82.61 -67.25,82.61z"/>
   <g id="_2120768378848">
    <polygon class="fil58" points="1835.31,1376.44 1798.34,770.81 2140.52,940.78 "/>
    <polygon class="fil59" points="1835.31,1376.44 1505.04,940.78 1798.34,770.81 "/>
    <polygon class="fil60" points="1334.77,1334.74 1060.6,857.41 1505.11,940.82 "/>
    <polygon class="fil61" points="1334.77,1334.74 991.19,1462.37 1060.6,857.41 "/>
    <polygon class="fil62" points="991.17,1462.32 861.74,1224.81 1060.58,857.38 "/>
    <polygon class="fil63" points="991.17,1462.32 1583.05,1694.66 950.61,1832.56 "/>
    <polygon class="fil64" points="1334.77,1334.74 1583.05,1694.7 991.19,1462.37 "/>
    <polygon class="fil65" points="1583.9,1354.48 2097.13,1354.48 2097.13,877.49 1583.9,877.49 "/>
    <polygon class="fil66" points="1812.64,1328.67 1614.48,1328.67 1614.48,903.27 1812.64,903.27 "/>
    <polygon class="fil66" points="2066.55,1328.67 1868.38,1328.67 1868.38,903.27 2066.55,903.27 "/>
    <polygon class="fil67 str1" points="1757,1088.99 1842.32,1020.44 1927.64,1088.99 "/>
    <path class="fil68" d="M1849.23 1020.58c0,3.73 -3.02,6.79 -6.7,6.79 -3.71,0 -6.73,-3.06 -6.73,-6.79 0,-3.73 3.02,-6.78 6.73,-6.78 3.68,0 6.7,3.05 6.7,6.78z"/>
    <path class="fil69" d="M1952.5 1210.9c0,8.66 -6.87,15.71 -15.52,15.71l-189.35 0c-8.55,0 -15.49,-7.05 -15.49,-15.71l0 -116.02c0,-8.63 6.94,-15.61 15.49,-15.61l189.35 0c8.65,0 15.52,6.98 15.52,15.61l0 116.02z"/>
    <path class="fil70" d="M1947.82 1208.11c0,8.49 -6.8,15.35 -15.18,15.35l-185.34 0c-8.46,0 -15.16,-6.86 -15.16,-15.35l0 -113.54c0,-8.49 6.7,-15.27 15.16,-15.27l185.34 0c8.38,0 15.18,6.78 15.18,15.27l0 113.54z"/>
    <path class="fil71" d="M1754.3 1169.38c0,-4.72 0.71,-8.69 2.1,-11.91 1.03,-2.35 2.46,-4.49 4.26,-6.36 1.8,-1.87 3.78,-3.27 5.92,-4.19 2.85,-1.22 6.14,-1.83 9.88,-1.83 6.75,0 12.14,2.12 16.2,6.37 4.06,4.25 6.07,10.15 6.07,17.7 0,7.5 -2,13.37 -6.02,17.59 -4.02,4.24 -9.41,6.35 -16.12,6.35 -6.82,0 -12.24,-2.1 -16.25,-6.32 -4.02,-4.21 -6.04,-10.01 -6.04,-17.4zm9.52 -0.31c0,5.25 1.22,9.23 3.61,11.94 2.4,2.71 5.44,4.07 9.13,4.07 3.7,0 6.72,-1.35 9.09,-4.03 2.37,-2.7 3.56,-6.73 3.56,-12.11 0,-5.32 -1.16,-9.29 -3.47,-11.9 -2.3,-2.62 -5.35,-3.93 -9.18,-3.93 -3.82,0 -6.9,1.33 -9.23,3.98 -2.33,2.65 -3.51,6.64 -3.51,11.98z"/>
    <path id="1" class="fil71" d="M1805.94 1192.26l0 -46.33 14.82 0c5.61,0 9.26,0.22 10.96,0.69 2.63,0.7 4.82,2.21 6.59,4.54 1.77,2.33 2.66,5.34 2.66,9.03 0,2.85 -0.52,5.23 -1.53,7.18 -1.03,1.93 -2.31,3.46 -3.88,4.57 -1.57,1.11 -3.17,1.83 -4.79,2.19 -2.2,0.44 -5.38,0.67 -9.56,0.67l-6.01 0 0 17.47 -9.27 0zm9.27 -38.51l0 13.21 5.04 0c3.63,0 6.05,-0.25 7.27,-0.74 1.23,-0.49 2.19,-1.24 2.88,-2.28 0.7,-1.04 1.05,-2.23 1.05,-3.62 0,-1.69 -0.5,-3.08 -1.47,-4.19 -0.98,-1.1 -2.2,-1.78 -3.71,-2.06 -1.1,-0.21 -3.3,-0.32 -6.63,-0.32l-4.44 0z"/>
    <polygon id="2" class="fil71" points="1848.58,1192.26 1848.58,1145.93 1882.46,1145.93 1882.46,1153.76 1857.85,1153.76 1857.85,1164.04 1880.73,1164.04 1880.73,1171.88 1857.85,1171.88 1857.85,1184.43 1883.35,1184.43 1883.35,1192.26 "/>
    <polygon id="3" class="fil71" points="1891.22,1192.26 1891.22,1145.93 1900.18,1145.93 1919.02,1176.98 1919.02,1145.93 1927.58,1145.93 1927.58,1192.26 1918.33,1192.26 1899.78,1161.8 1899.78,1192.26 "/>
    <path class="fil71" d="M1785.23 1130.28l-7.7 -25.78 4.52 0 4.07 14.87 1.44 5.54c0.06,-0.28 0.5,-2.04 1.33,-5.31l4.03 -15.1 4.42 0 3.84 14.96 1.26 4.91 1.46 -4.97 4.41 -14.9 4.19 0 -7.98 25.78 -4.46 0 -4.05 -15.42 -1.03 -4.42 -5.15 19.84 -4.57 0z"/>
    <path id="1" class="fil71" d="M1833.4 1121.94l4.47 0.6c-0.69,2.62 -1.99,4.67 -3.89,6.11 -1.9,1.46 -4.33,2.18 -7.27,2.18 -3.72,0 -6.66,-1.16 -8.83,-3.48 -2.18,-2.31 -3.27,-5.56 -3.27,-9.74 0,-4.33 1.1,-7.69 3.3,-10.07 2.19,-2.39 5.04,-3.59 8.56,-3.59 3.39,0 6.16,1.17 8.31,3.51 2.15,2.34 3.23,5.64 3.23,9.89 0,0.26 -0.01,0.65 -0.02,1.16l-18.97 0c0.16,2.82 0.95,4.99 2.37,6.49 1.42,1.5 3.19,2.25 5.31,2.25 1.57,0 2.92,-0.42 4.04,-1.27 1.12,-0.85 1.99,-2.19 2.65,-4.05zm-14.12 -7.01l14.17 0c-0.18,-2.16 -0.74,-3.79 -1.62,-4.87 -1.37,-1.68 -3.15,-2.52 -5.33,-2.52 -1.98,0 -3.63,0.67 -4.99,2.01 -1.34,1.34 -2.07,3.13 -2.22,5.38z"/>
    <path id="2" class="fil71" d="M1873.64 1127.05c-1.6,1.39 -3.15,2.35 -4.64,2.92 -1.48,0.58 -3.06,0.86 -4.76,0.86 -2.79,0 -4.95,-0.69 -6.45,-2.07 -1.51,-1.38 -2.26,-3.14 -2.26,-5.28 0,-1.26 0.29,-2.4 0.86,-3.45 0.57,-1.05 1.31,-1.87 2.22,-2.5 0.93,-0.63 1.96,-1.11 3.11,-1.43 0.85,-0.23 2.14,-0.44 3.85,-0.66 3.48,-0.42 6.06,-0.92 7.71,-1.5 0.01,-0.6 0.02,-0.98 0.02,-1.14 0,-1.77 -0.4,-3.02 -1.22,-3.75 -1.11,-0.99 -2.75,-1.48 -4.92,-1.48 -2.04,0 -3.55,0.36 -4.52,1.09 -0.98,0.72 -1.68,1.99 -2.14,3.83l-4.23 -0.6c0.39,-1.82 1.02,-3.31 1.9,-4.44 0.89,-1.13 2.15,-1.98 3.82,-2.6 1.66,-0.6 3.61,-0.91 5.79,-0.91 2.17,0 3.96,0.26 5.31,0.78 1.37,0.52 2.36,1.17 3.01,1.95 0.64,0.79 1.09,1.78 1.35,2.98 0.14,0.75 0.22,2.08 0.22,4.02l0 5.79c0,4.05 0.09,6.61 0.26,7.7 0.18,1.09 0.54,2.11 1.06,3.11l-4.51 0c-0.44,-0.92 -0.72,-1.99 -0.84,-3.23zm-0.35 -9.69c-1.56,0.65 -3.92,1.2 -7.06,1.64 -1.78,0.26 -3.04,0.55 -3.79,0.87 -0.74,0.32 -1.3,0.8 -1.69,1.41 -0.4,0.63 -0.61,1.31 -0.61,2.07 0,1.15 0.44,2.11 1.32,2.89 0.88,0.77 2.14,1.16 3.82,1.16 1.66,0 3.14,-0.37 4.44,-1.1 1.31,-0.74 2.26,-1.73 2.86,-3 0.46,-0.99 0.7,-2.43 0.7,-4.35l0.02 -1.59z"/>
    <path id="3" class="fil71" d="M1884.19 1130.28l0 -25.78 3.88 0 0 3.95c0.99,-1.83 1.89,-3.04 2.74,-3.62 0.84,-0.59 1.76,-0.88 2.77,-0.88 1.46,0 2.93,0.47 4.44,1.39l-1.54 4.03c-1.04,-0.6 -2.09,-0.9 -3.14,-0.9 -0.94,0 -1.78,0.3 -2.53,0.87 -0.74,0.57 -1.27,1.37 -1.59,2.38 -0.48,1.55 -0.72,3.25 -0.72,5.09l0 13.47 -4.31 0z"/>
    <path id="4" class="fil71" d="M1917.89 1121.94l4.46 0.6c-0.69,2.62 -1.98,4.67 -3.89,6.11 -1.9,1.46 -4.33,2.18 -7.27,2.18 -3.71,0 -6.66,-1.16 -8.83,-3.48 -2.17,-2.31 -3.27,-5.56 -3.27,-9.74 0,-4.33 1.11,-7.69 3.3,-10.07 2.19,-2.39 5.05,-3.59 8.56,-3.59 3.39,0 6.17,1.17 8.31,3.51 2.15,2.34 3.23,5.64 3.23,9.89 0,0.26 -0.01,0.65 -0.02,1.16l-18.96 0c0.15,2.82 0.94,4.99 2.37,6.49 1.41,1.5 3.19,2.25 5.3,2.25 1.57,0 2.92,-0.42 4.04,-1.27 1.13,-0.85 2,-2.19 2.66,-4.05zm-14.13 -7.01l14.18 0c-0.19,-2.16 -0.74,-3.79 -1.62,-4.87 -1.38,-1.68 -3.15,-2.52 -5.34,-2.52 -1.97,0 -3.63,0.67 -4.98,2.01 -1.35,1.34 -2.08,3.13 -2.23,5.38z"/>
    <path class="fil72" d="M2094.59 749.52l-508.22 0 -44.34 137.64 0 39.97c0,21.72 17.34,39.28 38.81,39.28 17.44,0 32.2,-11.62 37.07,-27.56 4.93,15.94 19.7,27.56 37.11,27.56 17.43,0 32.2,-11.62 37.06,-27.56 4.94,15.94 19.7,27.56 37.12,27.56 17.43,0 32.2,-11.62 37.13,-27.56 4.87,15.94 19.63,27.56 37.07,27.56 17.41,0 32.17,-11.62 37.11,-27.56 4.94,15.94 19.63,27.56 37.07,27.56 17.41,0 32.17,-11.62 37.11,-27.56 4.96,15.94 19.63,27.56 37.07,27.56 17.41,0 32.17,-11.62 37.13,-27.56 4.94,15.94 19.7,27.56 37.05,27.56 17.43,0 32.17,-11.62 37.13,-27.56 4.94,15.94 19.7,27.56 37.04,27.56 21.46,0 38.91,-17.56 38.91,-39.28l0 -39.97 -44.44 -137.64z"/>
    <path class="fil73" d="M1714.16 749.52l-64.03 0 -32.2 137.64 0 51.69c4.94,15.94 19.7,27.56 37.04,27.56 17.44,0 32.2,-11.62 37.14,-27.56l0 -51.69 22.05 -137.64z"/>
    <path class="fil73" d="M1777.03 749.52l-10.74 137.64 0 51.69c4.96,15.94 19.72,27.56 37.13,27.56 17.37,0 32.11,-11.62 37.07,-27.56l0 -189.33 -63.47 0z"/>
    <path class="fil73" d="M1914.67 887.16l0 51.69c4.94,15.94 19.7,27.56 37.13,27.56 17.35,0 32.11,-11.62 37.05,-27.56l0 -51.69 -21.46 -137.64 -63.47 0 10.75 137.64z"/>
    <path class="fil73" d="M2100.15 966.44c21.45,0 38.9,-17.65 38.9,-39.37l0 -39.88 -44.44 -137.64 -63.8 0 32.3 137.64 0 51.69c4.93,15.95 19.6,27.56 37.04,27.56z"/>
    <path class="fil74" d="M1580.84 966.44c17.44,0 32.2,-11.61 37.04,-27.56 4.94,15.95 19.7,27.56 37.14,27.56 17.43,0 32.2,-11.61 37.04,-27.56 4.94,15.95 19.7,27.56 37.14,27.56 17.43,0 32.2,-11.61 37.13,-27.56 4.87,15.95 19.61,27.56 37.05,27.56 17.43,0 32.19,-11.61 37.13,-27.56 4.94,15.95 19.61,27.56 37.04,27.56 17.44,0 32.2,-11.61 37.14,-27.56 4.94,15.95 19.63,27.56 37.04,27.56 17.44,0 32.2,-11.61 37.14,-27.56 4.94,15.95 19.7,27.56 37.04,27.56 17.44,0 32.2,-11.61 37.14,-27.56 4.94,15.95 19.7,27.56 37.06,27.56 21.46,0 38.88,-17.65 38.88,-39.37l0 -39.88 -596.96 0 0 39.88c0,21.72 17.34,39.37 38.81,39.37z"/>
    <path class="fil75" d="M2008.48 1272.2c0,0 -51.47,-22.74 -69.67,-47.17 -18.18,-24.54 0,-32.93 23.97,-17.83 0,0 -6.54,-20.44 4.61,-21.98 11.33,-1.52 39.56,39.03 41.09,86.98z"/>
    <path class="fil76" d="M1953.14 1219.68c-3.95,3.22 -1.85,12.31 1.1,20.54 22.45,17.89 54.22,31.99 54.22,31.99 -14.66,-44.31 -47.62,-58.81 -55.31,-52.53z"/>
    <path class="fil75" d="M2044.69 1272.2c0,0 51.46,-22.74 69.67,-47.17 18.18,-24.54 0,-32.93 -23.97,-17.83 0,0 6.54,-20.44 -4.61,-21.98 -11.33,-1.52 -39.59,39.03 -41.09,86.98z"/>
    <path class="fil76" d="M2100.05 1219.68c-7.72,-6.28 -40.65,8.22 -55.31,52.53 0,0 31.77,-14.09 54.23,-31.99 2.94,-8.23 5.03,-17.32 1.09,-20.54z"/>
    <path class="fil76" d="M2021.26 1272.2c-8.46,2.88 -32.53,-36.06 -38.73,-64.22 -6.21,-28.27 2.35,-56.1 23.21,-35.66 0,0 0.43,-38.03 17.44,-39.63 17.02,-1.53 20.53,46.68 20.53,46.68 0,0 13.49,-17.21 24.73,-11.03 11.23,6.28 1.92,87.07 -47.19,103.87z"/>
    <path class="fil67 str2" d="M2022.81 1151.9c0,0 5.03,59.58 -1.53,120.31"/>
    <path class="fil67 str3" d="M1995.31 1188.72c0,0 9.89,38.37 26.82,74.42 0,0 24.64,-32.5 39.39,-76.36"/>
    <polygon class="fil73" points="2084.73,1348.44 1966.04,1348.44 1947.94,1254.08 2102.76,1254.08 "/>
    <polygon class="fil66" points="1962.6,1330.45 1966.02,1348.44 2084.73,1348.44 2099.48,1271.57 "/>
    <polygon class="fil77" points="2121.77,1415.32 1559.26,1415.32 1559.26,1347.5 2121.77,1347.5 "/>
    <polygon class="fil78" points="2121.77,1415.32 1559.26,1415.32 1559.26,1381.45 2121.77,1381.45 "/>
    <path class="fil79" d="M1475.6 1783.8c0,0 -6.28,-68.99 25.56,-142.57 23.98,-55.56 47.19,-82.39 65.8,-76.87 18.53,5.53 3.11,42.35 17.04,39.97 13.9,-2.38 62.68,-50.75 101.41,-40.65 38.63,10.11 7.72,43.27 -13.17,68.22 -20.95,24.94 21.62,4.67 24.73,31.99 5.78,50.76 -154.06,68.24 -221.37,119.92z"/>
    <path class="fil67 str4" d="M1662.16 1591c0,0 -107.63,50.93 -186.59,192.8"/>
    <path class="fil67 str4" d="M1560.76 1600.53c0,0 -11.81,24.94 -12.91,82.15 0,0 42.32,-13.33 114.34,-14.84"/>
    <path class="fil67 str4" d="M1589.46 1641.88c0,0 35.55,-18.93 68.81,-26.32"/>
    <path class="fil67 str4" d="M1520.87 1647.44c0,0 -15.42,43.87 -17.61,91.72 0,0 40.49,-21.79 97.76,-34.79"/>
    <path class="fil66" d="M1480.23 1763.43c0,0 -46.42,-139.25 -4.61,-254.9 0,0 46.43,85.61 4.61,254.9z"/>
    <path class="fil67 str5" d="M1477.93 1552.64c0,0 9.29,83.08 2.26,210.79"/>
    <path class="fil66" d="M940.7 1719.02c0,0 -83.56,-97.16 -118.45,-112.09 -34.86,-14.86 -41.49,-2.31 -53.39,13.33 -4.86,6.35 -44.93,-11.71 -57.24,18.83 -12.43,30.55 13.5,38.61 42.48,47 21.72,6.28 -20.86,19.61 -6.11,44.65 14.66,25.12 56.48,21.22 192.7,-11.71z"/>
    <path class="fil67 str5" d="M729.38 1647.41c0,0 63.46,-5.17 211.32,71.61"/>
    <path class="fil67 str5" d="M775.83 1719.02c0,0 57.17,-11.54 148.19,-8.49 0,0 -54.49,-58.11 -117.26,-84.77"/>
    <path class="fil79" d="M964.96 1722.24c0,0 -10.82,-126.95 -63.64,-204.94 -52.72,-77.98 -132.51,-120.82 -132.51,-120.82 0,0 2.35,115.83 54.23,203.58 51.89,87.75 141.92,122.19 141.92,122.19z"/>
    <path class="fil67 str4" d="M806.79 1456.44c0,0 98.81,98.86 158.17,265.78"/>
    <path class="fil67 str4" d="M794.41 1489.5c0,0 35.71,17.22 78.62,50.93 0,0 -6.03,-46.16 -23.22,-72.48"/>
    <path class="fil67 str4" d="M824.56 1559.37c0,0 34.02,8.39 78.96,29.94"/>
    <path class="fil67 str4" d="M909.74 1549.84c0,0 11.4,43.61 16.52,81.82 0,0 -33.19,-13.67 -76.36,-22.26"/>
    <path class="fil67 str4" d="M888.1 1650.95c0,0 40.22,16.45 66.55,43.87"/>
    <polygon class="fil65" points="1445.59,1719.36 914.49,1719.36 914.49,904.31 1445.59,904.31 "/>
    <polygon class="fil80" points="1417.77,1719.36 942.15,1719.36 942.15,935.7 1417.77,935.7 "/>
    <polygon class="fil79" points="1309.64,1177.88 1257.4,1177.88 1257.4,1115.77 1309.64,1115.77 "/>
    <polygon class="fil79" points="1347.6,1177.88 1309.64,1177.88 1309.64,1131.72 1347.6,1131.72 "/>
    <polygon class="fil79" points="1417.77,1177.88 1383.81,1177.88 1383.81,1118.39 1417.77,1118.39 "/>
    <polygon class="fil66" points="1417.77,1189.08 1237.21,1189.08 1237.21,1177.97 1417.77,1177.97 "/>
    <polygon class="fil79" points="1204.18,1719.36 1417.84,1719.36 1417.84,1322.65 1204.18,1322.65 "/>
    <polygon class="fil66" points="1417.77,1455.63 1223.21,1455.63 1223.21,1345.82 1417.77,1345.82 "/>
    <line class="fil67 str6" x1="1223.23" y1="1404.2" x2="1288.86" y2= "1345.82" />
    <line class="fil67 str7" x1="1223.23" y1="1439.2" x2="1328.19" y2= "1345.77" />
    <polygon class="fil66" points="1417.77,1624.75 1223.21,1624.75 1223.21,1472.85 1417.77,1472.85 "/>
    <line class="fil67 str6" x1="1223.23" y1="1516.63" x2="1272.36" y2= "1472.92" />
    <line class="fil67 str7" x1="1223.23" y1="1551.65" x2="1311.68" y2= "1472.9" />
    <polygon class="fil81" points="1180.04,1719.36 942.25,1719.36 942.25,935.7 1180.04,935.7 "/>
    <path class="fil70" d="M1149.01 1268.71c0,7.39 -5.87,13.33 -13.26,13.33 -7.28,0 -13.14,-5.94 -13.14,-13.33 0,-7.39 5.86,-13.4 13.14,-13.4 7.39,0 13.26,6.01 13.26,13.4z"/>
    <polygon class="fil65" points="970.31,961.24 1151.95,961.24 1151.95,1213.1 970.31,1213.1 "/>
    <polygon class="fil82" points="980.62,970.65 1141.65,970.65 1141.65,1203.69 980.62,1203.69 "/>
    <polygon class="fil65" points="970.31,1329.68 1151.95,1329.68 1151.95,1479.47 970.31,1479.47 "/>
    <polygon class="fil82" points="980.62,1340.56 1141.65,1340.56 1141.65,1468.7 980.62,1468.7 "/>
    <polygon class="fil65" points="970.31,1502.13 1151.95,1502.13 1151.95,1651.99 970.31,1651.99 "/>
    <polygon class="fil82" points="980.62,1512.97 1141.65,1512.97 1141.65,1641.11 980.62,1641.11 "/>
    <polygon class="fil77" points="948.12,1719.36 939.07,1719.36 939.07,935.7 948.12,935.7 "/>
    <polygon class="fil79" points="1284.9,1081.66 1259,1081.66 1259,1054.24 1284.9,1054.24 "/>
    <polygon class="fil79" points="1331.75,1081.66 1294.87,1081.66 1294.87,1031.34 1331.75,1031.34 "/>
    <polygon class="fil79" points="1372.24,1081.66 1347.6,1081.66 1347.6,1042.79 1372.24,1042.79 "/>
    <polygon class="fil79" points="1417.77,1024.97 1383.81,1024.97 1383.81,1081.57 1417.77,1081.57 "/>
    <polygon class="fil66" points="1417.77,1092.67 1237.21,1092.67 1237.21,1081.57 1417.77,1081.57 "/>
    <path class="fil74" d="M914.44 1033.94c4.28,-4.74 7.63,-10.52 9.55,-16.89 5.7,18.42 22.65,31.73 42.67,31.73 20.04,0 37.05,-13.31 42.68,-31.73 5.67,18.42 22.62,31.73 42.64,31.73 20.04,0 37.04,-13.31 42.67,-31.73 5.7,18.42 22.63,31.73 42.65,31.73 20.06,0 37.07,-13.31 42.67,-31.73 5.7,18.42 22.65,31.73 42.67,31.73 20.04,0 36.95,-13.31 42.65,-31.73 5.7,18.42 22.65,31.73 42.67,31.73 20.04,0 36.97,-13.31 42.67,-31.73 5.7,18.42 22.62,31.73 42.65,31.73 20.03,0 36.97,-13.31 42.67,-31.73 1.92,6.37 5.27,12.14 9.55,16.89l0 -129.65 -531.1 0 0 129.65z"/>
    <path class="fil83" d="M1472.22 736.61l-584.48 0 -51.07 158.25 0 46.01c0,24.95 20.06,45.22 44.7,45.22 20.03,0 36.95,-13.43 42.65,-31.75 5.7,18.32 22.64,31.75 42.67,31.75 20.03,0 36.97,-13.43 42.67,-31.75 5.68,18.32 22.62,31.75 42.65,31.75 20.03,0 36.97,-13.43 42.67,-31.75 5.6,18.32 22.62,31.75 42.67,31.75 20.03,0 36.94,-13.43 42.65,-31.75 5.62,18.32 22.64,31.75 42.67,31.75 20.03,0 36.97,-13.43 42.64,-31.75 5.63,18.32 22.65,31.75 42.67,31.75 20.04,0 36.97,-13.43 42.58,-31.75 5.7,18.32 22.72,31.75 42.74,31.75 20.04,0 36.97,-13.43 42.58,-31.75 5.7,18.32 22.72,31.75 42.67,31.75 24.73,0 44.77,-20.27 44.77,-45.22l0 -46.01 -51.14 -158.25z"/>
    <path class="fil73" d="M1034.7 736.61l-73.58 0 -37.07 158.25 0 59.49c5.63,18.32 22.65,31.75 42.67,31.75 20.04,0 36.97,-13.43 42.67,-31.75l0 -59.49 25.31 -158.25z"/>
    <path class="fil73" d="M1107.03 736.61l-12.31 158.25 0 59.49c5.61,18.32 22.62,31.75 42.65,31.75 20.03,0 36.97,-13.43 42.67,-31.75l0 -217.74 -73.02 0z"/>
    <path class="fil73" d="M1265.32 894.91l0 59.48c5.7,18.33 22.65,31.66 42.67,31.66 20.04,0 37.04,-13.33 42.65,-31.66l0 -59.48 -24.71 -158.25 -72.95 0 12.33 158.25z"/>
    <path class="fil73" d="M1478.64 986.06c24.73,0 44.67,-20.27 44.67,-45.21l0 -45.92 -51.04 -158.35 -73.35 0 37.05 158.35 0 59.42c5.7,18.4 22.64,31.72 42.67,31.72z"/>
    <path class="fil74" d="M881.37 986.06c20.03,0 36.97,-13.32 42.67,-31.72 5.7,18.4 22.62,31.72 42.65,31.72 20.03,0 36.97,-13.32 42.67,-31.72 5.6,18.4 22.62,31.72 42.67,31.72 20.03,0 36.95,-13.32 42.65,-31.72 5.63,18.4 22.64,31.72 42.67,31.72 20.03,0 36.97,-13.32 42.67,-31.72 5.6,18.4 22.62,31.72 42.65,31.72 20.03,0 36.97,-13.32 42.67,-31.72 5.6,18.4 22.62,31.72 42.64,31.72 20.06,0 36.97,-13.32 42.6,-31.72 5.68,18.4 22.72,31.72 42.65,31.72 20.04,0 37.04,-13.32 42.67,-31.72 5.7,18.4 22.72,31.72 42.65,31.72 24.73,0 44.77,-20.27 44.77,-45.21l0 -45.92 -686.66 0 0 45.92c0,24.94 20.03,45.21 44.67,45.21z"/>
    <polygon class="fil77" points="1481.37,1767.9 878.61,1767.9 878.61,1719.29 1481.37,1719.29 "/>
    <polygon class="fil78" points="1533.01,1813.56 827.05,1813.56 827.05,1764.91 1533.01,1764.91 "/>
    <path class="fil84" d="M1216.79 1200.76c0,0 -37.54,126.95 -31.34,139.07 6.21,12.15 88.18,84.27 94.05,83.08 5.77,-1.2 13.07,-17.38 10.65,-30.21 0,0 -51.23,-57.2 -56.24,-64.58 -5.11,-7.46 19.7,-61.26 18.51,-72.81 -1.17,-11.45 -35.63,-54.55 -35.63,-54.55z"/>
    <path class="fil68" d="M1369.29 1804.18c0,0 -8.98,34.1 -4.28,39.97 4.7,5.85 61.61,6.69 75.51,2.36 13.93,-4.31 -2.32,-20.02 -19.77,-19.78 0,0 -18.1,-10.01 -22.05,-13.3 -3.95,-3.23 -2.25,-10.79 -6.96,-11.21 -4.62,-0.34 -22.46,1.95 -22.46,1.95z"/>
    <path class="fil67 str8" d="M1388.66 1825.7c0,0 3.35,-10.17 13.33,-10.01"/>
    <path class="fil67 str8" d="M1401.97 1830.82c0,0 3.11,-8.73 10.74,-8.65"/>
    <path class="fil73" d="M1382.38 1825.78c0,2.78 -2.25,5.09 -4.93,5.09 -2.78,0 -5.04,-2.31 -5.04,-5.09 0,-2.82 2.26,-5.1 5.04,-5.1 2.68,0 4.93,2.28 4.93,5.1z"/>
    <path class="fil73" d="M1363.66 1838.21c0.1,2.72 0.5,4.83 1.36,5.94 4.68,5.85 61.61,6.62 75.51,2.38 13.76,-4.26 -1.92,-19.61 -19.03,-19.78 -6.11,5.78 -3.42,15.01 -3.42,15.01 -27.49,2.65 -45.6,-0.94 -54.42,-3.56z"/>
    <path class="fil68" d="M1241.48 1810.98c0,0 -9.12,20.37 -11.47,24.1 0,0 -11.9,0.44 -12.83,19.01 0,0 18.36,9.76 51.3,0l-2.25 -43.11 -24.74 0z"/>
    <path class="fil67 str8" d="M1260.71 1832.29c0,0 -9.32,-9.57 -27.33,-3.82"/>
    <path class="fil67 str8" d="M1260.71 1819.83c0,0 -9.39,-6.03 -22.13,-2.54"/>
    <path class="fil73" d="M1217.2 1854.09c0,0 18.37,9.76 51.3,0l-0.59 -10.61c-1.17,2.54 -2.69,4.67 -4.45,5.16 0,0 0,-14 -33.43,-13.57 0,0 -11.9,0.44 -12.83,19.01z"/>
    <path class="fil85" d="M1264.8 1374.71l107.63 0.68c0,0 21.19,238.04 22.71,265.54 1.59,27.39 11.31,153.08 8.22,163.26 -3.11,10.17 -37.99,8.65 -40.25,5.5 -2.35,-3.13 -22.12,-135.85 -23.71,-150.77 -1.52,-14.87 -15.01,-113.3 -15.01,-113.3 0,0 -15.49,83.83 -19.37,103.36 -3.85,19.61 -27.82,161.47 -27.82,161.47 -10.89,10.94 -41.82,5.51 -44.94,0 -3.09,-5.5 6.63,-165.39 6.37,-184.13 -0.57,-43.11 26.17,-251.61 26.17,-251.61z"/>
    <path class="fil67 str9" d="M1274.85 1375.4c0,0 -0.34,2.12 -0.84,5.85"/>
    <path class="fil67 str10" d="M1299.84 1398.69c-2.25,16.63 -5.6,42.84 -8.28,70.26 -2.85,28.84 -12.84,152.41 -14.42,168.09 -1.27,13.09 -9.48,131.19 -12.07,169.63"/>
    <path class="fil67 str9" d="M1254.07 1808c-0.26,3.83 -0.42,5.94 -0.42,5.94"/>
    <path class="fil67 str9" d="M1327.74 1507.18c0,0 0.33,2.11 0.83,5.94"/>
    <path class="fil67 str10" d="M1363.06 1525.07c5.04,35.56 16.09,114.37 17.77,131.87 1.85,18.49 12.07,109.54 15.69,142.3"/>
    <path class="fil67 str9" d="M1408.93 1813.22c0.43,4.6 0.67,7.12 0.67,7.12"/>
    <path class="fil67 str11" d="M1288.79 1381.78c0,0 5.44,36.82 0,41.5 -5.44,4.73 -21.03,6.27 -21.03,6.27"/>
    <polyline class="fil67 str11" points="1360.79,1381.78 1365,1418.61 1377.4,1429.55 "/>
    <path class="fil67 str11" d="M1342.99 1375.4c0,0 3.09,38.54 0,46.33 -3.11,7.81 -12.23,7.81 -12.23,7.81"/>
    <path class="fil84" d="M1492.66 1084.84c1.36,-3.39 -11.64,-3.73 -14.16,-8.49 -2.58,-4.67 -7.29,-25.35 -11.14,-33.1 -3.87,-7.62 5.94,-7.88 12.91,5.2 0,0 1.26,3.63 1.26,-9.43 0,-13.07 3.95,-29.55 7.04,-30.79 3.11,-1.28 1.52,29.77 3.35,32.9 1.75,3.15 3.35,-35.55 9.31,-36.82 5.87,-1.28 1.5,29.77 2.52,32.43 1.1,2.54 5.94,-25.12 9.55,-26.16 3.61,-1.11 -1.52,27.59 -1.52,32.67 0,5.2 7.46,-18.06 10.57,-16.69 3.09,1.25 -6.46,44.02 -6.7,57.61 -0.26,13.57 -2.11,101.92 -9.55,111.83 -7.47,9.94 -115.1,52.02 -127.5,47.1 -12.4,-5 -18.7,-57.01 3.02,-63.22 21.79,-6.28 76.2,-8.39 81.88,-11.54 5.7,-3.13 19.63,-59.73 29.18,-83.49z"/>
    <path class="fil68" d="M1284.81 1173.47c0,0 -53.32,8.49 -64.13,17.49 -10.82,8.99 -47.29,74.39 -44.94,77.54 2.35,3.16 19.8,14.51 36.38,19.61 16.68,5.1 31.36,4.74 33.69,2.72 2.35,-1.95 3.11,-19.95 3.11,-19.95 0,0 11.74,45.32 14.33,58.38 2.51,13.06 -6.21,51.66 -3.59,56.94 2.49,5.26 20.1,17.22 54.13,16.21 34.12,-1.03 58.52,-13.59 60.77,-18.83 2.18,-5.19 -3.44,-65.77 -2.92,-86.74 0.5,-20.87 2.16,-48.01 2.16,-48.01 0,0 30.34,8.8 33.95,7.29 3.61,-1.55 16.52,-20.37 18.53,-40.73 2.09,-20.37 -2.01,-41.32 -6.13,-44.38 -4.18,-3.22 -70.49,1.85 -92.52,2.45 -22.05,0.61 -42.83,0 -42.83,0z"/>
    <path class="fil67 str12" d="M1277.77 1174.68c0,0 8.55,18.83 29.91,18.16 21.38,-0.68 23.73,-19.51 23.73,-19.51"/>
    <path class="fil84" d="M1289.31 1122.77c0,0 4.55,28.77 -4.51,50.76 0,0 20.76,19.61 42.81,0 0,0 -4.68,-14 -1.59,-39.54l-36.71 -11.21z"/>
    <path class="fil86" d="M1289.31 1122.77c0,0 1.53,9.94 1.01,22.5 5.7,8.22 14.25,17.89 23.47,17.89 4.28,0 8.12,-1.85 11.47,-4.41 -0.41,-6.37 -0.41,-14.59 0.76,-24.77l-36.71 -11.21z"/>
    <path class="fil87" d="M1370.48 1063.77c0,0 10.05,5.09 21.62,3.15 11.67,-1.94 0.93,20.35 -18.27,24.94 0,0 -8.12,-11.44 -3.35,-28.09z"/>
    <path class="fil84" d="M1344.53 1042.83c38.31,13.33 32.86,48.61 22.05,72.89 -9.14,20.54 -28.15,41.93 -50.63,35.66 -22.46,-6.28 -42.84,-29.04 -29.84,-72.14 9.64,-32.07 33.12,-45.22 58.42,-36.4z"/>
    <path class="fil77" d="M1288.67 1072.43c0,0 12.31,0.17 27.32,-18.6 0,0 20.21,15.64 50.04,16.22 29.75,0.6 35.79,-19.1 22.98,-21.8 0,0 13.15,-22.08 0.84,-27.58 -12.4,-5.44 -26.56,9.84 -48.44,4.33 -21.89,-5.43 -37.05,-7.46 -39.06,7.29 0,0 -9.05,-5.94 -15.52,2.31 -6.37,8.22 -1.59,47.68 -1.59,47.68l3.45 -9.84z"/>
    <path class="fil86" d="M1282.23 1099.22l6.47 -26.82c0,0 -0.6,-18.16 -11,-16.62 -12.81,1.85 -17.51,41.83 4.54,43.44z"/>
    <path class="fil84" d="M1277.67 1055.75c-4.18,0.61 -7.53,5.34 -9.31,11.45 7.81,-3.47 15.52,1.78 20.13,6.04l0.17 -0.85c0,0 -0.6,-18.16 -10.98,-16.65z"/>
    <path class="fil86" d="M1356.79 1130.42l13.07 -24.2c0,0 12.57,-12.97 19.3,-4.73 8.19,10.1 -15.02,42.83 -32.37,28.94z"/>
    <path class="fil84" d="M1389.13 1101.45c-6.7,-8.15 -19.2,4.74 -19.2,4.74l-0.43 0.77c6.13,0 15.45,1.45 18.87,9.43 2.78,-5.77 3.52,-11.64 0.76,-14.94z"/>
    <path class="fil88" d="M1319.09 1084.45c-0.59,2.38 -2.42,4 -4.11,3.49 -1.76,-0.43 -2.68,-2.64 -2.09,-5.02 0.6,-2.36 2.42,-3.97 4.11,-3.56 1.76,0.5 2.69,2.71 2.09,5.09z"/>
    <path class="fil88" d="M1352.81 1098.04c-0.6,2.38 -2.42,3.9 -4.19,3.49 -1.68,-0.44 -2.61,-2.65 -2.01,-5 0.59,-2.38 2.42,-4 4.11,-3.49 1.75,0.33 2.68,2.62 2.09,5z"/>
    <path class="fil77" d="M1313.62 1069.88c1.75,-2.12 4.87,-4.17 7.63,-4.67 1.76,-0.44 3.28,-0.94 5.04,-0.24 0.83,0.24 3.58,1.94 3.42,3.12 -0.34,2.21 -6.54,1.11 -7.96,0.85 -1.82,-0.34 -7.3,1.87 -8.12,0.94z"/>
    <path class="fil77" d="M1354.27 1077.88c0.67,-0.41 2.43,-0.67 3.69,-0.16 2.02,0.84 2.78,2.28 3.52,4.26 0.69,1.52 1.09,3.22 1.09,4.9 0,0.34 -0.57,3.99 -0.83,3.39 -0.26,0 -1.17,-3.05 -1.34,-3.29 -0.59,-1.11 -1.19,-2.21 -2.01,-3.06 -0.84,-0.7 -2.02,-1.28 -2.52,-2.31 -0.26,-0.33 -2.92,-2.35 -1.59,-3.73 -0.07,0 -0.07,0 0,0z"/>
    <path class="fil86" d="M1313.05 1101.05c-1.92,5.51 -8.62,8.15 -14.99,5.94 -6.37,-2.28 -9.98,-8.65 -8.05,-14.16 1.92,-5.53 8.62,-8.15 14.99,-5.87 6.39,2.31 9.98,8.59 8.05,14.09z"/>
    <path class="fil86" d="M1364.49 1120.48c-1.92,5.51 -8.62,8.15 -14.99,5.87 -6.36,-2.31 -9.98,-8.59 -8.05,-14.09 1.92,-5.51 8.63,-8.15 14.99,-5.94 6.4,2.28 9.99,8.65 8.05,14.16z"/>
    <path class="fil70" d="M1271 1175.92c0,0 17.17,40.49 20.2,43.11 3.02,2.64 37.73,0 40.22,-3.64 2.52,-3.66 6.13,-43.37 6.13,-43.37 0,0 6.04,-3.65 12.41,0 0,0 4.93,52.17 6.87,56.94 1.92,4.67 18.1,23.5 20.54,26.39 2.5,2.89 3.93,95.13 4.29,120.08 0.33,24.87 26.3,133.06 25.37,139.85 -0.83,6.78 -46.5,20.87 -89.17,20.87 -42.74,0 -77.86,-18.25 -77.86,-21.91 0,-3.63 30.01,-131.7 31.01,-145.77 1,-14.16 -24.48,-91.07 -23.55,-95.8 0.84,-4.76 14.23,-34.81 15.83,-40.82 1.53,-6.01 -10.32,-49.05 -11.64,-51.83 -1.26,-2.82 13.67,-8.49 19.37,-4.1z"/>
    <path class="fil73" d="M1349.22 1278.83c0,14.33 -11.48,25.95 -25.67,25.95 -14.15,0 -25.64,-11.61 -25.64,-25.88 -0.09,-14.41 11.48,-26.05 25.64,-26.05 14.18,0 25.67,11.63 25.67,25.98z"/>
   </g>
  </g>
 </g>
</svg>
