<?xml version="1.0" encoding="UTF-8"?>
<!DOCTYPE svg PUBLIC "-//W3C//DTD SVG 1.1//EN" "http://www.w3.org/Graphics/SVG/1.1/DTD/svg11.dtd">
<!-- Creator: CorelDRAW 2020 (64-Bit) -->
<svg xmlns="http://www.w3.org/2000/svg" xml:space="preserve" width="65.7174mm" height="17.9625mm" version="1.1" style="shape-rendering:geometricPrecision; text-rendering:geometricPrecision; image-rendering:optimizeQuality; fill-rule:evenodd; clip-rule:evenodd"
viewBox="0 0 6561.36 1793.41"
 xmlns:xlink="http://www.w3.org/1999/xlink"
 xmlns:xodm="http://www.corel.com/coreldraw/odm/2003">
 <defs>
  <style type="text/css">
   <![CDATA[
    .str0 {stroke:#FEFEFE;stroke-width:19.97;stroke-miterlimit:22.9256}
    .fil56 {fill:none}
    .fil59 {fill:#34A853}
    .fil60 {fill:#4285F4}
    .fil58 {fill:#EA4335}
    .fil61 {fill:#FABC05}
    .fil27 {fill:#FFD23A;fill-rule:nonzero}
    .fil49 {fill:#FCB53D;fill-rule:nonzero}
    .fil18 {fill:#FAAA3C;fill-rule:nonzero}
    .fil16 {fill:#F9A33E;fill-rule:nonzero}
    .fil12 {fill:#F1624D;fill-rule:nonzero}
    .fil10 {fill:#F15F56;fill-rule:nonzero}
    .fil1 {fill:#EE4477;fill-rule:nonzero}
    .fil15 {fill:#F18768;fill-rule:nonzero}
    .fil11 {fill:#F07D44;fill-rule:nonzero}
    .fil9 {fill:#EB4A6A;fill-rule:nonzero}
    .fil2 {fill:#EA4389;fill-rule:nonzero}
    .fil17 {fill:#F8C539;fill-rule:nonzero}
    .fil29 {fill:#F0A047;fill-rule:nonzero}
    .fil13 {fill:#E6649C;fill-rule:nonzero}
    .fil53 {fill:#F1BE39;fill-rule:nonzero}
    .fil25 {fill:#DF6F85;fill-rule:nonzero}
    .fil14 {fill:#E05899;fill-rule:nonzero}
    .fil19 {fill:#E8BC3B;fill-rule:nonzero}
    .fil3 {fill:#D83064;fill-rule:nonzero}
    .fil20 {fill:#D95499;fill-rule:nonzero}
    .fil26 {fill:#E2CA3B;fill-rule:nonzero}
    .fil8 {fill:#CB4E96;fill-rule:nonzero}
    .fil21 {fill:#C84292;fill-rule:nonzero}
    .fil52 {fill:#C1BE3F;fill-rule:nonzero}
    .fil37 {fill:#BFBF41;fill-rule:nonzero}
    .fil50 {fill:#BEC449;fill-rule:nonzero}
    .fil54 {fill:#AC4494;fill-rule:nonzero}
    .fil7 {fill:#9F4C99;fill-rule:nonzero}
    .fil22 {fill:#994796;fill-rule:nonzero}
    .fil23 {fill:#97529B;fill-rule:nonzero}
    .fil39 {fill:#88C070;fill-rule:nonzero}
    .fil51 {fill:#81C575;fill-rule:nonzero}
    .fil24 {fill:#82559F;fill-rule:nonzero}
    .fil55 {fill:#7A3B8D;fill-rule:nonzero}
    .fil41 {fill:#5DB978;fill-rule:nonzero}
    .fil46 {fill:#5CB677;fill-rule:nonzero}
    .fil36 {fill:#6970B0;fill-rule:nonzero}
    .fil45 {fill:#2DA48D;fill-rule:nonzero}
    .fil6 {fill:#644595;fill-rule:nonzero}
    .fil47 {fill:#2F938B;fill-rule:nonzero}
    .fil48 {fill:#318889;fill-rule:nonzero}
    .fil40 {fill:#348095;fill-rule:nonzero}
    .fil42 {fill:#3286AC;fill-rule:nonzero}
    .fil44 {fill:#367E95;fill-rule:nonzero}
    .fil43 {fill:#2C8889;fill-rule:nonzero}
    .fil38 {fill:#3A78B8;fill-rule:nonzero}
    .fil30 {fill:#307898;fill-rule:nonzero}
    .fil35 {fill:#4960A7;fill-rule:nonzero}
    .fil28 {fill:#554191;fill-rule:nonzero}
    .fil5 {fill:#47539C;fill-rule:nonzero}
    .fil34 {fill:#23638D;fill-rule:nonzero}
    .fil31 {fill:#255F82;fill-rule:nonzero}
    .fil4 {fill:#424690;fill-rule:nonzero}
    .fil33 {fill:#41407C;fill-rule:nonzero}
    .fil32 {fill:#2A4967;fill-rule:nonzero}
    .fil57 {fill:#FFFBD4;fill-rule:nonzero}
    .fil0 {fill:url(#id1)}
   ]]>
  </style>
     <clipPath id="id0">
      <path d="M526.45 793.35l5447.3 0c202.14,0 367.5,165.38 367.5,367.51l0 0.01c0,202.12 -165.36,367.49 -367.5,367.49l-5447.3 0c-202.13,0 -367.5,-165.37 -367.5,-367.49l0 -0.01c0,-202.13 165.37,-367.51 367.5,-367.51z"/>
     </clipPath>
  <linearGradient id="id1" gradientUnits="userSpaceOnUse" x1="3285.88" y1="1795.43" x2="3296.37" y2="-2.02">
   <stop offset="0" style="stop-opacity:1; stop-color:#0DA5D5"/>
   <stop offset="0.4" style="stop-opacity:1; stop-color:#85D1E9"/>
   <stop offset="1" style="stop-opacity:1; stop-color:#FEFEFE"/>
  </linearGradient>
 </defs>
 <g id="Capa_x0020_1">
  <metadata id="CorelCorpID_0Corel-Layer"/>
  <g id="_2121032237664">
   <rect class="fil0" x="20.9" y="-0.01" width="6540.46" height="1793.41" rx="188.83" ry="338.71"/>
   <g>
    <g>
    </g>
    <g style="clip-path:url(#id0)">
     <g>
      <g>
       <path class="fil1" d="M5800.16 468.57l146.02 -72.3c70.98,46.31 135.29,94.5 192.44,144.34l-338.45 -72.05z"/>
       <path class="fil2" d="M5673.17 243.05l126.99 225.52 146.03 -72.3c-82.36,-53.72 -173.64,-104.91 -273.02,-153.23z"/>
       <path class="fil3" d="M4467.38 -126.33l-421.63 106.97 -188.34 -188.4c211.63,19.16 415.67,46.58 609.97,81.43z"/>
       <path class="fil2" d="M4045.75 -19.36l1088.29 115.26 25.27 -54.32c-211.8,-66.85 -443.94,-123.4 -691.93,-167.9l-421.63 106.97z"/>
       <path class="fil1" d="M5800.16 468.57l-666.12 -372.67 25.27 -54.32c188.42,59.47 360.71,127.05 513.86,201.47l126.99 225.52z"/>
       <path class="fil4" d="M837.24 142.24l422.09 264.85 -834.76 -66.43c121.93,-71.48 260.19,-137.92 412.67,-198.42z"/>
       <path class="fil5" d="M1645.34 -93.88l-386 500.99 -422.1 -264.86c237.77,-94.33 509.91,-174.21 808.1,-236.13z"/>
       <path class="fil6" d="M2460.21 60.36l-1200.88 346.74 386.01 -500.99c147.92,-30.72 302.26,-56.97 461.92,-78.44l352.95 232.68z"/>
       <path class="fil7" d="M3482.84 -19.36l-1022.63 79.72 301.19 -291.21c104.98,-4.9 211.45,-7.79 319.16,-8.59l402.27 220.07z"/>
       <path class="fil8" d="M3482.84 -19.36l562.92 0 -188.34 -188.4c-75.01,-6.78 -150.95,-12.54 -227.77,-17.21l-146.81 205.61z"/>
       <path class="fil9" d="M5800.16 468.57l-333.07 422.62 836.19 -176.74c-45.25,-59.84 -100.5,-117.85 -164.66,-173.83l-338.45 -72.05z"/>
       <path class="fil10" d="M6449.07 1159.02l-981.98 -267.83 836.18 -176.73c95.93,126.87 147.64,261.71 147.64,401.48l0 0c0,14.42 -0.74,28.76 -1.84,43.07z"/>
       <path class="fil11" d="M5467.1 891.19l656.74 645.45 273.79 -177.34c28.88,-65.26 46.24,-132.14 51.45,-200.27l-981.98 -267.84z"/>
       <path class="fil12" d="M6228.25 1605.53l-104.41 -68.89 273.79 -177.35c-37.72,85.12 -94.83,167.45 -169.37,246.24z"/>
       <polygon class="fil13" points="5134.05,95.9 4415.21,679.88 5800.15,468.58 "/>
       <polygon class="fil14" points="5467.1,891.19 4415.21,679.88 5800.16,468.58 "/>
       <polygon class="fil15" points="4528.91,1432.9 4415.21,679.88 5467.1,891.19 "/>
       <polygon class="fil16" points="6123.84,1536.64 4528.91,1432.9 5467.1,891.19 "/>
       <path class="fil16" d="M5996.65 1801.59l127.19 -264.95 104.41 68.89c-64.55,68.19 -142.17,133.72 -231.6,196.06z"/>
       <polygon class="fil17" points="4528.91,1432.9 5134.05,1940.05 6123.84,1536.64 "/>
       <path class="fil18" d="M5473 2077.87l-338.95 -137.83 989.79 -403.4 -127.19 264.95c-145.23,101.23 -321.5,194.07 -523.65,276.28z"/>
       <path class="fil19" d="M5134.05 1940.04l-615.2 408.76c356.66,-66.98 679.23,-159.14 954.15,-270.93l-338.95 -137.83z"/>
       <polygon class="fil20" points="4045.75,-19.36 4415.21,679.88 5134.04,95.9 "/>
       <polygon class="fil21" points="3482.84,-19.36 4415.2,679.88 4045.76,-19.36 "/>
       <polygon class="fil22" points="2460.21,60.36 2618.97,468.57 3482.83,-19.36 "/>
       <polygon class="fil23" points="4415.21,679.88 2618.97,468.58 3482.84,-19.36 "/>
       <polygon class="fil24" points="2618.98,468.57 3513.81,891.19 4415.21,679.88 "/>
       <polygon class="fil25" points="4528.91,1432.9 3513.81,891.19 4415.21,679.88 "/>
       <polygon class="fil26" points="3753.46,1828.63 4528.91,1432.9 5134.05,1940.04 "/>
       <path class="fil27" d="M4153.12 2406.92l-399.66 -578.29 1380.58 111.41 -615.19 408.76c-118.32,22.22 -240.41,41.64 -365.73,58.12z"/>
       <polygon class="fil28" points="1259.34,407.11 2618.98,468.57 2460.21,60.36 "/>
       <polygon class="fil29" points="3513.81,891.19 2990.23,1381.03 4528.91,1432.9 "/>
       <path class="fil30" d="M536.93 1828.63l-142.87 44.54c-66.51,-40.38 -127.68,-82.35 -183.47,-125.65l326.34 81.11z"/>
       <path class="fil31" d="M-169.65 1130.93l776.93 -38.04 -686.4 339.65c-56.62,-96.92 -87.78,-197.87 -90.53,-301.61z"/>
       <path class="fil32" d="M-85.68 810.43l692.96 282.46 -776.93 38.04c-0.13,-5 -0.47,-9.97 -0.47,-14.99l0 0c0,-105.06 29.2,-207.33 84.44,-305.52z"/>
       <path class="fil33" d="M424.57 340.66l834.76 66.43 -1181.67 193.56c92.64,-92.2 209.29,-179.31 346.91,-260z"/>
       <path class="fil34" d="M607.29 1092.89l652.05 -685.78 -1181.68 193.56c-67.67,67.37 -122.63,137.44 -163.34,209.75l692.97 282.47z"/>
       <polygon class="fil35" points="2618.98,468.57 2147.48,787.45 1259.34,407.11 "/>
       <polygon class="fil36" points="3513.81,891.19 2147.49,787.45 2618.98,468.58 "/>
       <polygon class="fil37" points="2990.22,1381.03 2147.48,787.45 3513.81,891.19 "/>
       <polygon class="fil38" points="607.29,1092.89 2147.48,787.45 1259.34,407.11 "/>
       <polygon class="fil39" points="2990.22,1381.03 1933.96,1539.69 2147.48,787.45 "/>
       <polygon class="fil40" points="607.29,1092.89 1536.1,1244.32 2147.48,787.45 "/>
       <polygon class="fil41" points="1933.96,1539.69 1536.1,1244.31 2147.48,787.45 "/>
       <path class="fil42" d="M-17.21 1524.22l1553.31 -279.91 -928.82 -151.42 -686.4 339.65c18.11,30.98 38.72,61.56 61.91,91.67z"/>
       <polygon class="fil43" points="1933.96,1539.69 536.93,1828.63 1536.1,1244.31 "/>
       <path class="fil44" d="M210.6 1747.51l326.33 81.11 999.17 -584.32 -1553.31 279.91c59.89,77.69 136.41,152.34 227.81,223.3z"/>
       <path class="fil45" d="M536.93 1828.63l13.12 131.46c-54.68,-28.11 -106.81,-57.07 -155.99,-86.92l142.87 -44.54z"/>
       <polygon class="fil46" points="1809.29,2000.08 536.93,1828.63 1933.95,1539.69 "/>
       <path class="fil47" d="M1276.72 2236.48l532.58 -236.4 -1272.37 -171.46 13.12 131.46c206.88,106.3 451.89,199.6 726.67,276.39z"/>
       <path class="fil48" d="M2179.61 2413.56l-370.32 -413.48 -532.57 236.4c274.22,76.63 577.99,136.79 902.89,177.08z"/>
       <path class="fil49" d="M3753.46 1828.63l-1280.11 615.48c215.47,18.05 438.56,27.53 667.04,27.53l0 0c353.26,0 693.5,-22.74 1012.73,-64.71l-399.66 -578.29z"/>
       <path class="fil50" d="M1809.29 2000.08l1944.18 -171.46 -1280.11 615.48c-99.65,-8.35 -197.58,-18.61 -293.75,-30.54l-370.32 -413.48z"/>
       <polygon class="fil51" points="1933.96,1539.69 3753.46,1828.63 1809.3,2000.08 "/>
       <polygon class="fil52" points="2990.22,1381.03 3753.46,1828.63 1933.96,1539.69 "/>
       <polygon class="fil53" points="4528.91,1432.9 3753.46,1828.63 2990.22,1381.03 "/>
       <path class="fil54" d="M3629.66 -224.97l-146.82 205.61 -402.28 -220.07c19.92,-0.15 39.84,-0.31 59.84,-0.31l0 0c166.26,0 329.59,5.08 489.27,14.77z"/>
       <path class="fil55" d="M2761.39 -230.84l-301.18 291.21 -352.95 -232.68c209.6,-28.18 428.41,-47.99 654.13,-58.53z"/>
      </g>
     </g>
    </g>
    <path class="fil56 str0" d="M526.45 793.35l5447.3 0c202.14,0 367.5,165.38 367.5,367.51l0 0.01c0,202.12 -165.36,367.49 -367.5,367.49l-5447.3 0c-202.13,0 -367.5,-165.37 -367.5,-367.49l0 -0.01c0,-202.13 165.37,-367.51 367.5,-367.51z"/>
    <rect class="fil56 str0" x="408.26" y="864.62" width="5693.67" height="592.49" rx="826.5" ry="296.25"/>
   </g>
   <polygon class="fil57" points="914.32,1277.48 955.67,1277.48 955.67,1044.57 914.32,1044.57 "/>
   <polygon id="1" class="fil57" points="1014.96,1277.48 1054.63,1277.48 1054.63,1114.17 1151.05,1277.48 1192.34,1277.48 1192.34,1044.57 1152.67,1044.57 1152.67,1207.61 1055.92,1044.57 1014.96,1044.57 "/>
   <polygon id="2" class="fil57" points="1251.7,1277.48 1293.03,1277.48 1293.03,1044.57 1251.7,1044.57 "/>
   <path id="3" class="fil57" d="M1447.31 1280.79c45.73,0 82.41,-23.56 100.63,-67.11l-38.29 -15.8c-12.33,31.33 -32.73,43.2 -62.34,43.2 -49.29,0 -70.3,-35.43 -70.3,-81.79 0,-43.15 21.01,-78.6 69.68,-78.6 29.95,0 53.69,11.87 62.35,42.53l38.57 -15.53c-18.57,-43.49 -55.01,-66.83 -100.64,-66.83 -75.69,0 -110.98,56.31 -110.98,120.11 0,63.96 35.62,119.82 111.32,119.82z"/>
   <polygon id="4" class="fil57" points="1585.45,1277.48 1626.8,1277.48 1626.8,1044.57 1585.45,1044.57 "/>
   <path id="5" class="fil57" d="M1780.77 1280.85c76.03,0 111.03,-56.42 111.03,-119.88 0,-63.52 -35,-119.78 -111.03,-119.78 -76.02,0 -111.03,56.26 -111.03,119.78 0,63.46 35.01,119.88 111.03,119.88zm0 -37.13c-49.29,0 -67.35,-38.76 -67.35,-82.75 0,-43.88 18.06,-82.65 67.35,-82.65 49.29,0 67.36,38.77 67.36,82.65 0,43.99 -18.07,82.75 -67.36,82.75z"/>
   <path id="6" class="fil57" d="M2024.9 1277.42l66.4 0c77.36,0 119.98,-42.19 119.98,-114.65 0,-75.61 -41.34,-118.14 -119.65,-118.14l-66.73 0 0 232.79zm41.34 -38.36l0 -156.06 24.73 0c56.68,0 78.97,22.72 78.97,77.98 0,58.11 -31.9,78.09 -82.69,78.09l-21.01 0z"/>
   <polygon id="7" class="fil57" points="2254.29,1277.48 2407.28,1277.48 2407.28,1237.98 2295.64,1237.98 2295.64,1180.21 2399.66,1180.21 2399.66,1141.84 2295.64,1141.84 2295.64,1083 2407.28,1083 2407.28,1044.63 2254.29,1044.63 "/>
   <path id="8" class="fil57" d="M2612.74 1280.17c44,0 79.96,-26.55 79.96,-70.6 0,-77.36 -111.36,-62.5 -111.36,-106.38 0,-14.86 12.67,-24.87 29,-24.87 15.46,0 29.12,9.06 37.12,24.87l34.35 -21.27c-15.79,-28.25 -41.67,-40.74 -70.02,-40.74 -38.79,0 -71.8,23.01 -71.8,64.14 0,75.89 111.36,59.75 111.36,108.07 0,16.48 -13.35,29.65 -37.96,29.65 -24.45,0 -44.79,-12.83 -47.67,-41.86l-41.02 10.52c7.34,45.85 47.35,68.46 88.03,68.46z"/>
   <polygon id="9" class="fil57" points="2732.1,1277.48 2885.08,1277.48 2885.08,1237.98 2773.44,1237.98 2773.44,1180.21 2877.47,1180.21 2877.47,1141.84 2773.44,1141.84 2773.44,1083 2885.08,1083 2885.08,1044.63 2732.1,1044.63 "/>
   <path id="10" class="fil57" d="M3000.51 1280.17c44.01,0 79.96,-26.55 79.96,-70.6 0,-77.36 -111.36,-62.5 -111.36,-106.38 0,-14.86 12.67,-24.87 29,-24.87 15.46,0 29.12,9.06 37.12,24.87l34.35 -21.27c-15.79,-28.25 -41.67,-40.74 -70.02,-40.74 -38.79,0 -71.8,23.01 -71.8,64.14 0,75.89 111.36,59.75 111.36,108.07 0,16.48 -13.34,29.65 -37.96,29.65 -24.45,0 -44.78,-12.83 -47.67,-41.86l-41.02 10.52c7.34,45.85 47.35,68.46 88.03,68.46z"/>
   <polygon id="11" class="fil57" points="3119.87,1277.48 3161.22,1277.48 3161.22,1044.57 3119.87,1044.57 "/>
   <path id="12" class="fil57" d="M3295.87 1024.32l28.94 0 49.96 -47.59 -42.35 0 -36.55 47.59zm19.33 256.53c76.03,0 111.02,-56.42 111.02,-119.88 0,-63.52 -34.99,-119.78 -111.02,-119.78 -76.02,0 -111.03,56.26 -111.03,119.78 0,63.46 35.01,119.88 111.03,119.88zm0 -37.13c-49.29,0 -67.35,-38.76 -67.35,-82.75 0,-43.88 18.06,-82.65 67.35,-82.65 49.29,0 67.35,38.77 67.35,82.65 0,43.99 -18.06,82.75 -67.35,82.75z"/>
   <polygon id="13" class="fil57" points="3469.3,1277.48 3508.98,1277.48 3508.98,1114.17 3605.39,1277.48 3646.68,1277.48 3646.68,1044.57 3607.01,1044.57 3607.01,1207.61 3510.25,1044.57 3469.3,1044.57 "/>
   <path id="14" class="fil57" d="M3891.03 1280.79c45.74,0 82.41,-23.56 100.64,-67.11l-38.29 -15.8c-12.34,31.33 -32.73,43.2 -62.35,43.2 -49.29,0 -70.3,-35.43 -70.3,-81.79 0,-43.15 21.01,-78.6 69.69,-78.6 29.95,0 53.69,11.87 62.35,42.53l38.56 -15.53c-18.56,-43.49 -55.01,-66.83 -100.63,-66.83 -75.7,0 -110.98,56.31 -110.98,120.11 0,63.96 35.62,119.82 111.31,119.82z"/>
   <path id="15" class="fil57" d="M4123.86 1280.85c76.03,0 111.03,-56.42 111.03,-119.88 0,-63.52 -35,-119.78 -111.03,-119.78 -76.02,0 -111.03,56.26 -111.03,119.78 0,63.46 35.01,119.88 111.03,119.88zm0 -37.13c-49.29,0 -67.35,-38.76 -67.35,-82.75 0,-43.88 18.06,-82.65 67.35,-82.65 49.29,0 67.36,38.77 67.36,82.65 0,43.99 -18.07,82.75 -67.36,82.75z"/>
   <polygon id="16" class="fil57" points="4277.96,1277.48 4317.64,1277.48 4317.64,1114.17 4414.05,1277.48 4455.35,1277.48 4455.35,1044.57 4415.67,1044.57 4415.67,1207.61 4318.93,1044.57 4277.96,1044.57 "/>
   <path id="17" class="fil57" d="M4699.7 1280.85c30.61,0 55.67,-14.18 68.06,-36.11l3.56 32.74 32.73 0 0 -125.9 -92.3 0 0 33.75 52.24 0c-4.55,35.44 -31.23,58.06 -64.29,58.06 -49.29,0 -70.3,-37.74 -70.3,-84.05 0,-43.26 21.01,-82.02 69.68,-82.02 29.28,0 53.35,14.18 63.96,45.91l36.62 -15.53c-18.56,-43.55 -55.01,-66.83 -100.3,-66.83 -76.02,0 -110.98,56.25 -110.98,120.11 0,63.96 35.62,119.88 111.32,119.88z"/>
   <path id="18" class="fil57" d="M4949.15 1280.85c76.03,0 111.03,-56.42 111.03,-119.88 0,-63.52 -35,-119.78 -111.03,-119.78 -76.02,0 -111.03,56.26 -111.03,119.78 0,63.46 35.01,119.88 111.03,119.88zm0 -37.13c-49.29,0 -67.35,-38.76 -67.35,-82.75 0,-43.88 18.06,-82.65 67.35,-82.65 49.29,0 67.36,38.77 67.36,82.65 0,43.99 -18.07,82.75 -67.36,82.75z"/>
   <path id="19" class="fil57" d="M5197.93 1280.85c76.03,0 111.03,-56.42 111.03,-119.88 0,-63.52 -35,-119.78 -111.03,-119.78 -76.02,0 -111.02,56.26 -111.02,119.78 0,63.46 35,119.88 111.02,119.88zm0 -37.13c-49.29,0 -67.34,-38.76 -67.34,-82.75 0,-43.88 18.05,-82.65 67.34,-82.65 49.29,0 67.36,38.77 67.36,82.65 0,43.99 -18.07,82.75 -67.36,82.75z"/>
   <path id="20" class="fil57" d="M5447.01 1280.85c30.61,0 55.67,-14.18 68.07,-36.11l3.55 32.74 32.73 0 0 -125.9 -92.3 0 0 33.75 52.25 0c-4.56,35.44 -31.24,58.06 -64.3,58.06 -49.29,0 -70.3,-37.74 -70.3,-84.05 0,-43.26 21.01,-82.02 69.69,-82.02 29.28,0 53.35,14.18 63.96,45.91l36.61 -15.53c-18.56,-43.55 -55.01,-66.83 -100.3,-66.83 -76.01,0 -110.97,56.25 -110.97,120.11 0,63.96 35.62,119.88 111.31,119.88z"/>
   <polygon id="21" class="fil57" points="5601.78,1277.48 5741.42,1277.48 5741.42,1237.98 5643.11,1237.98 5643.11,1044.57 5601.78,1044.57 "/>
   <polygon id="22" class="fil57" points="5774.81,1277.48 5927.8,1277.48 5927.8,1237.98 5816.16,1237.98 5816.16,1180.21 5920.19,1180.21 5920.19,1141.84 5816.16,1141.84 5816.16,1083 5927.8,1083 5927.8,1044.63 5774.81,1044.63 "/>
   <g id="_2121032239584">
    <path class="fil58" d="M49.96 302.53l76.72 58.5c4.33,3.24 71.29,54.19 75.72,60.49 13.73,-28.64 6.11,-21.96 28.41,-60.37 77.03,-132.71 262.5,-182.56 398.19,-87.69 8.99,6.28 18.36,16.29 26.48,20l49.31 -47.18c6.18,-5.8 10.08,-11.41 16.09,-17.2 11.48,-11.06 21.73,-20.57 33.24,-31.6 9.66,-9.27 23.45,-24.06 33.33,-31.17 -5.25,-11.08 -44.03,-38.98 -56.25,-46.92 -126.72,-82.4 -207.24,-68.8 -229.86,-77.95l-59.86 0c-23.72,10.05 -112.46,-2.03 -240.54,86.12 -30.32,20.86 -64.12,51.01 -85.56,77.42 -32.87,40.48 -39.7,50.51 -65.42,97.55z"/>
    <path class="fil59" d="M49.83 725.15c40.96,69.6 55.87,96.73 123.49,153.96 144.35,122.17 359.03,140.54 531.26,50.24 24.23,-12.7 66.15,-41.42 79.92,-58.71l-37.42 -28.32c-14.75,-11.37 -104.24,-79.23 -110.04,-86.47 -9.12,4.29 -17.03,10.72 -26.87,16.08 -9.11,4.98 -19.26,9.23 -29.58,13.05 -69.14,25.59 -148.13,24.24 -214.31,-2.53 -74.96,-30.33 -135.02,-93.61 -162.56,-174.83 -7.69,4.4 -13.54,9.87 -20.42,15.24l-133.48 102.29z"/>
    <path class="fil60" d="M637.05 755.85c5.8,7.24 95.29,75.1 110.04,86.47l37.42 28.32c34.86,-24.88 77.35,-90.99 96.72,-133.18 45.21,-98.49 38.18,-169.68 44.59,-185.43l0 -53.09c-5.21,-13.72 -1.79,-62.74 -12.96,-71.15l-440.69 0 -0.06 175.21 259.29 0c1.89,41.13 -44.02,113.62 -77.2,138.91 -5.68,4.33 -11.8,9.42 -17.14,13.93z"/>
    <path class="fil61" d="M-0 484.03l0 64.02c4.9,11.25 4.86,34.89 7.43,48.96 2.84,15.6 6.54,31.93 10.74,46.49 8.5,29.46 19.51,56.15 31.66,81.65l133.48 -102.29c6.88,-5.36 12.73,-10.83 20.42,-15.24 -9.73,-26.21 -15.75,-61.44 -15.91,-92.16 -0.21,-38.7 7.09,-60.06 14.59,-93.94 -4.43,-6.3 -71.39,-57.25 -75.72,-60.49l-76.72 -58.5c-13.01,28.33 -22.92,51.8 -32.41,84.21 -4.37,14.94 -8.06,31.1 -10.66,46.73 -1.91,11.4 -3.8,42.87 -6.89,50.57z"/>
   </g>
  </g>
 </g>
</svg>
