<?xml version="1.0" encoding="UTF-8"?>
<!DOCTYPE svg PUBLIC "-//W3C//DTD SVG 1.1//EN" "http://www.w3.org/Graphics/SVG/1.1/DTD/svg11.dtd">
<!-- Creator: CorelDRAW 2020 (64-Bit) -->
<svg xmlns="http://www.w3.org/2000/svg" xml:space="preserve" width="29.5821mm" height="19.5332mm" version="1.1" style="shape-rendering:geometricPrecision; text-rendering:geometricPrecision; image-rendering:optimizeQuality; fill-rule:evenodd; clip-rule:evenodd"
viewBox="0 0 2947.84 1946.47"
 xmlns:xlink="http://www.w3.org/1999/xlink"
 xmlns:xodm="http://www.corel.com/coreldraw/odm/2003">
 <defs>
  <style type="text/css">
   <![CDATA[
    .str0 {stroke:#FEFEFE;stroke-width:19.93;stroke-miterlimit:22.9256}
    .fil55 {fill:none}
    .fil57 {fill:#FEFEFE}
    .fil26 {fill:#FFD23A;fill-rule:nonzero}
    .fil48 {fill:#FCB53D;fill-rule:nonzero}
    .fil17 {fill:#FAAA3C;fill-rule:nonzero}
    .fil15 {fill:#F9A33E;fill-rule:nonzero}
    .fil11 {fill:#F1624D;fill-rule:nonzero}
    .fil9 {fill:#F15F56;fill-rule:nonzero}
    .fil0 {fill:#EE4477;fill-rule:nonzero}
    .fil14 {fill:#F18768;fill-rule:nonzero}
    .fil10 {fill:#F07D44;fill-rule:nonzero}
    .fil8 {fill:#EB4A6A;fill-rule:nonzero}
    .fil1 {fill:#EA4389;fill-rule:nonzero}
    .fil16 {fill:#F8C539;fill-rule:nonzero}
    .fil28 {fill:#F0A047;fill-rule:nonzero}
    .fil12 {fill:#E6649C;fill-rule:nonzero}
    .fil52 {fill:#F1BE39;fill-rule:nonzero}
    .fil24 {fill:#DF6F85;fill-rule:nonzero}
    .fil13 {fill:#E05899;fill-rule:nonzero}
    .fil18 {fill:#E8BC3B;fill-rule:nonzero}
    .fil2 {fill:#D83064;fill-rule:nonzero}
    .fil19 {fill:#D95499;fill-rule:nonzero}
    .fil25 {fill:#E2CA3B;fill-rule:nonzero}
    .fil7 {fill:#CB4E96;fill-rule:nonzero}
    .fil20 {fill:#C84292;fill-rule:nonzero}
    .fil51 {fill:#C1BE3F;fill-rule:nonzero}
    .fil36 {fill:#BFBF41;fill-rule:nonzero}
    .fil49 {fill:#BEC449;fill-rule:nonzero}
    .fil53 {fill:#AC4494;fill-rule:nonzero}
    .fil6 {fill:#9F4C99;fill-rule:nonzero}
    .fil21 {fill:#994796;fill-rule:nonzero}
    .fil22 {fill:#97529B;fill-rule:nonzero}
    .fil38 {fill:#88C070;fill-rule:nonzero}
    .fil50 {fill:#81C575;fill-rule:nonzero}
    .fil23 {fill:#82559F;fill-rule:nonzero}
    .fil54 {fill:#7A3B8D;fill-rule:nonzero}
    .fil40 {fill:#5DB978;fill-rule:nonzero}
    .fil45 {fill:#5CB677;fill-rule:nonzero}
    .fil35 {fill:#6970B0;fill-rule:nonzero}
    .fil44 {fill:#2DA48D;fill-rule:nonzero}
    .fil5 {fill:#644595;fill-rule:nonzero}
    .fil46 {fill:#2F938B;fill-rule:nonzero}
    .fil47 {fill:#318889;fill-rule:nonzero}
    .fil39 {fill:#348095;fill-rule:nonzero}
    .fil41 {fill:#3286AC;fill-rule:nonzero}
    .fil43 {fill:#367E95;fill-rule:nonzero}
    .fil42 {fill:#2C8889;fill-rule:nonzero}
    .fil37 {fill:#3A78B8;fill-rule:nonzero}
    .fil29 {fill:#307898;fill-rule:nonzero}
    .fil34 {fill:#4960A7;fill-rule:nonzero}
    .fil27 {fill:#554191;fill-rule:nonzero}
    .fil4 {fill:#47539C;fill-rule:nonzero}
    .fil33 {fill:#23638D;fill-rule:nonzero}
    .fil30 {fill:#255F82;fill-rule:nonzero}
    .fil3 {fill:#424690;fill-rule:nonzero}
    .fil32 {fill:#41407C;fill-rule:nonzero}
    .fil31 {fill:#2A4967;fill-rule:nonzero}
    .fil56 {fill:#FFFBD4;fill-rule:nonzero}
   ]]>
  </style>
     <clipPath id="id0">
      <path d="M973.24 9.96l1001.37 0c529.81,0 963.27,433.46 963.27,963.27l0 0c0,529.81 -433.46,963.27 -963.27,963.27l-1001.37 0c-529.81,0 -963.27,-433.46 -963.27,-963.27l0 0c0,-529.81 433.46,-963.27 963.27,-963.27z"/>
     </clipPath>
     <clipPath id="id1">
      <path d="M344.38 1267.67l2259.08 0c183.93,0 334.41,150.48 334.41,334.41l0 0c0,183.94 -150.48,334.41 -334.41,334.41l-2259.08 0c-183.93,0 -334.41,-150.47 -334.41,-334.41l0 0c0,-183.93 150.48,-334.41 334.41,-334.41z"/>
     </clipPath>
 </defs>
 <g id="Capa_x0020_1">
  <metadata id="CorelCorpID_0Corel-Layer"/>
  <g id="_2120711618032">
   <g>
    <g>
    </g>
    <g style="clip-path:url(#id0)">
     <g>
      <g>
       <path class="fil0" d="M2681.61 -841.33l69.16 -189.51c33.62,121.38 64.07,247.7 91.14,378.34l-160.3 -188.83z"/>
       <path class="fil1" d="M2621.47 -1432.45l60.14 591.12 69.17 -189.5c-39.01,-140.81 -82.23,-274.99 -129.3,-401.62z"/>
       <path class="fil2" d="M2050.41 -2400.64l-199.68 280.39 -89.2 -493.82c100.23,50.22 196.86,122.07 288.87,213.43z"/>
       <path class="fil1" d="M1850.74 -2120.25l515.41 302.11 11.97 -142.41c-100.31,-175.22 -210.25,-323.44 -327.7,-440.09l-199.68 280.39z"/>
       <path class="fil0" d="M2681.61 -841.33l-315.46 -976.81 11.97 -142.41c89.23,155.86 170.83,333.01 243.35,528.09l60.14 591.13z"/>
       <path class="fil3" d="M331.19 -1696.67l199.91 694.21 -395.34 -174.15c57.74,-187.35 123.23,-361.51 195.43,-520.06z"/>
       <path class="fil4" d="M713.91 -2315.6l-182.8 1313.14 -199.92 -694.21c112.61,-247.26 241.49,-456.63 382.71,-618.93z"/>
       <path class="fil5" d="M1099.83 -1911.29l-568.73 908.83 182.81 -1313.14c70.05,-80.51 143.16,-149.31 218.77,-205.59l167.15 609.89z"/>
       <path class="fil6" d="M1584.15 -2120.25l-484.32 208.95 142.65 -763.29c49.72,-12.84 100.14,-20.4 151.15,-22.51l190.52 576.85z"/>
       <path class="fil7" d="M1584.15 -2120.25l266.59 0 -89.2 -493.82c-35.52,-17.78 -71.49,-32.88 -107.87,-45.13l-69.53 538.95z"/>
       <path class="fil8" d="M2681.61 -841.33l-157.73 1107.71 396.01 -463.24c-21.42,-156.84 -47.59,-308.92 -77.98,-455.65l-160.3 -188.83z"/>
       <path class="fil9" d="M2988.94 968.4l-465.06 -702.02 396.02 -463.23c45.43,332.55 69.91,685.97 69.91,1052.35l0 0c0,37.8 -0.35,75.39 -0.87,112.9z"/>
       <path class="fil10" d="M2523.88 266.38l311.03 1691.79 129.67 -464.82c13.67,-171.03 21.89,-346.34 24.36,-524.93l-465.06 -702.03z"/>
       <path class="fil11" d="M2884.36 2138.75l-49.46 -180.57 129.67 -464.84c-17.87,223.08 -44.91,438.91 -80.22,645.42z"/>
       <polygon class="fil12" points="2366.14,-1818.14 2025.71,-287.47 2681.61,-841.33 "/>
       <polygon class="fil13" points="2523.88,266.38 2025.71,-287.47 2681.62,-841.33 "/>
       <polygon class="fil14" points="2079.56,1686.29 2025.71,-287.47 2523.88,266.39 "/>
       <polygon class="fil15" points="2834.91,1958.18 2079.56,1686.29 2523.88,266.39 "/>
       <path class="fil15" d="M2774.68 2652.66l60.24 -694.48 49.45 180.57c-30.57,178.75 -67.33,350.49 -109.68,513.9z"/>
       <polygon class="fil16" points="2079.56,1686.29 2366.14,3015.56 2834.91,1958.17 "/>
       <path class="fil17" d="M2526.68 3376.81l-160.53 -361.26 468.76 -1057.37 -60.24 694.48c-68.78,265.32 -152.26,508.67 -248,724.15z"/>
       <path class="fil18" d="M2366.14 3015.55l-291.34 1071.4c168.91,-175.57 321.67,-417.11 451.88,-710.13l-160.54 -361.27z"/>
       <polygon class="fil19" points="1850.74,-2120.25 2025.71,-287.47 2366.14,-1818.14 "/>
       <polygon class="fil20" points="1584.15,-2120.25 2025.71,-287.47 1850.74,-2120.25 "/>
       <polygon class="fil21" points="1099.83,-1911.29 1175.02,-841.34 1584.15,-2120.25 "/>
       <polygon class="fil22" points="2025.71,-287.47 1175.02,-841.33 1584.15,-2120.25 "/>
       <polygon class="fil23" points="1175.03,-841.33 1598.81,266.38 2025.71,-287.48 "/>
       <polygon class="fil24" points="2079.56,1686.29 1598.81,266.39 2025.71,-287.47 "/>
       <polygon class="fil25" points="1712.31,2723.51 2079.56,1686.28 2366.15,3015.55 "/>
       <path class="fil26" d="M1901.59 4239.29l-189.27 -1515.79 653.83 292.04 -291.35 1071.41c-56.03,58.25 -113.85,109.15 -173.2,152.33z"/>
       <polygon class="fil27" points="531.1,-1002.46 1175.03,-841.34 1099.83,-1911.29 "/>
       <polygon class="fil28" points="1598.81,266.38 1350.85,1550.33 2079.56,1686.28 "/>
       <path class="fil29" d="M188.97 2723.51l-67.66 116.76c-31.5,-105.84 -60.47,-215.85 -86.89,-329.36l154.56 212.6z"/>
       <path class="fil30" d="M-145.66 894.76l367.96 -99.69 -325.09 890.27c-26.82,-254.03 -41.57,-518.62 -42.87,-790.58z"/>
       <path class="fil31" d="M-105.9 54.7l328.2 740.38 -367.96 99.69c-0.06,-13.09 -0.22,-26.15 -0.22,-39.27l0 0c0,-275.38 13.83,-543.43 39.98,-800.8z"/>
       <path class="fil32" d="M135.76 -1176.61l395.34 174.15 -559.63 507.35c43.87,-241.68 99.12,-470.01 164.29,-681.5z"/>
       <path class="fil33" d="M222.3 795.07l308.8 -1797.53 -559.64 507.35c-32.05,176.62 -58.07,360.27 -77.36,549.8l328.2 740.38z"/>
       <polygon class="fil34" points="1175.03,-841.33 951.73,-5.51 531.1,-1002.46 "/>
       <polygon class="fil35" points="1598.81,266.38 951.73,-5.5 1175.03,-841.33 "/>
       <polygon class="fil36" points="1350.85,1550.33 951.73,-5.51 1598.81,266.39 "/>
       <polygon class="fil37" points="222.3,795.07 951.73,-5.51 531.1,-1002.46 "/>
       <polygon class="fil38" points="1350.85,1550.33 850.6,1966.18 951.73,-5.51 "/>
       <polygon class="fil39" points="222.3,795.07 662.18,1191.98 951.73,-5.51 "/>
       <polygon class="fil40" points="850.6,1966.18 662.18,1191.98 951.73,-5.51 "/>
       <path class="fil41" d="M-73.46 1925.62l735.64 -733.66 -439.88 -396.88 -325.09 890.27c8.58,81.19 18.34,161.35 29.33,240.27z"/>
       <polygon class="fil42" points="850.6,1966.18 188.97,2723.51 662.18,1191.98 "/>
       <path class="fil43" d="M34.43 2510.9l154.55 212.61 473.2 -1531.55 -735.64 733.66c28.36,203.63 64.6,399.31 107.89,585.28z"/>
       <path class="fil44" d="M188.97 2723.51l6.21 344.58c-25.89,-73.65 -50.58,-149.57 -73.87,-227.82l67.66 -116.76z"/>
       <polygon class="fil45" points="791.55,3172.92 188.97,2723.51 850.6,1966.18 "/>
       <path class="fil46" d="M539.33 3792.55l252.23 -619.63 -602.59 -449.42 6.22 344.58c97.98,278.65 214.01,523.2 344.14,724.47z"/>
       <path class="fil47" d="M966.94 4256.69l-175.38 -1083.77 -252.22 619.62c129.87,200.84 273.74,358.55 427.61,464.15z"/>
       <path class="fil48" d="M1712.31 2723.51l-606.26 1613.22c102.04,47.31 207.69,72.17 315.91,72.17l0 0c167.3,0 328.43,-59.62 479.62,-169.6l-189.27 -1515.79z"/>
       <path class="fil49" d="M791.55 3172.92l920.76 -449.42 -606.26 1613.22c-47.19,-21.88 -93.57,-48.78 -139.12,-80.04l-175.38 -1083.77z"/>
       <polygon class="fil50" points="850.6,1966.18 1712.3,2723.51 791.56,3172.92 "/>
       <polygon class="fil51" points="1350.85,1550.33 1712.31,2723.51 850.6,1966.18 "/>
       <polygon class="fil52" points="2079.56,1686.29 1712.3,2723.52 1350.85,1550.33 "/>
       <path class="fil53" d="M1653.68 -2659.2l-69.54 538.95 -190.52 -576.85c9.44,-0.38 18.86,-0.81 28.34,-0.81l0 0c78.73,0 156.09,13.31 231.71,38.7z"/>
       <path class="fil54" d="M1242.47 -2674.59l-142.64 763.29 -167.15 -609.89c99.26,-73.83 202.9,-125.79 309.79,-153.4z"/>
      </g>
     </g>
    </g>
    <path class="fil55 str0" d="M973.24 9.96l1001.37 0c529.81,0 963.27,433.46 963.27,963.27l0 0c0,529.81 -433.46,963.27 -963.27,963.27l-1001.37 0c-529.81,0 -963.27,-433.46 -963.27,-963.27l0 0c0,-529.81 433.46,-963.27 963.27,-963.27z"/>
    <rect class="fil55 str0" x="128.04" y="196.75" width="2696.49" height="1552.98" rx="391.43" ry="776.49"/>
   </g>
   <g id="_2120711625664">
    <g>
    </g>
    <g style="clip-path:url(#id1)">
     <g id="_2120711624368">
      <g>
       <path class="fil0" d="M2681.61 972.13l69.16 -65.79c33.62,42.14 64.07,85.99 91.14,131.35l-160.3 -65.56z"/>
       <path class="fil1" d="M2621.47 766.92l60.14 205.21 69.17 -65.79c-39.01,-48.88 -82.23,-95.46 -129.3,-139.42z"/>
       <path class="fil2" d="M2050.41 430.79l-199.68 97.35 -89.2 -171.45c100.23,17.44 196.86,42.38 288.87,74.1z"/>
       <path class="fil1" d="M1850.74 528.14l515.41 104.88 11.97 -49.45c-100.31,-60.83 -210.25,-112.28 -327.7,-152.78l-199.68 97.35z"/>
       <path class="fil0" d="M2681.61 972.13l-315.46 -339.11 11.97 -49.45c89.23,54.11 170.83,115.61 243.35,183.33l60.14 205.22z"/>
       <path class="fil3" d="M331.19 675.19l199.91 241 -395.34 -60.46c57.74,-65.04 123.23,-125.51 195.43,-180.54z"/>
       <path class="fil4" d="M713.91 460.32l-182.8 455.88 -199.92 -241c112.61,-85.84 241.49,-158.53 382.71,-214.87z"/>
       <path class="fil5" d="M1099.83 600.68l-568.73 315.52 182.81 -455.88c70.05,-27.95 143.16,-51.84 218.77,-71.37l167.15 211.72z"/>
       <path class="fil6" d="M1584.15 528.14l-484.32 72.54 142.65 -265c49.72,-4.45 100.14,-7.08 151.15,-7.81l190.52 200.27z"/>
       <path class="fil7" d="M1584.15 528.14l266.59 0 -89.2 -171.44c-35.52,-6.18 -71.49,-11.42 -107.87,-15.67l-69.53 187.11z"/>
       <path class="fil8" d="M2681.61 972.13l-157.73 384.57 396.01 -160.82c-21.42,-54.45 -47.59,-107.24 -77.98,-158.18l-160.3 -65.56z"/>
       <path class="fil9" d="M2988.94 1600.41l-465.06 -243.71 396.02 -160.82c45.43,115.45 69.91,238.14 69.91,365.34l0 0c0,13.11 -0.35,26.17 -0.87,39.19z"/>
       <path class="fil10" d="M2523.88 1356.7l311.03 587.32 129.67 -161.37c13.67,-59.37 21.89,-120.24 24.36,-182.24l-465.06 -243.71z"/>
       <path class="fil11" d="M2884.36 2006.71l-49.46 -62.69 129.67 -161.37c-17.87,77.45 -44.91,152.37 -80.22,224.06z"/>
       <polygon class="fil12" points="2366.14,633.02 2025.71,1164.41 2681.61,972.13 "/>
       <polygon class="fil13" points="2523.88,1356.7 2025.71,1164.41 2681.62,972.13 "/>
       <polygon class="fil14" points="2079.56,1849.63 2025.71,1164.41 2523.88,1356.7 "/>
       <polygon class="fil15" points="2834.91,1944.02 2079.56,1849.63 2523.88,1356.7 "/>
       <path class="fil15" d="M2774.68 2185.12l60.24 -241.1 49.45 62.69c-30.57,62.06 -67.33,121.68 -109.68,178.41z"/>
       <polygon class="fil16" points="2079.56,1849.63 2366.14,2311.11 2834.91,1944.02 "/>
       <path class="fil17" d="M2526.68 2436.53l-160.53 -125.42 468.76 -367.09 -60.24 241.1c-68.78,92.11 -152.26,176.59 -248,251.41z"/>
       <path class="fil18" d="M2366.14 2311.11l-291.34 371.95c168.91,-60.96 321.67,-144.81 451.88,-246.53l-160.54 -125.42z"/>
       <polygon class="fil19" points="1850.74,528.14 2025.71,1164.41 2366.14,633.02 "/>
       <polygon class="fil20" points="1584.15,528.14 2025.71,1164.41 1850.74,528.14 "/>
       <polygon class="fil21" points="1099.83,600.68 1175.02,972.13 1584.15,528.14 "/>
       <polygon class="fil22" points="2025.71,1164.41 1175.02,972.13 1584.15,528.14 "/>
       <polygon class="fil23" points="1175.03,972.13 1598.81,1356.7 2025.71,1164.41 "/>
       <polygon class="fil24" points="2079.56,1849.63 1598.81,1356.7 2025.71,1164.41 "/>
       <polygon class="fil25" points="1712.31,2209.71 2079.56,1849.63 2366.15,2311.11 "/>
       <path class="fil26" d="M1901.59 2735.94l-189.27 -526.23 653.83 101.39 -291.35 371.95c-56.03,20.22 -113.85,37.9 -173.2,52.88z"/>
       <polygon class="fil27" points="531.1,916.2 1175.03,972.13 1099.83,600.68 "/>
       <polygon class="fil28" points="1598.81,1356.7 1350.85,1802.44 2079.56,1849.63 "/>
       <path class="fil29" d="M188.97 2209.71l-67.66 40.54c-31.5,-36.74 -60.47,-74.94 -86.89,-114.34l154.56 73.8z"/>
       <path class="fil30" d="M-145.66 1574.85l367.96 -34.61 -325.09 309.06c-26.82,-88.19 -41.57,-180.05 -42.87,-274.45z"/>
       <path class="fil31" d="M-105.9 1283.2l328.2 257.04 -367.96 34.61c-0.06,-4.54 -0.22,-9.08 -0.22,-13.63l0 0c0,-95.6 13.83,-188.67 39.98,-278.01z"/>
       <path class="fil32" d="M135.76 855.74l395.34 60.46 -559.63 176.13c43.87,-83.89 99.12,-163.17 164.29,-236.59z"/>
       <path class="fil33" d="M222.3 1540.24l308.8 -624.04 -559.64 176.13c-32.05,61.31 -58.07,125.08 -77.36,190.88l328.2 257.04z"/>
       <polygon class="fil34" points="1175.03,972.13 951.73,1262.3 531.1,916.2 "/>
       <polygon class="fil35" points="1598.81,1356.7 951.73,1262.3 1175.03,972.13 "/>
       <polygon class="fil36" points="1350.85,1802.44 951.73,1262.3 1598.81,1356.7 "/>
       <polygon class="fil37" points="222.3,1540.24 951.73,1262.3 531.1,916.2 "/>
       <polygon class="fil38" points="1350.85,1802.44 850.6,1946.8 951.73,1262.3 "/>
       <polygon class="fil39" points="222.3,1540.24 662.18,1678.02 951.73,1262.3 "/>
       <polygon class="fil40" points="850.6,1946.8 662.18,1678.02 951.73,1262.3 "/>
       <path class="fil41" d="M-73.46 1932.72l735.64 -254.69 -439.88 -137.79 -325.09 309.06c8.58,28.19 18.34,56.02 29.33,83.42z"/>
       <polygon class="fil42" points="850.6,1946.8 188.97,2209.71 662.18,1678.02 "/>
       <path class="fil43" d="M34.43 2135.91l154.55 73.81 473.2 -531.7 -735.64 254.69c28.36,70.7 64.6,138.63 107.89,203.19z"/>
       <path class="fil44" d="M188.97 2209.71l6.21 119.63c-25.89,-25.57 -50.58,-51.93 -73.87,-79.09l67.66 -40.54z"/>
       <polygon class="fil45" points="791.55,2365.73 188.97,2209.71 850.6,1946.8 "/>
       <path class="fil46" d="M539.33 2580.85l252.23 -215.1 -602.59 -156.03 6.22 119.63c97.98,96.74 214.01,181.64 344.14,251.5z"/>
       <path class="fil47" d="M966.94 2741.98l-175.38 -376.24 -252.22 215.1c129.87,69.72 273.74,124.47 427.61,161.13z"/>
       <path class="fil48" d="M1712.31 2209.71l-606.26 560.06c102.04,16.42 207.69,25.05 315.91,25.05l0 0c167.3,0 328.43,-20.7 479.62,-58.88l-189.27 -526.23z"/>
       <path class="fil49" d="M791.55 2365.73l920.76 -156.02 -606.26 560.06c-47.19,-7.59 -93.57,-16.94 -139.12,-27.79l-175.38 -376.25z"/>
       <polygon class="fil50" points="850.6,1946.8 1712.3,2209.71 791.56,2365.73 "/>
       <polygon class="fil51" points="1350.85,1802.44 1712.31,2209.71 850.6,1946.8 "/>
       <polygon class="fil52" points="2079.56,1849.63 1712.3,2209.72 1350.85,1802.44 "/>
       <path class="fil53" d="M1653.68 341.03l-69.54 187.11 -190.52 -200.27c9.44,-0.13 18.86,-0.28 28.34,-0.28l0 0c78.73,0 156.09,4.62 231.71,13.43z"/>
       <path class="fil54" d="M1242.47 335.69l-142.64 265 -167.15 -211.73c99.26,-25.64 202.9,-43.68 309.79,-53.26z"/>
      </g>
     </g>
    </g>
    <path class="fil55 str0" d="M344.38 1267.67l2259.08 0c183.93,0 334.41,150.48 334.41,334.41l0 0c0,183.94 -150.48,334.41 -334.41,334.41l-2259.08 0c-183.93,0 -334.41,-150.47 -334.41,-334.41l0 0c0,-183.93 150.48,-334.41 334.41,-334.41z"/>
    <rect class="fil55 str0" x="128.04" y="1332.52" width="2696.49" height="539.14" rx="391.43" ry="269.57"/>
   </g>
   <path class="fil56" d="M775.11 1666.39l23.63 0 9.36 -26.5 46.78 0 9.29 26.5 23.35 0 -47.96 -121.91 -16.2 0 -48.23 121.91zm40.32 -45.23l16.08 -44.49 16.02 44.49 -32.11 0z"/>
   <polygon id="1" class="fil56" points="919.56,1666.39 942.08,1666.39 942.08,1618.86 987.08,1544.47 960.73,1544.47 930.53,1597.81 900.58,1544.47 874.42,1544.47 919.56,1618.86 "/>
   <path id="2" class="fil56" d="M1045.75 1668.12c32.29,0 46.07,-19.4 46.07,-50.11l0 -73.53 -21.64 0 0 71.88c0,19.67 -4.99,30.63 -24.42,30.63 -19.34,0 -24.46,-10.96 -24.46,-30.63l0 -71.88 -21.58 0 0 74.39c0,29.85 13.73,49.26 46.05,49.26z"/>
   <path id="3" class="fil56" d="M1120.06 1666.36l34.76 0c40.5,0 62.81,-22.08 62.81,-60.01 0,-39.58 -21.64,-61.84 -62.63,-61.84l-34.94 0 0 121.85zm21.64 -20.08l0 -81.68 12.94 0c29.68,0 41.33,11.89 41.33,40.81 0,30.42 -16.7,40.88 -43.29,40.88l-10.99 0z"/>
   <path id="4" class="fil56" d="M1222.16 1666.39l23.63 0 9.36 -26.5 46.78 0 9.29 26.5 23.35 0 -47.96 -121.91 -16.2 0 -48.23 121.91zm40.32 -45.23l16.08 -44.49 16.02 44.49 -32.11 0z"/>
   <path id="5" class="fil56" d="M1398.23 1666.36l34.76 0c40.49,0 62.8,-22.08 62.8,-60.01 0,-39.58 -21.63,-61.84 -62.63,-61.84l-34.93 0 0 121.85zm21.63 -20.08l0 -81.68 12.94 0c29.68,0 41.34,11.89 41.34,40.81 0,30.42 -16.71,40.88 -43.3,40.88l-10.99 0z"/>
   <polygon id="6" class="fil56" points="1518.3,1666.39 1598.38,1666.39 1598.38,1645.72 1539.93,1645.72 1539.93,1615.48 1594.39,1615.48 1594.39,1595.39 1539.93,1595.39 1539.93,1564.59 1598.38,1564.59 1598.38,1544.5 1518.3,1544.5 "/>
   <path id="7" class="fil56" d="M1657.01 1666.39l23.63 0 9.36 -26.5 46.78 0 9.28 26.5 23.36 0 -47.96 -121.91 -16.2 0 -48.23 121.91zm40.32 -45.23l16.08 -44.49 16.02 44.49 -32.11 0z"/>
   <polygon id="8" class="fil56" points="1785.96,1666.39 1859.05,1666.39 1859.05,1645.72 1807.59,1645.72 1807.59,1544.47 1785.96,1544.47 "/>
   <polygon id="9" class="fil56" points="1876.54,1666.39 1949.63,1666.39 1949.63,1645.72 1898.17,1645.72 1898.17,1544.47 1876.54,1544.47 "/>
   <polygon id="10" class="fil56" points="1986.89,1666.39 2003.09,1666.39 2051.04,1544.47 2027.35,1544.47 1995.06,1630.84 1962.59,1544.47 1938.66,1544.47 "/>
   <path id="11" class="fil56" d="M2040.93 1666.39l23.63 0 9.36 -26.5 46.78 0 9.29 26.5 23.35 0 -47.96 -121.91 -16.2 0 -48.23 121.91zm40.32 -45.23l16.08 -44.49 16.02 44.49 -32.11 0z"/>
   <polygon id="12" class="fil56" points="2169.87,1666.39 2191.51,1666.39 2191.51,1544.47 2169.87,1544.47 "/>
   <g>
    <path class="fil57" d="M1159.03 1228.12l126.42 0c19.52,0 34.26,-42.14 -12.3,-42.14l-86.03 0c0.22,-9.83 37.19,-152.49 42.28,-177.18 7.7,-37.32 12.92,-68.78 46.89,-90.05 16.96,-10.63 41.55,-20.71 63.58,-20.71 4.55,17.06 44.82,40.39 77.25,40.39 27.31,0 33.19,-0.92 57.38,-12.84 13,-6.42 22.65,-15.96 30.4,-27.54 28.76,0 62.12,17.46 76.85,32.01 24.46,24.16 23.61,43.36 32.37,78.25l43.54 177.67c-14.88,0 -91.13,-1.44 -101.98,1.61 -24.19,6.81 -18.31,40.53 3.66,40.53l124.66 0c10.78,0 21.07,-9.98 21.07,-21.07 0,-8.29 -52.06,-218.35 -54.06,-226.86 -8.88,-37.7 -18.55,-66.48 -50.23,-90.22 -24.34,-18.26 -62.85,-35.81 -104.63,-35.81 -22.5,0 -19.86,14.24 -29.36,25.07 -21.95,25.04 -77.39,22.68 -93.52,-5.79 -3.44,-6.09 -8.86,-19.28 -22.85,-19.28 -57.96,0 -119.5,29.7 -144.59,81.89 -9.33,19.4 -52.68,212.23 -64.74,258.4 -1.73,6.65 -2.5,8.31 -1.74,14.68 0.86,7.13 1.81,9.69 6.03,13.35 2.97,2.57 8.59,5.64 13.67,5.64z"/>
    <path class="fil57" d="M1215.21 583.77l0 47.41c0,26.67 47.69,51.94 64.62,31.25 12.65,-15.45 -10.85,-71.26 28.76,-129.25 28.84,-42.22 66.82,-58.26 120.81,-58.26 -1.69,6.35 -12.34,18.51 -17.08,23.3 -45.46,45.75 -72.46,23.48 -72.46,57.46 0,10.14 8.57,17.56 21.07,17.56 18.12,0 56.49,-23.38 67.14,-32.93l13.12 -11.45c7.53,-6.82 27.14,-34.04 32.1,-43.4 31.6,7.36 63.88,46.25 76.54,79.72 18.22,48.13 1.45,112.9 -33.64,142.26 -3.88,3.25 -4.77,4.35 -8.2,7.6 -4.99,4.72 -12.74,9.36 -18.76,12.83 -34.58,19.93 -18.06,1.62 -44.03,1.62l-47.4 0c-46.29,0 -46.29,75.49 0,75.49 48.61,0 62.02,6.5 79.53,-22.29 4.99,-8.21 5.8,-4.12 21.4,-11.96 38.8,-19.5 71.41,-51.71 86.63,-92.45 6.81,-18.24 5.93,-5.51 25.19,-18.7 23.32,-15.99 17.25,-38.38 17.25,-75.81 0,-12.43 -6.51,-20.66 -13.57,-26.81 -5.54,-4.83 -18.97,-11.6 -28.57,-11.82 -1.71,-20.58 -36.52,-61.25 -55.92,-75.74 -54.53,-40.73 -125.76,-49.58 -187.54,-18.48 -22.57,11.36 -44.13,28.72 -59.78,47.32 -10.35,12.31 -17.16,26.54 -24.36,40.6 -6.67,13.02 -10.2,3.76 -27.36,16.53 -7.69,5.73 -15.49,15.53 -15.49,28.4z"/>
    <path class="fil57" d="M1548.8 411.71c0,36.72 33.74,29.27 39.69,13.35 1.96,-5.22 3.57,-53.73 44.58,-53.73l245.81 0c27.58,0 42.13,26.56 42.13,56.18l0 179.08c0,53.8 -33.9,54.43 -70.22,54.43 -41.55,0 -83.11,0 -124.66,0 -15.79,0 -47.69,-3.41 -59.27,2.17 -7.48,3.62 -22.89,26.62 -28.77,34.44 -10.03,13.38 -50.66,62.22 -50.66,75.75 0,15.23 21.62,32.54 42.17,5.3 4.79,-6.35 9.31,-12.49 14.27,-19.09l35.81 -48.47c8.8,-12.35 13.11,-7.97 42.94,-7.97l135.19 0c27.58,0.01 39.53,-1.31 57.97,-10.5 33.83,-16.89 47.37,-51.25 47.37,-89.56l0 -173.82c0,-38.26 -12.74,-70.38 -46.18,-89.02 -9.97,-5.56 -19.86,-11.06 -34.59,-11.06l-254.57 0c-7.97,0 -25.14,6.15 -31.06,9.33 -9.72,5.22 -15.55,10.04 -22.95,17.43 -13.67,13.62 -25,35.54 -25,55.76z"/>
    <path class="fil57" d="M1339.87 620.64c0,27.24 22.14,22.83 43.89,22.83 4.67,0 9.95,-2.63 12.65,-4.91 10.23,-8.68 8.5,-25.48 -1.34,-32.72 -8.05,-5.93 -55.2,-11.36 -55.2,14.81z"/>
    <path class="fil57" d="M1439.94 622.4c0,28.6 49.37,23.63 57.66,15.52 13.74,-13.45 7.7,-36.59 -20.79,-36.59 -9.37,0 -21.25,-0.48 -28.51,4.84 -3.69,2.69 -8.36,10.95 -8.36,16.23z"/>
    <path class="fil57" d="M1805.14 515.3c0,29.23 43.9,26.43 43.9,1.75 0,-30.86 -43.9,-27.07 -43.9,-1.75z"/>
    <path class="fil57" d="M1662.93 515.3c0,14.37 10.39,21.07 24.57,21.07 16.49,0 26.07,-23.5 11.62,-36.19 -14.28,-12.55 -36.19,-1.32 -36.19,15.13z"/>
    <path class="fil57" d="M1734.9 513.54c0,34.55 42.14,23.91 42.14,7.03 0,-13.62 -4.36,-25.58 -21.07,-25.58 -9.46,0 -21.08,7.56 -21.08,18.55z"/>
   </g>
  </g>
 </g>
</svg>
