<?xml version="1.0" encoding="UTF-8"?>
<!DOCTYPE svg PUBLIC "-//W3C//DTD SVG 1.1//EN" "http://www.w3.org/Graphics/SVG/1.1/DTD/svg11.dtd">
<!-- Creator: CorelDRAW 2020 (64-Bit) -->
<svg xmlns="http://www.w3.org/2000/svg" xml:space="preserve" width="32.4273mm" height="28.6965mm" version="1.1" style="shape-rendering:geometricPrecision; text-rendering:geometricPrecision; image-rendering:optimizeQuality; fill-rule:evenodd; clip-rule:evenodd"
viewBox="0 0 3232.35 2860.47"
 xmlns:xlink="http://www.w3.org/1999/xlink"
 xmlns:xodm="http://www.corel.com/coreldraw/odm/2003">
 <defs>
  <style type="text/css">
   <![CDATA[
    .str0 {stroke:#FEFEFE;stroke-width:19.94;stroke-miterlimit:22.9256}
    .fil56 {fill:none}
    .fil58 {fill:#FEFEFE;fill-rule:nonzero}
    .fil27 {fill:#FFD23A;fill-rule:nonzero}
    .fil49 {fill:#FCB53D;fill-rule:nonzero}
    .fil18 {fill:#FAAA3C;fill-rule:nonzero}
    .fil16 {fill:#F9A33E;fill-rule:nonzero}
    .fil12 {fill:#F1624D;fill-rule:nonzero}
    .fil10 {fill:#F15F56;fill-rule:nonzero}
    .fil1 {fill:#EE4477;fill-rule:nonzero}
    .fil15 {fill:#F18768;fill-rule:nonzero}
    .fil11 {fill:#F07D44;fill-rule:nonzero}
    .fil9 {fill:#EB4A6A;fill-rule:nonzero}
    .fil2 {fill:#EA4389;fill-rule:nonzero}
    .fil17 {fill:#F8C539;fill-rule:nonzero}
    .fil29 {fill:#F0A047;fill-rule:nonzero}
    .fil13 {fill:#E6649C;fill-rule:nonzero}
    .fil53 {fill:#F1BE39;fill-rule:nonzero}
    .fil25 {fill:#DF6F85;fill-rule:nonzero}
    .fil14 {fill:#E05899;fill-rule:nonzero}
    .fil19 {fill:#E8BC3B;fill-rule:nonzero}
    .fil3 {fill:#D83064;fill-rule:nonzero}
    .fil20 {fill:#D95499;fill-rule:nonzero}
    .fil26 {fill:#E2CA3B;fill-rule:nonzero}
    .fil8 {fill:#CB4E96;fill-rule:nonzero}
    .fil21 {fill:#C84292;fill-rule:nonzero}
    .fil52 {fill:#C1BE3F;fill-rule:nonzero}
    .fil37 {fill:#BFBF41;fill-rule:nonzero}
    .fil50 {fill:#BEC449;fill-rule:nonzero}
    .fil54 {fill:#AC4494;fill-rule:nonzero}
    .fil7 {fill:#9F4C99;fill-rule:nonzero}
    .fil22 {fill:#994796;fill-rule:nonzero}
    .fil23 {fill:#97529B;fill-rule:nonzero}
    .fil39 {fill:#88C070;fill-rule:nonzero}
    .fil51 {fill:#81C575;fill-rule:nonzero}
    .fil24 {fill:#82559F;fill-rule:nonzero}
    .fil55 {fill:#7A3B8D;fill-rule:nonzero}
    .fil41 {fill:#5DB978;fill-rule:nonzero}
    .fil46 {fill:#5CB677;fill-rule:nonzero}
    .fil36 {fill:#6970B0;fill-rule:nonzero}
    .fil45 {fill:#2DA48D;fill-rule:nonzero}
    .fil6 {fill:#644595;fill-rule:nonzero}
    .fil47 {fill:#2F938B;fill-rule:nonzero}
    .fil48 {fill:#318889;fill-rule:nonzero}
    .fil40 {fill:#348095;fill-rule:nonzero}
    .fil42 {fill:#3286AC;fill-rule:nonzero}
    .fil44 {fill:#367E95;fill-rule:nonzero}
    .fil43 {fill:#2C8889;fill-rule:nonzero}
    .fil38 {fill:#3A78B8;fill-rule:nonzero}
    .fil30 {fill:#307898;fill-rule:nonzero}
    .fil35 {fill:#4960A7;fill-rule:nonzero}
    .fil28 {fill:#554191;fill-rule:nonzero}
    .fil5 {fill:#47539C;fill-rule:nonzero}
    .fil34 {fill:#23638D;fill-rule:nonzero}
    .fil31 {fill:#255F82;fill-rule:nonzero}
    .fil4 {fill:#424690;fill-rule:nonzero}
    .fil33 {fill:#41407C;fill-rule:nonzero}
    .fil62 {fill:#00AFEF;fill-rule:nonzero}
    .fil32 {fill:#2A4967;fill-rule:nonzero}
    .fil61 {fill:#3E4095;fill-rule:nonzero}
    .fil59 {fill:#5A698B;fill-rule:nonzero}
    .fil60 {fill:#7F89A5;fill-rule:nonzero}
    .fil57 {fill:#FFFBD4;fill-rule:nonzero}
    .fil0 {fill:url(#id1)}
   ]]>
  </style>
     <clipPath id="id0">
      <path d="M376.87 2116.68l2478.61 0c201.8,0 366.9,165.11 366.9,366.91l0 0.01c0,201.79 -165.1,366.89 -366.9,366.89l-2478.61 0c-201.8,0 -366.9,-165.1 -366.9,-366.89l0 -0.01c0,-201.8 165.1,-366.91 366.9,-366.91z"/>
     </clipPath>
  <linearGradient id="id1" gradientUnits="userSpaceOnUse" x1="1639.86" y1="2809.08" x2="1641.49" y2="-0.36">
   <stop offset="0" style="stop-opacity:1; stop-color:#5CC6D0"/>
   <stop offset="1" style="stop-opacity:1; stop-color:#FEFEFE"/>
  </linearGradient>
 </defs>
 <g id="Capa_x0020_1">
  <metadata id="CorelCorpID_0Corel-Layer"/>
  <g id="_2120779990736">
   <rect class="fil0" x="121.83" y="-0.01" width="3037.69" height="2808.72" rx="87.7" ry="530.47"/>
   <g>
    <g>
    </g>
    <g style="clip-path:url(#id0)">
     <g>
      <g>
       <path class="fil1" d="M2941.23 1792.43l75.88 -72.18c36.88,46.23 70.29,94.35 99.99,144.11l-175.87 -71.93z"/>
       <path class="fil2" d="M2875.24 1567.27l65.99 225.16 75.88 -72.18c-42.79,-53.64 -90.22,-104.74 -141.86,-152.98z"/>
       <path class="fil3" d="M2248.69 1198.49l-219.09 106.8 -97.86 -188.1c109.96,19.13 215.99,46.5 316.94,81.3z"/>
       <path class="fil2" d="M2029.61 1305.29l565.48 115.07 13.14 -54.24c-110.07,-66.75 -230.68,-123.2 -359.54,-167.63l-219.09 106.8z"/>
       <path class="fil1" d="M2941.23 1792.43l-346.12 -372.07 13.13 -54.24c97.91,59.37 187.43,126.84 267,201.14l65.99 225.16z"/>
       <path class="fil4" d="M362.42 1466.63l219.33 264.42 -433.76 -66.33c63.36,-71.36 135.21,-137.7 214.43,-198.09z"/>
       <path class="fil5" d="M782.32 1230.89l-200.57 500.17 -219.34 -264.43c123.55,-94.18 264.96,-173.93 419.9,-235.74z"/>
       <path class="fil6" d="M1205.74 1384.88l-624 346.18 200.58 -500.17c76.86,-30.67 157.07,-56.88 240.02,-78.31l183.4 232.3z"/>
       <path class="fil7" d="M1737.11 1305.29l-531.37 79.59 156.5 -290.74c54.55,-4.89 109.88,-7.78 165.85,-8.57l209.03 219.71z"/>
       <path class="fil8" d="M1737.11 1305.29l292.5 0 -97.87 -188.1c-38.97,-6.77 -78.44,-12.52 -118.35,-17.18l-76.29 205.28z"/>
       <path class="fil9" d="M2941.23 1792.43l-173.06 421.94 434.5 -176.45c-23.51,-59.74 -52.22,-117.66 -85.57,-173.55l-175.87 -71.93z"/>
       <path class="fil10" d="M3278.42 2481.75l-510.25 -267.39 434.5 -176.44c49.84,126.66 76.71,261.28 76.71,400.83l0 0c0,14.39 -0.39,28.72 -0.96,43z"/>
       <path class="fil11" d="M2768.16 2214.36l341.25 644.4 142.26 -177.05c15.01,-65.15 24.02,-131.93 26.73,-199.95l-510.25 -267.4z"/>
       <path class="fil12" d="M3163.67 2927.54l-54.26 -68.78 142.26 -177.06c-19.6,84.98 -49.27,167.18 -88.01,245.84z"/>
       <polygon class="fil13" points="2595.11,1420.36 2221.59,2003.4 2941.23,1792.44 "/>
       <polygon class="fil14" points="2768.16,2214.36 2221.59,2003.4 2941.23,1792.44 "/>
       <polygon class="fil15" points="2280.67,2755.2 2221.59,2003.4 2768.16,2214.36 "/>
       <polygon class="fil16" points="3109.42,2858.76 2280.67,2755.2 2768.16,2214.36 "/>
       <path class="fil16" d="M3043.33 3123.28l66.09 -264.52 54.26 68.78c-33.54,68.08 -73.87,133.5 -120.34,195.74z"/>
       <polygon class="fil17" points="2280.67,2755.2 2595.11,3261.52 3109.42,2858.76 "/>
       <path class="fil18" d="M2771.23 3399.12l-176.12 -137.61 514.31 -402.75 -66.09 264.52c-75.47,101.07 -167.05,193.76 -272.1,275.83z"/>
       <path class="fil19" d="M2595.11 3261.51l-319.66 408.1c185.32,-66.88 352.93,-158.88 495.79,-270.49l-176.12 -137.61z"/>
       <polygon class="fil20" points="2029.61,1305.29 2221.59,2003.4 2595.1,1420.36 "/>
       <polygon class="fil21" points="1737.11,1305.29 2221.59,2003.4 2029.61,1305.29 "/>
       <polygon class="fil22" points="1205.74,1384.88 1288.23,1792.43 1737.11,1305.29 "/>
       <polygon class="fil23" points="2221.59,2003.4 1288.23,1792.44 1737.11,1305.29 "/>
       <polygon class="fil24" points="1288.23,1792.43 1753.2,2214.36 2221.59,2003.4 "/>
       <polygon class="fil25" points="2280.67,2755.2 1753.2,2214.36 2221.59,2003.4 "/>
       <polygon class="fil26" points="1877.73,3150.28 2280.67,2755.2 2595.11,3261.51 "/>
       <path class="fil27" d="M2085.4 3727.63l-207.66 -577.36 717.37 111.23 -319.66 408.1c-61.48,22.19 -124.92,41.58 -190.04,58.02z"/>
       <polygon class="fil28" points="581.74,1731.06 1288.23,1792.43 1205.74,1384.88 "/>
       <polygon class="fil29" points="1753.21,2214.36 1481.15,2703.41 2280.67,2755.2 "/>
       <path class="fil30" d="M206.37 3150.28l-74.23 44.47c-34.57,-40.31 -66.35,-82.22 -95.33,-125.45l169.57 80.98z"/>
       <path class="fil31" d="M-160.78 2453.71l403.71 -37.98 -356.67 339.1c-29.43,-96.76 -45.61,-197.55 -47.05,-301.12z"/>
       <path class="fil32" d="M-117.15 2133.73l360.08 282 -403.71 37.98c-0.06,-4.99 -0.24,-9.96 -0.24,-14.96l0 0c0,-104.89 15.17,-207 43.87,-305.02z"/>
       <path class="fil33" d="M147.98 1664.73l433.76 66.33 -614.02 193.25c48.15,-92.05 108.76,-179.02 180.26,-259.58z"/>
       <path class="fil34" d="M242.93 2415.73l338.81 -684.67 -614.02 193.25c-35.16,67.26 -63.72,137.22 -84.88,209.41l360.08 282.01z"/>
       <polygon class="fil35" points="1288.23,1792.43 1043.24,2110.79 581.74,1731.06 "/>
       <polygon class="fil36" points="1753.21,2214.36 1043.24,2110.79 1288.23,1792.44 "/>
       <polygon class="fil37" points="1481.15,2703.41 1043.24,2110.79 1753.2,2214.36 "/>
       <polygon class="fil38" points="242.93,2415.73 1043.24,2110.79 581.74,1731.06 "/>
       <polygon class="fil39" points="1481.15,2703.41 932.29,2861.81 1043.24,2110.79 "/>
       <polygon class="fil40" points="242.93,2415.73 725.56,2566.92 1043.24,2110.79 "/>
       <polygon class="fil41" points="932.29,2861.81 725.56,2566.91 1043.24,2110.79 "/>
       <path class="fil42" d="M-81.57 2846.36l807.13 -279.45 -482.63 -151.17 -356.67 339.1c9.41,30.93 20.12,61.46 32.17,91.53z"/>
       <polygon class="fil43" points="932.29,2861.81 206.37,3150.28 725.56,2566.91 "/>
       <path class="fil44" d="M36.8 3069.3l169.57 80.98 519.19 -583.37 -807.13 279.45c31.12,77.56 70.88,152.09 118.37,222.93z"/>
       <path class="fil45" d="M206.37 3150.28l6.82 131.25c-28.41,-28.06 -55.49,-56.98 -81.05,-86.78l74.23 -44.47z"/>
       <polygon class="fil46" points="867.52,3321.46 206.37,3150.28 932.29,2861.81 "/>
       <path class="fil47" d="M590.78 3557.47l276.73 -236.01 -661.14 -171.18 6.81 131.25c107.5,106.13 234.82,199.28 377.6,275.94z"/>
       <path class="fil48" d="M1059.94 3734.26l-192.42 -412.8 -276.74 236.01c142.49,76.5 300.34,136.57 469.16,176.79z"/>
       <path class="fil49" d="M1877.73 3150.28l-665.16 614.48c111.96,18.02 227.88,27.48 346.61,27.48l0 0c183.56,0 360.35,-22.71 526.22,-64.6l-207.66 -577.36z"/>
       <path class="fil50" d="M867.52 3321.46l1010.22 -171.18 -665.16 614.48c-51.77,-8.33 -102.66,-18.58 -152.63,-30.49l-192.42 -412.8z"/>
       <polygon class="fil51" points="932.29,2861.81 1877.73,3150.28 867.52,3321.46 "/>
       <polygon class="fil52" points="1481.15,2703.41 1877.73,3150.28 932.29,2861.81 "/>
       <polygon class="fil53" points="2280.67,2755.2 1877.73,3150.28 1481.15,2703.41 "/>
       <path class="fil54" d="M1813.4 1100.01l-76.29 205.28 -209.03 -219.71c10.35,-0.15 20.69,-0.31 31.09,-0.31l0 0c86.38,0 171.26,5.07 254.22,14.74z"/>
       <path class="fil55" d="M1362.24 1094.15l-156.5 290.74 -183.4 -232.3c108.91,-28.13 222.62,-47.92 339.9,-58.43z"/>
      </g>
     </g>
    </g>
    <path class="fil56 str0" d="M376.87 2116.68l2478.61 0c201.8,0 366.9,165.11 366.9,366.91l0 0.01c0,201.79 -165.1,366.89 -366.9,366.89l-2478.61 0c-201.8,0 -366.9,-165.1 -366.9,-366.89l0 -0.01c0,-201.8 165.1,-366.91 366.9,-366.91z"/>
    <rect class="fil56 str0" x="139.52" y="2187.83" width="2958.52" height="591.53" rx="429.46" ry="295.76"/>
   </g>
   <path class="fil57" d="M781.44 2603.34c45.65,0 82.28,-23.52 100.47,-67l-38.23 -15.78c-12.31,31.28 -32.68,43.13 -62.24,43.13 -49.21,0 -70.18,-35.38 -70.18,-81.66 0,-43.08 20.97,-78.47 69.57,-78.47 29.9,0 53.6,11.85 62.25,42.46l38.5 -15.5c-18.53,-43.42 -54.91,-66.73 -100.47,-66.73 -75.57,0 -110.8,56.22 -110.8,119.92 0,63.86 35.57,119.63 111.14,119.63z"/>
   <polygon id="1" class="fil57" points="919.36,2600.03 960.63,2600.03 960.63,2367.5 919.36,2367.5 "/>
   <path id="2" class="fil57" d="M1102.38 2603.34c61.58,0 87.89,-37.01 87.89,-95.59l0 -140.25 -41.29 0 0 137.11c0,37.52 -9.54,58.41 -46.6,58.41 -36.89,0 -46.65,-20.89 -46.65,-58.41l0 -137.11 -41.17 0 0 141.88c0,56.95 26.18,93.96 87.82,93.96z"/>
   <path id="3" class="fil57" d="M1244.14 2599.97l66.3 0c77.23,0 119.8,-42.12 119.8,-114.46 0,-75.49 -41.29,-117.95 -119.46,-117.95l-66.64 0 0 232.41zm41.28 -38.3l0 -155.81 24.69 0c56.59,0 78.84,22.69 78.84,77.85 0,58.01 -31.85,77.96 -82.55,77.96l-20.97 0z"/>
   <path id="4" class="fil57" d="M1438.88 2600.03l45.05 0 17.87 -50.55 89.2 0 17.7 50.55 44.55 0 -91.48 -232.53 -30.91 0 -91.98 232.53zm76.89 -86.27l30.68 -84.87 30.57 84.87 -61.25 0z"/>
   <path id="5" class="fil57" d="M1684.82 2599.97l66.3 0c77.23,0 119.79,-42.12 119.79,-114.46 0,-75.49 -41.28,-117.95 -119.46,-117.95l-66.63 0 0 232.41zm41.28 -38.3l0 -155.81 24.69 0c56.59,0 78.84,22.69 78.84,77.85 0,58.01 -31.85,77.96 -82.55,77.96l-20.97 0z"/>
   <path id="6" class="fil57" d="M1879.57 2600.03l45.05 0 17.87 -50.55 89.2 0 17.7 50.55 44.55 0 -91.49 -232.53 -30.9 0 -91.98 232.53zm76.88 -86.27l30.68 -84.87 30.58 84.87 -61.26 0z"/>
   <polygon id="7" class="fil57" points="2125.51,2600.03 2165.12,2600.03 2165.12,2436.99 2261.38,2600.03 2302.6,2600.03 2302.6,2367.5 2263,2367.5 2263,2530.28 2166.4,2367.5 2125.51,2367.5 "/>
   <path id="8" class="fil57" d="M2456.39 2603.4c75.91,0 110.84,-56.33 110.84,-119.69 0,-63.42 -34.94,-119.59 -110.84,-119.59 -75.9,0 -110.85,56.17 -110.85,119.59 0,63.36 34.96,119.69 110.85,119.69zm0 -37.07c-49.21,0 -67.24,-38.7 -67.24,-82.61 0,-43.81 18.03,-82.52 67.24,-82.52 49.21,0 67.25,38.71 67.25,82.52 0,43.92 -18.04,82.61 -67.25,82.61z"/>
   <g id="_2120779992272">
    <path class="fil58" d="M1694.97 1929.07l-11.06 0c-19.29,-2.23 -38.84,-1.64 -58.06,-3.9 -47.86,-5.54 -93.84,-18.87 -138.57,-36.5 -70.44,-27.84 -134.16,-66.93 -190.27,-117.93 -56.86,-51.75 -104.71,-110.95 -140.77,-179.78 -34.95,-66.57 -58.01,-136.8 -69.12,-211.23 -2.06,-14 -1.97,-28.24 -2.62,-42.32 -2.46,-48.45 -2.55,-96.97 2.62,-145.16 5.37,-51.34 19.87,-100.77 38.84,-148.79 36.01,-90.78 89.24,-169.77 160.41,-235.86 92.68,-86.1 200.98,-140.84 325.41,-162.3 53.75,-9.27 107.8,-6.55 161.87,-5.37 80.51,1.64 155.17,26.08 227,60.35 54.15,25.85 103.14,60.14 148.05,100.71 51.29,46.45 93.42,100.11 128.34,159.9 19.55,33.54 32.56,70.14 48.99,105.09 18.67,39.57 23.72,82.07 32.07,123.96 2.94,14.57 2.04,29.74 2.55,44.56 1.23,42.06 1.39,84.13 -1.56,126.18 -3.04,42.09 -14.88,82.07 -27.4,121.74 -26.76,84.48 -68.96,160.42 -126.72,227.41 -61.74,71.71 -135.21,127.44 -220.76,166.36 -52.94,24.08 -107.98,41.9 -165.91,48.84 -20.35,2.49 -40.97,1.57 -61.42,4.07l-11.03 0c-4.59,-2.23 -9.48,-0.59 -14.23,-1.16 -6.8,0 -13.59,0 -20.35,0 -5.4,0.57 -10.97,-1.24 -16.28,1.16z"/>
    <path class="fil59" d="M1710.27 1927.14l22.49 0c0.75,0.49 1,0.99 0.75,1.32 -0.33,0.42 -0.65,0.58 -0.91,0.58l-22.17 0c-0.88,-0.32 -1.23,-0.75 -0.98,-1.15 0.26,-0.52 0.59,-0.75 0.82,-0.75z"/>
    <path class="fil60" d="M1710.27 1927.14c0.09,0.66 0.16,1.32 0.16,1.89l-15.44 0c4.66,-4.22 10.13,-1.56 15.28,-1.89z"/>
    <path class="fil60" d="M1732.58 1929.07c0,-0.66 0.07,-1.32 0.16,-1.9 4.41,0.26 9.23,-2.23 13.08,1.9l-13.24 0z"/>
    <path class="fil61" d="M1725.76 1626.05c-39.18,1.99 -78.12,-1.49 -116.81,-6.53 -63.31,-8.28 -124.66,-24.36 -184.2,-48.22 -26.19,-10.52 -39.93,-25.66 -40.81,-54.64 -0.68,-25.09 -1.81,-50.02 3.76,-74.6 9.06,-39.92 33.36,-65.35 72.88,-75.44 61.67,-15.83 118.27,-44.16 176.68,-73.13 -15.47,-9.27 -29.04,-18.73 -40.25,-30.98 -26.5,-29.07 -39.16,-64.41 -44.9,-102.6 -5.23,-35.36 -4.59,-70.8 3.83,-105.59 10.81,-44.36 37.73,-76.75 79.12,-94.48 60.84,-26.08 122.13,-25.33 181.42,5.04 44.1,22.63 66.92,61.22 73.22,110.24 4.41,34.27 4.17,68.56 -3.27,102.34 -10.65,48.12 -33.23,88.19 -79.44,114.03 23.81,12.18 45.65,23.94 67.98,34.53 35.58,16.91 71.98,31.88 110.36,41.67 19.96,5.11 37.37,15.47 49.73,33.02 -8.34,13.67 -21.35,20.12 -36,24.34 -1.4,-0.23 -3.11,-0.4 -4.09,-1.41 -15.79,-15.23 -36.79,-17.63 -56.37,-23.75 -30.67,-9.7 -60.03,-22.77 -88.89,-36.76 -29.55,-14.34 -58.89,-29.09 -87.28,-45.72 -5,-2.89 -10.15,-4.63 -15.79,-3.31 -6.96,1.66 -14.07,2.15 -20.86,1.25 -23.56,-2.99 -44.01,4.22 -64.69,15.39 -52.03,28.01 -105.78,52.51 -162.22,70.47 -7.7,2.41 -15.53,4.48 -23.39,6.55 -21.19,5.63 -34.53,19.39 -39.09,41.08 -4.82,23.1 -6.21,46.36 -2.36,69.88 1.21,7.64 6.12,10.62 12.01,13.1 41.55,17.56 84.66,30.14 128.92,38.43 56.93,10.69 114.43,14.91 172.35,13.83 7.93,-0.16 16.03,-4.16 23.88,0.24 4.09,3.64 1.49,7.14 -1.23,9.36 -14.07,11.67 -26.5,25.76 -44.17,32.38z"/>
    <path class="fil62" d="M2000.27 1423.21c11.61,-7.47 23.17,-15 34.78,-22.44 14.63,16.65 19.78,37.18 22.33,58.28 3.11,26.01 2.69,52.02 -1.96,77.84 -2.04,11.36 -7.13,19.56 -17.93,24.86 -55.85,27.06 -114.91,43.05 -175.62,53.57 -38.45,6.71 -77.28,9.86 -116.31,11.09 -6.54,0.24 -13.17,-0.26 -19.8,-0.33 14.49,-14.17 30.93,-25.94 46.37,-38.85 5.89,-9.27 16.05,-6.55 24.07,-7.28 64.1,-5.96 126.52,-19.39 186.72,-42.65 0.67,-0.33 1.4,-0.49 2.06,-0.75 16.77,-4.78 25.44,-13.93 24.62,-33.54 -1,-23.85 0.4,-47.7 -9.5,-70.14 -1.31,-3.14 -1.88,-6.45 0.16,-9.67z"/>
    <path class="fil58" d="M2000.27 1423.21c17.99,31.95 15.4,66.48 12.03,101.11 -0.65,6.78 -5.47,8.11 -10.16,10.19 -47.35,21.03 -97.08,33.94 -147.96,42.88 -27.15,4.81 -54.64,6.97 -82.06,9.86 -36.47,1.57 -72.88,1.99 -109.28,-0.82 -76.63,-5.96 -151.25,-21.13 -222.41,-51.59 -7.36,-3.15 -10.56,-7.38 -11.46,-15.5 -2.36,-23.51 -2.43,-46.85 2.46,-70.05 5.4,-25.42 20.22,-40.65 45.65,-47.04 53.73,-13.57 103.88,-36.85 153.53,-61.19 19.15,-9.36 38.7,-18.31 56.69,-29.97 3.6,-2.32 6.87,-1.66 10.48,-1.25 13.57,1.66 27.55,2.82 40.72,0.17 13.52,-2.65 23.74,1.66 34.95,7.86 63.14,35.04 127.2,68.16 197.69,86.12 11.97,2.98 20.8,10.68 29.13,19.22z"/>
    <path class="fil58" d="M1848.02 1116.65c0,32.47 -4.17,61.03 -16.11,87.96 -17.03,38.43 -46.05,61.03 -87.53,66.25 -36.4,4.63 -71.42,1.32 -101.68,-22.45 -21.19,-16.74 -33.29,-39.5 -40.41,-65.09 -10.79,-38.33 -11.68,-77.25 -3.92,-116.17 9.65,-48.44 46.86,-79.66 100.54,-85.4 28.13,-2.98 55.79,-0.73 82.37,10.19 37.95,15.66 58.08,45.21 63.96,85.47 2.04,14 3.27,28.15 2.78,39.24z"/>
   </g>
  </g>
 </g>
</svg>
