<?xml version="1.0" encoding="UTF-8"?>
<!DOCTYPE svg PUBLIC "-//W3C//DTD SVG 1.1//EN" "http://www.w3.org/Graphics/SVG/1.1/DTD/svg11.dtd">
<!-- Creator: CorelDRAW 2020 (64-Bit) -->
<svg xmlns="http://www.w3.org/2000/svg" xml:space="preserve" width="62.1208mm" height="7.5617mm" version="1.1" style="shape-rendering:geometricPrecision; text-rendering:geometricPrecision; image-rendering:optimizeQuality; fill-rule:evenodd; clip-rule:evenodd"
viewBox="0 0 6201.7 754.91"
 xmlns:xlink="http://www.w3.org/1999/xlink"
 xmlns:xodm="http://www.corel.com/coreldraw/odm/2003">
 <defs>
  <style type="text/css">
   <![CDATA[
    .str0 {stroke:#FEFEFE;stroke-width:19.97;stroke-miterlimit:22.9256}
    .fil55 {fill:none}
    .fil26 {fill:#FFD23A;fill-rule:nonzero}
    .fil48 {fill:#FCB53D;fill-rule:nonzero}
    .fil17 {fill:#FAAA3C;fill-rule:nonzero}
    .fil15 {fill:#F9A33E;fill-rule:nonzero}
    .fil11 {fill:#F1624D;fill-rule:nonzero}
    .fil9 {fill:#F15F56;fill-rule:nonzero}
    .fil0 {fill:#EE4477;fill-rule:nonzero}
    .fil14 {fill:#F18768;fill-rule:nonzero}
    .fil10 {fill:#F07D44;fill-rule:nonzero}
    .fil8 {fill:#EB4A6A;fill-rule:nonzero}
    .fil1 {fill:#EA4389;fill-rule:nonzero}
    .fil16 {fill:#F8C539;fill-rule:nonzero}
    .fil28 {fill:#F0A047;fill-rule:nonzero}
    .fil12 {fill:#E6649C;fill-rule:nonzero}
    .fil52 {fill:#F1BE39;fill-rule:nonzero}
    .fil24 {fill:#DF6F85;fill-rule:nonzero}
    .fil13 {fill:#E05899;fill-rule:nonzero}
    .fil18 {fill:#E8BC3B;fill-rule:nonzero}
    .fil2 {fill:#D83064;fill-rule:nonzero}
    .fil19 {fill:#D95499;fill-rule:nonzero}
    .fil25 {fill:#E2CA3B;fill-rule:nonzero}
    .fil7 {fill:#CB4E96;fill-rule:nonzero}
    .fil20 {fill:#C84292;fill-rule:nonzero}
    .fil51 {fill:#C1BE3F;fill-rule:nonzero}
    .fil36 {fill:#BFBF41;fill-rule:nonzero}
    .fil49 {fill:#BEC449;fill-rule:nonzero}
    .fil53 {fill:#AC4494;fill-rule:nonzero}
    .fil6 {fill:#9F4C99;fill-rule:nonzero}
    .fil21 {fill:#994796;fill-rule:nonzero}
    .fil22 {fill:#97529B;fill-rule:nonzero}
    .fil38 {fill:#88C070;fill-rule:nonzero}
    .fil50 {fill:#81C575;fill-rule:nonzero}
    .fil23 {fill:#82559F;fill-rule:nonzero}
    .fil54 {fill:#7A3B8D;fill-rule:nonzero}
    .fil40 {fill:#5DB978;fill-rule:nonzero}
    .fil45 {fill:#5CB677;fill-rule:nonzero}
    .fil35 {fill:#6970B0;fill-rule:nonzero}
    .fil44 {fill:#2DA48D;fill-rule:nonzero}
    .fil5 {fill:#644595;fill-rule:nonzero}
    .fil46 {fill:#2F938B;fill-rule:nonzero}
    .fil47 {fill:#318889;fill-rule:nonzero}
    .fil39 {fill:#348095;fill-rule:nonzero}
    .fil41 {fill:#3286AC;fill-rule:nonzero}
    .fil43 {fill:#367E95;fill-rule:nonzero}
    .fil42 {fill:#2C8889;fill-rule:nonzero}
    .fil37 {fill:#3A78B8;fill-rule:nonzero}
    .fil29 {fill:#307898;fill-rule:nonzero}
    .fil34 {fill:#4960A7;fill-rule:nonzero}
    .fil27 {fill:#554191;fill-rule:nonzero}
    .fil4 {fill:#47539C;fill-rule:nonzero}
    .fil33 {fill:#23638D;fill-rule:nonzero}
    .fil30 {fill:#255F82;fill-rule:nonzero}
    .fil3 {fill:#424690;fill-rule:nonzero}
    .fil32 {fill:#41407C;fill-rule:nonzero}
    .fil31 {fill:#2A4967;fill-rule:nonzero}
   ]]>
  </style>
    <clipPath id="id0">
     <path d="M377.45 9.98l5446.8 0c202.12,0 367.46,165.36 367.46,367.47l0 0.01c0,202.1 -165.34,367.45 -367.46,367.45l-5446.8 0c-202.11,0 -367.46,-165.35 -367.46,-367.45l0 -0.01c0,-202.11 165.35,-367.47 367.46,-367.47z"/>
    </clipPath>
 </defs>
 <g id="Capa_x0020_1">
  <metadata id="CorelCorpID_0Corel-Layer"/>
  <g id="_2121199899712">
   <g>
   </g>
   <g style="clip-path:url(#id0)">
    <g id="_2121199899808">
     <g>
      <path class="fil0" d="M5650.68 -314.77l146.01 -72.29c70.97,46.3 135.27,94.49 192.42,144.33l-338.42 -72.04z"/>
      <path class="fil1" d="M5523.7 -540.28l126.98 225.5 146.02 -72.29c-82.35,-53.72 -173.62,-104.9 -272.99,-153.21z"/>
      <path class="fil2" d="M4318.02 -909.62l-421.59 106.96 -188.32 -188.38c211.61,19.16 415.63,46.57 609.92,81.42z"/>
      <path class="fil1" d="M3896.43 -802.66l1088.19 115.25 25.27 -54.32c-211.79,-66.85 -443.9,-123.39 -691.86,-167.89l-421.59 106.96z"/>
      <path class="fil0" d="M5650.68 -314.77l-666.05 -372.64 25.27 -54.32c188.4,59.46 360.68,127.04 513.81,201.45l126.98 225.5z"/>
      <path class="fil3" d="M688.21 -641.07l422.05 264.83 -834.68 -66.43c121.92,-71.47 260.16,-137.91 412.63,-198.4z"/>
      <path class="fil4" d="M1496.24 -877.17l-385.96 500.94 -422.06 -264.84c237.75,-94.32 509.87,-174.2 808.03,-236.1z"/>
      <path class="fil5" d="M2311.03 -722.94l-1200.77 346.71 385.97 -500.94c147.9,-30.72 302.23,-56.96 461.88,-78.43l352.92 232.66z"/>
      <path class="fil6" d="M3333.57 -802.66l-1022.54 79.72 301.17 -291.18c104.97,-4.9 211.43,-7.79 319.14,-8.59l402.24 220.05z"/>
      <path class="fil7" d="M3333.57 -802.66l562.87 0 -188.32 -188.38c-75,-6.78 -150.94,-12.54 -227.75,-17.21l-146.79 205.6z"/>
      <path class="fil8" d="M5650.68 -314.77l-333.04 422.58 836.11 -176.72c-45.24,-59.83 -100.49,-117.84 -164.64,-173.82l-338.42 -72.04z"/>
      <path class="fil9" d="M6299.53 375.61l-981.89 -267.8 836.1 -176.71c95.92,126.86 147.62,261.68 147.62,401.45l0 0c0,14.42 -0.74,28.76 -1.84,43.07z"/>
      <path class="fil10" d="M5317.65 107.81l656.68 645.39 273.76 -177.32c28.88,-65.25 46.23,-132.13 51.44,-200.25l-981.89 -267.81z"/>
      <path class="fil11" d="M6078.73 822.08l-104.41 -68.88 273.76 -177.33c-37.72,85.11 -94.82,167.44 -169.36,246.22z"/>
      <polygon class="fil12" points="4984.62,-687.41 4265.86,-103.48 5650.67,-314.76 "/>
      <polygon class="fil13" points="5317.65,107.81 4265.86,-103.48 5650.68,-314.76 "/>
      <polygon class="fil14" points="4379.55,649.47 4265.86,-103.48 5317.65,107.81 "/>
      <polygon class="fil15" points="5974.33,753.2 4379.55,649.47 5317.65,107.81 "/>
      <path class="fil15" d="M5847.15 1018.13l127.18 -264.93 104.41 68.88c-64.54,68.19 -142.15,133.71 -231.58,196.04z"/>
      <polygon class="fil16" points="4379.55,649.47 4984.62,1156.57 5974.33,753.2 "/>
      <path class="fil17" d="M5323.55 1294.38l-338.92 -137.82 989.7 -403.36 -127.18 264.93c-145.22,101.22 -321.47,194.06 -523.6,276.26z"/>
      <path class="fil18" d="M4984.62 1156.56l-615.14 408.73c356.62,-66.98 679.16,-159.12 954.06,-270.91l-338.92 -137.82z"/>
      <polygon class="fil19" points="3896.43,-802.66 4265.86,-103.48 4984.61,-687.41 "/>
      <polygon class="fil20" points="3333.57,-802.66 4265.85,-103.48 3896.44,-802.66 "/>
      <polygon class="fil21" points="2311.03,-722.94 2469.78,-314.77 3333.56,-802.66 "/>
      <polygon class="fil22" points="4265.86,-103.48 2469.78,-314.76 3333.57,-802.66 "/>
      <polygon class="fil23" points="2469.79,-314.77 3364.54,107.81 4265.86,-103.48 "/>
      <polygon class="fil24" points="4379.55,649.47 3364.54,107.81 4265.86,-103.48 "/>
      <polygon class="fil25" points="3604.17,1045.16 4379.55,649.47 4984.62,1156.56 "/>
      <path class="fil26" d="M4003.79 1623.4l-399.62 -578.24 1380.45 111.4 -615.13 408.73c-118.31,22.22 -240.39,41.64 -365.7,58.11z"/>
      <polygon class="fil27" points="1110.27,-376.23 2469.79,-314.77 2311.03,-722.94 "/>
      <polygon class="fil28" points="3364.54,107.81 2841,597.61 4379.55,649.47 "/>
      <path class="fil29" d="M387.93 1045.16l-142.86 44.54c-66.51,-40.37 -127.67,-82.34 -183.45,-125.64l326.31 81.1z"/>
      <path class="fil30" d="M-318.59 347.53l776.86 -38.04 -686.34 339.62c-56.62,-96.91 -87.77,-197.85 -90.52,-301.59z"/>
      <path class="fil31" d="M-234.63 27.05l692.9 282.44 -776.86 38.04c-0.13,-5 -0.47,-9.97 -0.47,-14.98l0 0c0,-105.05 29.2,-207.31 84.43,-305.49z"/>
      <path class="fil32" d="M275.58 -442.67l834.68 66.43 -1181.56 193.55c92.63,-92.2 209.27,-179.29 346.88,-259.97z"/>
      <path class="fil33" d="M458.28 309.49l651.99 -685.72 -1181.57 193.55c-67.67,67.37 -122.61,137.43 -163.33,209.73l692.91 282.45z"/>
      <polygon class="fil34" points="2469.79,-314.77 1998.33,4.08 1110.27,-376.23 "/>
      <polygon class="fil35" points="3364.54,107.81 1998.34,4.08 2469.79,-314.76 "/>
      <polygon class="fil36" points="2840.99,597.61 1998.33,4.08 3364.54,107.81 "/>
      <polygon class="fil37" points="458.28,309.49 1998.33,4.08 1110.27,-376.23 "/>
      <polygon class="fil38" points="2840.99,597.61 1784.83,756.25 1998.33,4.08 "/>
      <polygon class="fil39" points="458.28,309.49 1387.01,460.91 1998.33,4.08 "/>
      <polygon class="fil40" points="1784.83,756.25 1387.01,460.9 1998.33,4.08 "/>
      <path class="fil41" d="M-166.16 740.78l1553.17 -279.88 -928.74 -151.41 -686.34 339.62c18.11,30.98 38.72,61.56 61.91,91.67z"/>
      <polygon class="fil42" points="1784.83,756.25 387.93,1045.16 1387.01,460.9 "/>
      <path class="fil43" d="M61.63 964.06l326.3 81.1 999.08 -584.26 -1553.17 279.88c59.88,77.68 136.4,152.32 227.79,223.28z"/>
      <path class="fil44" d="M387.93 1045.16l13.12 131.45c-54.68,-28.1 -106.8,-57.06 -155.98,-86.91l142.86 -44.54z"/>
      <polygon class="fil45" points="1660.17,1216.6 387.93,1045.16 1784.82,756.25 "/>
      <path class="fil46" d="M1127.65 1452.98l532.53 -236.37 -1272.25 -171.44 13.12 131.45c206.86,106.29 451.85,199.59 726.6,276.37z"/>
      <path class="fil47" d="M2030.46 1630.04l-370.29 -413.44 -532.52 236.37c274.19,76.62 577.93,136.78 902.81,177.06z"/>
      <path class="fil48" d="M3604.17 1045.16l-1280 615.42c215.45,18.05 438.52,27.52 666.98,27.52l0 0c353.23,0 693.44,-22.74 1012.63,-64.7l-399.62 -578.24z"/>
      <path class="fil49" d="M1660.17 1216.6l1944.01 -171.44 -1280 615.42c-99.64,-8.35 -197.56,-18.61 -293.72,-30.54l-370.29 -413.44z"/>
      <polygon class="fil50" points="1784.83,756.25 3604.17,1045.16 1660.18,1216.6 "/>
      <polygon class="fil51" points="2840.99,597.61 3604.17,1045.16 1784.83,756.25 "/>
      <polygon class="fil52" points="4379.55,649.47 3604.17,1045.16 2840.99,597.61 "/>
      <path class="fil53" d="M3480.37 -1008.25l-146.8 205.6 -402.25 -220.05c19.92,-0.15 39.83,-0.31 59.83,-0.31l0 0c166.24,0 329.56,5.08 489.22,14.77z"/>
      <path class="fil54" d="M2612.19 -1014.12l-301.16 291.18 -352.92 -232.66c209.58,-28.17 428.37,-47.99 654.07,-58.52z"/>
     </g>
    </g>
   </g>
   <path class="fil55 str0" d="M377.45 9.98l5446.8 0c202.12,0 367.46,165.36 367.46,367.47l0 0.01c0,202.1 -165.34,367.45 -367.46,367.45l-5446.8 0c-202.11,0 -367.46,-165.35 -367.46,-367.45l0 -0.01c0,-202.11 165.35,-367.47 367.46,-367.47z"/>
   <rect class="fil55 str0" x="259.27" y="81.24" width="5693.14" height="592.44" rx="826.42" ry="296.22"/>
  </g>
 </g>
</svg>
