<?xml version="1.0" encoding="UTF-8"?>
<!DOCTYPE svg PUBLIC "-//W3C//DTD SVG 1.1//EN" "http://www.w3.org/Graphics/SVG/1.1/DTD/svg11.dtd">
<!-- Creator: CorelDRAW 2020 (64-Bit) -->
<svg xmlns="http://www.w3.org/2000/svg" xml:space="preserve" width="30.4272mm" height="17.3953mm" version="1.1" style="shape-rendering:geometricPrecision; text-rendering:geometricPrecision; image-rendering:optimizeQuality; fill-rule:evenodd; clip-rule:evenodd"
viewBox="0 0 3032.36 1733.6"
 xmlns:xlink="http://www.w3.org/1999/xlink"
 xmlns:xodm="http://www.corel.com/coreldraw/odm/2003">
 <defs>
  <style type="text/css">
   <![CDATA[
    .str1 {stroke:#201E1E;stroke-width:9.97;stroke-miterlimit:22.9256}
    .str0 {stroke:black;stroke-width:9.97;stroke-miterlimit:22.9256}
    .fil57 {fill:none;fill-rule:nonzero}
    .fil28 {fill:#FFD23A;fill-rule:nonzero}
    .fil50 {fill:#FCB53D;fill-rule:nonzero}
    .fil19 {fill:#FAAA3C;fill-rule:nonzero}
    .fil17 {fill:#F9A33E;fill-rule:nonzero}
    .fil13 {fill:#F1624D;fill-rule:nonzero}
    .fil11 {fill:#F15F56;fill-rule:nonzero}
    .fil2 {fill:#EE4477;fill-rule:nonzero}
    .fil16 {fill:#F18768;fill-rule:nonzero}
    .fil12 {fill:#F07D44;fill-rule:nonzero}
    .fil10 {fill:#EB4A6A;fill-rule:nonzero}
    .fil3 {fill:#EA4389;fill-rule:nonzero}
    .fil18 {fill:#F8C539;fill-rule:nonzero}
    .fil30 {fill:#F0A047;fill-rule:nonzero}
    .fil14 {fill:#E6649C;fill-rule:nonzero}
    .fil54 {fill:#F1BE39;fill-rule:nonzero}
    .fil26 {fill:#DF6F85;fill-rule:nonzero}
    .fil15 {fill:#E05899;fill-rule:nonzero}
    .fil20 {fill:#E8BC3B;fill-rule:nonzero}
    .fil4 {fill:#D83064;fill-rule:nonzero}
    .fil21 {fill:#D95499;fill-rule:nonzero}
    .fil27 {fill:#E2CA3B;fill-rule:nonzero}
    .fil9 {fill:#CB4E96;fill-rule:nonzero}
    .fil22 {fill:#C84292;fill-rule:nonzero}
    .fil53 {fill:#C1BE3F;fill-rule:nonzero}
    .fil38 {fill:#BFBF41;fill-rule:nonzero}
    .fil51 {fill:#BEC449;fill-rule:nonzero}
    .fil55 {fill:#AC4494;fill-rule:nonzero}
    .fil8 {fill:#9F4C99;fill-rule:nonzero}
    .fil23 {fill:#994796;fill-rule:nonzero}
    .fil24 {fill:#97529B;fill-rule:nonzero}
    .fil40 {fill:#88C070;fill-rule:nonzero}
    .fil52 {fill:#81C575;fill-rule:nonzero}
    .fil25 {fill:#82559F;fill-rule:nonzero}
    .fil56 {fill:#7A3B8D;fill-rule:nonzero}
    .fil42 {fill:#5DB978;fill-rule:nonzero}
    .fil47 {fill:#5CB677;fill-rule:nonzero}
    .fil37 {fill:#6970B0;fill-rule:nonzero}
    .fil46 {fill:#2DA48D;fill-rule:nonzero}
    .fil7 {fill:#644595;fill-rule:nonzero}
    .fil48 {fill:#2F938B;fill-rule:nonzero}
    .fil49 {fill:#318889;fill-rule:nonzero}
    .fil41 {fill:#348095;fill-rule:nonzero}
    .fil43 {fill:#3286AC;fill-rule:nonzero}
    .fil45 {fill:#367E95;fill-rule:nonzero}
    .fil44 {fill:#2C8889;fill-rule:nonzero}
    .fil39 {fill:#3A78B8;fill-rule:nonzero}
    .fil31 {fill:#307898;fill-rule:nonzero}
    .fil36 {fill:#4960A7;fill-rule:nonzero}
    .fil29 {fill:#554191;fill-rule:nonzero}
    .fil6 {fill:#47539C;fill-rule:nonzero}
    .fil35 {fill:#23638D;fill-rule:nonzero}
    .fil32 {fill:#255F82;fill-rule:nonzero}
    .fil5 {fill:#424690;fill-rule:nonzero}
    .fil34 {fill:#41407C;fill-rule:nonzero}
    .fil33 {fill:#2A4967;fill-rule:nonzero}
    .fil0 {fill:#FEFEFE;fill-opacity:0.909804}
    .fil58 {fill:#FEFEFE;fill-rule:nonzero;fill-opacity:0.909804}
    .fil1 {fill:#373435;fill-rule:nonzero;fill-opacity:0.909804}
   ]]>
  </style>
    <clipPath id="id0" style="clip-rule:nonzero">
     <path d="M821.55 1446.81l77.08 0 30.58 -85.43 152.64 0 30.29 85.43 76.23 0 -156.54 -393 -52.87 0 -157.39 393zm131.57 -145.81l52.5 -143.43 52.3 143.43 -104.8 0zm336.99 151.51c13.57,0 34.74,-2.85 48.89,-5.6l0 -57.05c-7.22,1.15 -15.29,1.7 -16.9,1.7 -15.86,0 -23.92,-5.59 -23.92,-18.6l0 -319.15 -67.78 0 0 337.75c0,49.75 26.1,60.95 59.71,60.95zm159.39 0c13.57,0 34.75,-2.85 48.89,-5.6l0 -57.05c-7.22,1.15 -15.29,1.7 -16.9,1.7 -15.86,0 -23.92,-5.59 -23.92,-18.6l0 -319.15 -67.78 0 0 337.75c0,49.75 26.1,60.95 59.71,60.95zm221.75 -5.7l52.88 0 156.53 -393 -77.37 0 -105.37 278.42 -105.94 -278.42 -78.12 0 157.38 393zm294.65 5.7c33.14,0 62.66,-10.54 86.57,-45.1l4.38 39.4 55.91 0 0 -168.49c0,-67.88 -44.43,-114.01 -120.65,-114.01 -54.3,0 -89.61,23.36 -116.19,59.72l51.92 37.58c11.86,-20.31 33.33,-38.06 65.31,-38.06 35.89,0 54.87,22.21 54.87,57.52l-72.33 0c-62.38,0 -114.01,20.03 -114.01,80.41 0,58.38 47.27,91.04 104.22,91.04zm9.79 -56.96c-26.49,0 -44.53,-13.11 -44.53,-31.61 0,-17.66 17.47,-33.89 48.41,-33.89l68.45 0c-1.14,35.03 -33.69,65.51 -72.33,65.51zm207.79 -279.1l71.21 0 0 -62.65 -71.21 0 0 62.65zm1.71 330.35l67.21 0 0 -277.94 -67.21 0 0 277.94z"/>
    </clipPath>
    <clipPath id="id1" style="clip-rule:nonzero">
     <path d="M821.55 1446.81l77.08 0 30.58 -85.43 152.64 0 30.29 85.43 76.23 0 -156.54 -393 -52.87 0 -157.39 393zm131.57 -145.81l52.5 -143.43 52.3 143.43 -104.8 0zm336.99 151.51c13.57,0 34.74,-2.85 48.89,-5.6l0 -57.05c-7.22,1.15 -15.29,1.7 -16.9,1.7 -15.86,0 -23.92,-5.59 -23.92,-18.6l0 -319.15 -67.78 0 0 337.75c0,49.75 26.1,60.95 59.71,60.95zm159.39 0c13.57,0 34.75,-2.85 48.89,-5.6l0 -57.05c-7.22,1.15 -15.29,1.7 -16.9,1.7 -15.86,0 -23.92,-5.59 -23.92,-18.6l0 -319.15 -67.78 0 0 337.75c0,49.75 26.1,60.95 59.71,60.95zm221.75 -5.7l52.88 0 156.53 -393 -77.37 0 -105.37 278.42 -105.94 -278.42 -78.12 0 157.38 393zm294.65 5.7c33.14,0 62.66,-10.54 86.57,-45.1l4.38 39.4 55.91 0 0 -168.49c0,-67.88 -44.43,-114.01 -120.65,-114.01 -54.3,0 -89.61,23.36 -116.19,59.72l51.92 37.58c11.86,-20.31 33.33,-38.06 65.31,-38.06 35.89,0 54.87,22.21 54.87,57.52l-72.33 0c-62.38,0 -114.01,20.03 -114.01,80.41 0,58.38 47.27,91.04 104.22,91.04zm9.79 -56.96c-26.49,0 -44.53,-13.11 -44.53,-31.61 0,-17.66 17.47,-33.89 48.41,-33.89l68.45 0c-1.14,35.03 -33.69,65.51 -72.33,65.51zm207.79 -279.1l71.21 0 0 -62.65 -71.21 0 0 62.65zm1.71 330.35l67.21 0 0 -277.94 -67.21 0 0 277.94z"/>
    </clipPath>
     <clipPath id="id2" style="clip-rule:nonzero">
      <path d="M2128.02 632.78l0 -78.33 -582.21 -231.91 0 114.62 412.47 156.1 -412.47 156.95 0 115.73 582.21 -233.16z"/>
     </clipPath>
     <clipPath id="id3" style="clip-rule:nonzero">
      <path d="M2128.02 632.78l0 -78.33 -582.21 -231.91 0 114.62 412.47 156.1 -412.47 156.95 0 115.73 582.21 -233.16z"/>
     </clipPath>
     <clipPath id="id4" style="clip-rule:nonzero">
      <path d="M933.97 633.63l0 -78.33 582.21 -231.91 0 114.62 -412.47 156.1 197.25 75.05 -0.79 -96.14c26.81,-41.61 56.94,-43.65 90.78,-0.88l4.49 132.97 120.74 45.95 0 115.73 -582.21 -233.16z"/>
     </clipPath>
     <clipPath id="id5" style="clip-rule:nonzero">
      <path d="M933.97 633.63l0 -78.33 582.21 -231.91 0 114.62 -412.47 156.1 197.25 75.05 -0.79 -96.14c26.81,-41.61 56.94,-43.65 90.78,-0.88l4.49 132.97 120.74 45.95 0 115.73 -582.21 -233.16z"/>
     </clipPath>
 </defs>
 <g id="Capa_x0020_1">
  <metadata id="CorelCorpID_0Corel-Layer"/>
  <g id="_2120765029584">
   <path class="fil0" d="M885.42 0l2146.93 0 0 848.17c0,486.99 -398.44,885.43 -885.42,885.43l-2146.93 0 0 -848.17c0,-486.99 398.44,-885.43 885.42,-885.43z"/>
   <g style="clip-path:url(#id0)">
    <polygon class="fil1" points="821.55,1053.82 2254.68,1053.82 2254.68,1452.52 821.55,1452.52 "/>
   </g>
   <g style="clip-path:url(#id1)">
    <g>
     <g>
      <path id="1" class="fil2" d="M2244.22 873.65l35.68 -43.13c17.33,27.63 33.05,56.37 47.01,86.11l-82.69 -42.97z"/>
      <path class="fil3" d="M2213.21 739.12l31.01 134.53 35.68 -43.13c-20.12,-32.05 -42.42,-62.59 -66.69,-91.4z"/>
      <path class="fil4" d="M1918.64 518.78l-103 63.81 -46 -112.39c51.69,11.43 101.54,27.78 149,48.57z"/>
      <path class="fil3" d="M1815.64 582.59l265.85 68.75 6.18 -32.41c-51.74,-39.88 -108.45,-73.61 -169.03,-100.16l-103 63.81z"/>
      <path class="fil2" d="M2244.22 873.65l-162.71 -222.31 6.17 -32.41c46.03,35.47 88.12,75.79 125.53,120.19l31.01 134.53z"/>
      <path class="fil5" d="M1031.86 678.99l103.11 157.99 -203.91 -39.63c29.78,-42.63 63.56,-82.27 100.81,-118.36z"/>
      <path class="fil6" d="M1229.27 538.13l-94.29 298.85 -103.12 -157.99c58.08,-56.28 124.56,-103.92 197.41,-140.86z"/>
      <path class="fil7" d="M1428.33 630.15l-293.36 206.83 94.3 -298.85c36.14,-18.33 73.84,-33.98 112.84,-46.79l86.22 138.81z"/>
      <path class="fil8" d="M1678.13 582.59l-249.81 47.56 73.58 -173.72c25.64,-2.93 51.65,-4.64 77.96,-5.12l98.26 131.28z"/>
      <path class="fil9" d="M1678.13 582.59l137.52 0 -46.01 -112.39c-18.33,-4.05 -36.87,-7.48 -55.64,-10.27l-35.87 122.66z"/>
      <path class="fil10" d="M2244.22 873.65l-81.36 252.1 204.27 -105.43c-11.05,-35.69 -24.56,-70.3 -40.22,-103.7l-82.69 -42.97z"/>
      <path class="fil11" d="M2402.74 1285.53l-239.88 -159.77 204.27 -105.43c23.43,75.69 36.06,156.12 36.06,239.5l0 0c0,8.6 -0.18,17.16 -0.45,25.7z"/>
      <path class="fil12" d="M2162.86 1125.75l160.43 385.02 66.88 -105.79c7.06,-38.92 11.3,-78.82 12.57,-119.46l-239.88 -159.77z"/>
      <path class="fil13" d="M2348.8 1551.88l-25.51 -41.1 66.88 -105.79c-9.21,50.78 -23.16,99.89 -41.37,146.89z"/>
      <polygon class="fil14" points="2081.51,651.34 1905.91,999.7 2244.22,873.65 "/>
      <polygon class="fil15" points="2162.86,1125.75 1905.91,999.7 2244.22,873.65 "/>
      <polygon class="fil16" points="1933.68,1448.9 1905.91,999.7 2162.86,1125.75 "/>
      <polygon class="fil17" points="2323.29,1510.78 1933.68,1448.9 2162.86,1125.75 "/>
      <path class="fil17" d="M2292.23 1668.84l31.06 -158.06 25.51 41.1c-15.78,40.68 -34.73,79.77 -56.58,116.96z"/>
      <polygon class="fil18" points="1933.68,1448.9 2081.51,1751.42 2323.29,1510.78 "/>
      <path class="fil19" d="M2164.3 1833.64l-82.8 -82.22 241.78 -240.65 -31.06 158.06c-35.48,60.38 -78.54,115.76 -127.92,164.81z"/>
      <path class="fil20" d="M2081.51 1751.42l-150.29 243.84c87.12,-39.95 165.92,-94.94 233.08,-161.62l-82.8 -82.22z"/>
      <polygon class="fil21" points="1815.64,582.59 1905.91,999.7 2081.5,651.34 "/>
      <polygon class="fil22" points="1678.13,582.59 1905.91,999.7 1815.65,582.59 "/>
      <polygon class="fil23" points="1428.33,630.15 1467.11,873.65 1678.13,582.59 "/>
      <polygon class="fil24" points="1905.91,999.7 1467.11,873.65 1678.14,582.59 "/>
      <polygon class="fil25" points="1467.12,873.65 1685.71,1125.75 1905.91,999.7 "/>
      <polygon class="fil26" points="1933.68,1448.9 1685.71,1125.75 1905.91,999.7 "/>
      <polygon class="fil27" points="1744.25,1684.96 1933.68,1448.9 2081.51,1751.42 "/>
      <path class="fil28" d="M1841.87 2029.93l-97.63 -344.97 337.25 66.46 -150.28 243.84c-28.9,13.25 -58.73,24.85 -89.34,34.67z"/>
      <polygon class="fil29" points="1134.97,836.98 1467.12,873.65 1428.33,630.15 "/>
      <polygon class="fil30" points="1685.71,1125.75 1557.81,1417.96 1933.68,1448.9 "/>
      <path class="fil31" d="M958.5 1684.96l-34.9 26.57c-16.25,-24.09 -31.19,-49.12 -44.82,-74.95l79.72 48.38z"/>
      <path class="fil32" d="M785.89 1268.76l189.79 -22.69 -167.68 202.62c-13.83,-57.81 -21.44,-118.04 -22.11,-179.93z"/>
      <path class="fil33" d="M806.4 1077.58l169.28 168.49 -189.79 22.69c-0.03,-2.98 -0.11,-5.95 -0.11,-8.94l0 0c0,-62.67 7.14,-123.68 20.62,-182.25z"/>
      <path class="fil34" d="M931.06 797.34l203.91 39.63 -288.66 115.47c22.63,-55 51.14,-106.96 84.75,-155.1z"/>
      <path class="fil35" d="M975.7 1246.07l159.28 -409.09 -288.66 115.47c-16.52,40.2 -29.95,82 -39.9,125.13l169.29 168.49z"/>
      <polygon class="fil36" points="1467.12,873.65 1351.94,1063.87 1134.97,836.98 "/>
      <polygon class="fil37" points="1685.71,1125.75 1351.94,1063.87 1467.12,873.65 "/>
      <polygon class="fil38" points="1557.81,1417.96 1351.94,1063.87 1685.71,1125.75 "/>
      <polygon class="fil39" points="975.7,1246.07 1351.94,1063.87 1134.97,836.98 "/>
      <polygon class="fil40" points="1557.81,1417.96 1299.78,1512.6 1351.94,1063.87 "/>
      <polygon class="fil41" points="975.7,1246.07 1202.58,1336.4 1351.94,1063.87 "/>
      <polygon class="fil42" points="1299.78,1512.6 1202.58,1336.4 1351.94,1063.87 "/>
      <path class="fil43" d="M823.14 1503.37l379.44 -166.97 -226.89 -90.33 -167.68 202.62c4.42,18.48 9.46,36.72 15.13,54.68z"/>
      <polygon class="fil44" points="1299.78,1512.6 958.5,1684.96 1202.58,1336.4 "/>
      <path class="fil45" d="M878.79 1636.58l79.72 48.38 244.08 -348.56 -379.44 166.97c14.63,46.34 33.33,90.88 55.65,133.2z"/>
      <path class="fil46" d="M958.5 1684.96l3.2 78.42c-13.35,-16.76 -26.09,-34.04 -38.1,-51.85l34.9 -26.57z"/>
      <polygon class="fil47" points="1269.32,1787.24 958.5,1684.96 1299.78,1512.6 "/>
      <path class="fil48" d="M1139.23 1928.26l130.1 -141.02 -310.82 -102.28 3.21 78.42c50.54,63.41 110.38,119.07 177.51,164.88z"/>
      <path class="fil49" d="M1359.78 2033.89l-90.46 -246.65 -130.11 141.02c66.99,45.7 141.2,81.6 220.57,105.63z"/>
      <path class="fil50" d="M1744.25 1684.96l-312.71 367.15c52.63,10.77 107.13,16.42 162.95,16.42l0 0c86.3,0 169.41,-13.57 247.38,-38.6l-97.63 -344.97z"/>
      <path class="fil51" d="M1269.32 1787.24l474.93 -102.28 -312.71 367.15c-24.34,-4.98 -48.27,-11.1 -71.75,-18.22l-90.46 -246.65z"/>
      <polygon class="fil52" points="1299.78,1512.6 1744.25,1684.96 1269.32,1787.24 "/>
      <polygon class="fil53" points="1557.81,1417.96 1744.25,1684.96 1299.78,1512.6 "/>
      <polygon class="fil54" points="1933.68,1448.9 1744.25,1684.96 1557.81,1417.96 "/>
      <path class="fil55" d="M1714 459.93l-35.86 122.66 -98.27 -131.28c4.86,-0.09 9.73,-0.19 14.62,-0.19l0 0c40.61,0 80.5,3.03 119.51,8.81z"/>
      <path class="fil56" d="M1501.91 456.43l-73.58 173.72 -86.23 -138.81c51.2,-16.8 104.66,-28.63 159.8,-34.91z"/>
     </g>
    </g>
   </g>
   <path class="fil57" d="M821.55 1446.81l77.08 0 30.58 -85.43 152.64 0 30.29 85.43 76.23 0 -156.54 -393 -52.87 0 -157.39 393zm131.57 -145.81l52.5 -143.43 52.3 143.43 -104.8 0zm336.99 151.51c13.57,0 34.74,-2.85 48.89,-5.6l0 -57.05c-7.22,1.15 -15.29,1.7 -16.9,1.7 -15.86,0 -23.92,-5.59 -23.92,-18.6l0 -319.15 -67.78 0 0 337.75c0,49.75 26.1,60.95 59.71,60.95zm159.39 0c13.57,0 34.75,-2.85 48.89,-5.6l0 -57.05c-7.22,1.15 -15.29,1.7 -16.9,1.7 -15.86,0 -23.92,-5.59 -23.92,-18.6l0 -319.15 -67.78 0 0 337.75c0,49.75 26.1,60.95 59.71,60.95zm221.75 -5.7l52.88 0 156.53 -393 -77.37 0 -105.37 278.42 -105.94 -278.42 -78.12 0 157.38 393zm294.65 5.7c33.14,0 62.66,-10.54 86.57,-45.1l4.38 39.4 55.91 0 0 -168.49c0,-67.88 -44.43,-114.01 -120.65,-114.01 -54.3,0 -89.61,23.36 -116.19,59.72l51.92 37.58c11.86,-20.31 33.33,-38.06 65.31,-38.06 35.89,0 54.87,22.21 54.87,57.52l-72.33 0c-62.38,0 -114.01,20.03 -114.01,80.41 0,58.38 47.27,91.04 104.22,91.04zm9.79 -56.96c-26.49,0 -44.53,-13.11 -44.53,-31.61 0,-17.66 17.47,-33.89 48.41,-33.89l68.45 0c-1.14,35.03 -33.69,65.51 -72.33,65.51zm207.79 -279.1l71.21 0 0 -62.65 -71.21 0 0 62.65zm1.71 330.35l67.21 0 0 -277.94 -67.21 0 0 277.94z"/>
   <g>
    <g style="clip-path:url(#id2)">
     <polygon class="fil58" points="1545.81,322.54 2128.02,322.54 2128.02,865.94 1545.81,865.94 "/>
    </g>
    <g style="clip-path:url(#id3)">
     <g>
      <g>
       <path id="1" class="fil2 str0" d="M1261.93 375.57l-18.68 -22.58c-9.08,14.46 -17.3,29.52 -24.62,45.09l43.29 -22.5z"/>
       <path class="fil3 str0" d="M1278.17 305.12l-16.24 70.45 -18.68 -22.58c10.53,-16.78 22.21,-32.78 34.92,-47.87z"/>
       <path class="fil4 str0" d="M1432.42 189.73l53.94 33.42 24.1 -58.85c-27.08,5.98 -53.18,14.54 -78.03,25.43z"/>
       <path class="fil3 str0" d="M1486.36 223.15l-139.21 36.01 -3.24 -16.97c27.1,-20.89 56.8,-38.55 88.52,-52.45l53.94 33.42z"/>
       <path class="fil2 str0" d="M1261.93 375.57l85.22 -116.41 -3.24 -16.97c-24.1,18.58 -46.14,39.68 -65.74,62.93l-16.24 70.45z"/>
       <path class="fil5 str0" d="M1896.81 273.62l-54 82.74 106.79 -20.75c-15.6,-22.33 -33.29,-43.08 -52.79,-61.99z"/>
       <path class="fil6 str0" d="M1793.43 199.87l49.37 156.5 54.01 -82.74c-30.43,-29.46 -65.24,-54.41 -103.38,-73.76z"/>
       <path class="fil7 str0" d="M1689.19 248.05l153.62 108.31 -49.38 -156.5c-18.93,-9.6 -38.67,-17.8 -59.09,-24.51l-45.16 72.69z"/>
       <path class="fil8 str0" d="M1558.37 223.15l130.81 24.9 -38.53 -90.97c-13.43,-1.53 -27.05,-2.43 -40.83,-2.68l-51.45 68.75z"/>
       <path class="fil9 str0" d="M1558.37 223.15l-72.01 0 24.1 -58.85c9.59,-2.12 19.3,-3.93 29.13,-5.38l18.79 64.23z"/>
       <path class="fil10 str0" d="M1261.93 375.57l42.61 132.02 -106.97 -55.21c5.79,-18.69 12.86,-36.81 21.07,-54.3l43.29 -22.5z"/>
       <path class="fil11 str0" d="M1178.92 591.25l125.62 -83.66 -106.97 -55.21c-12.27,39.63 -18.89,81.76 -18.89,125.42l0 0c0,4.5 0.1,8.99 0.24,13.45z"/>
       <path class="fil12 str0" d="M1304.54 507.59l-84.01 201.62 -35.03 -55.39c-3.69,-20.38 -5.91,-41.28 -6.58,-62.57l125.62 -83.66z"/>
       <path class="fil13 str0" d="M1207.16 730.73l13.36 -21.52 -35.03 -55.4c4.82,26.58 12.14,52.3 21.67,76.92z"/>
       <polygon class="fil14 str0" points="1347.15,259.15 1439.1,441.58 1261.93,375.57 "/>
       <polygon class="fil15 str0" points="1304.54,507.59 1439.1,441.58 1261.93,375.57 "/>
       <polygon class="fil16 str0" points="1424.55,676.81 1439.1,441.58 1304.54,507.59 "/>
       <polygon class="fil17 str0" points="1220.53,709.22 1424.55,676.81 1304.54,507.59 "/>
       <path class="fil17 str0" d="M1236.79 791.98l-16.26 -82.77 -13.36 21.52c8.26,21.31 18.19,41.77 29.63,61.25z"/>
       <polygon class="fil18 str0" points="1424.55,676.81 1347.15,835.23 1220.53,709.21 "/>
       <path class="fil19 str0" d="M1303.78 878.29l43.36 -43.06 -126.62 -126.01 16.26 82.77c18.58,31.61 41.13,60.62 66.99,86.31z"/>
       <path class="fil20 str0" d="M1347.15 835.23l78.69 127.69c-45.62,-20.93 -86.88,-49.71 -122.05,-84.63l43.36 -43.06z"/>
       <polygon class="fil21 str0" points="1486.36,223.15 1439.1,441.58 1347.15,259.15 "/>
       <polygon class="fil22 str0" points="1558.37,223.15 1439.1,441.58 1486.36,223.15 "/>
       <polygon class="fil23 str0" points="1689.19,248.05 1668.88,375.57 1558.37,223.15 "/>
       <polygon class="fil24 str0" points="1439.1,441.58 1668.88,375.57 1558.37,223.15 "/>
       <polygon class="fil25 str0" points="1668.88,375.57 1554.41,507.59 1439.1,441.58 "/>
       <polygon class="fil26 str0" points="1424.55,676.81 1554.41,507.59 1439.1,441.58 "/>
       <polygon class="fil27 str0" points="1523.75,800.42 1424.55,676.81 1347.15,835.23 "/>
       <path class="fil28 str0" d="M1472.63 981.08l51.13 -180.65 -176.61 34.8 78.69 127.69c15.14,6.94 30.75,13.01 46.79,18.16z"/>
       <polygon class="fil29 str0" points="1842.81,356.36 1668.88,375.57 1689.19,248.05 "/>
       <polygon class="fil30 str0" points="1554.41,507.59 1621.39,660.6 1424.55,676.81 "/>
       <path class="fil31 str0" d="M1935.22 800.42l18.28 13.91c8.51,-12.62 16.33,-25.72 23.47,-39.26l-41.75 25.34z"/>
       <path class="fil32 str0" d="M2025.61 582.48l-99.39 -11.89 87.81 106.11c7.25,-30.28 11.23,-61.81 11.58,-94.22z"/>
       <path class="fil33 str0" d="M2014.86 482.35l-88.65 88.24 99.39 11.89c0.02,-1.56 0.06,-3.12 0.06,-4.68l0 0c0,-32.82 -3.74,-64.77 -10.8,-95.44z"/>
       <path class="fil34 str0" d="M1949.6 335.61l-106.79 20.75 151.16 60.47c-11.86,-28.81 -26.78,-56.02 -44.38,-81.22z"/>
       <path class="fil35 str0" d="M1926.22 570.59l-83.41 -214.23 151.17 60.47c8.65,21.05 15.69,42.93 20.89,65.52l-88.65 88.24z"/>
       <polygon class="fil36 str0" points="1668.88,375.57 1729.19,475.18 1842.81,356.36 "/>
       <polygon class="fil37 str0" points="1554.41,507.59 1729.19,475.19 1668.88,375.57 "/>
       <polygon class="fil38 str0" points="1621.39,660.6 1729.19,475.18 1554.41,507.59 "/>
       <polygon class="fil39 str0" points="1926.22,570.59 1729.19,475.19 1842.8,356.36 "/>
       <polygon class="fil40 str0" points="1621.39,660.6 1756.51,710.16 1729.19,475.18 "/>
       <polygon class="fil41 str0" points="1926.22,570.59 1807.4,617.9 1729.19,475.19 "/>
       <polygon class="fil42 str0" points="1756.51,710.16 1807.4,617.9 1729.19,475.18 "/>
       <path class="fil43 str0" d="M2006.1 705.33l-198.7 -87.43 118.81 -47.31 87.81 106.11c-2.31,9.68 -4.95,19.22 -7.92,28.63z"/>
       <polygon class="fil44 str0" points="1756.51,710.16 1935.22,800.42 1807.4,617.9 "/>
       <path class="fil45 str0" d="M1976.96 775.08l-41.75 25.34 -127.81 -182.53 198.7 87.43c-7.65,24.27 -17.45,47.59 -29.14,69.75z"/>
       <path class="fil46 str0" d="M1935.22 800.42l-1.67 41.07c7,-8.78 13.66,-17.83 19.95,-27.16l-18.28 -13.91z"/>
       <polygon class="fil47 str0" points="1772.45,853.98 1935.22,800.42 1756.51,710.16 "/>
       <path class="fil48 str0" d="M1840.58 927.83l-68.13 -73.85 162.76 -53.56 -1.67 41.07c-26.47,33.21 -57.81,62.35 -92.96,86.33z"/>
       <path class="fil49 str0" d="M1725.08 983.15l47.37 -129.17 68.13 73.85c-35.07,23.94 -73.94,42.73 -115.5,55.32z"/>
       <path class="fil50 str0" d="M1523.75 800.42l163.75 192.26c-27.56,5.64 -56.1,8.6 -85.33,8.6l0 0c-45.19,0 -88.72,-7.11 -129.55,-20.21l51.13 -180.65z"/>
       <path class="fil51 str0" d="M1772.45 853.98l-248.7 -53.56 163.75 192.26c12.75,-2.61 25.27,-5.81 37.58,-9.54l47.37 -129.17z"/>
       <polygon class="fil52 str0" points="1756.51,710.16 1523.75,800.42 1772.45,853.98 "/>
       <polygon class="fil53 str0" points="1621.39,660.6 1523.75,800.42 1756.51,710.16 "/>
       <polygon class="fil54 str0" points="1424.55,676.81 1523.75,800.42 1621.39,660.6 "/>
       <path class="fil55 str0" d="M1539.59 158.92l18.79 64.23 51.45 -68.75c-2.54,-0.05 -5.09,-0.1 -7.65,-0.1l0 0c-21.27,0 -42.16,1.58 -62.59,4.61z"/>
       <path class="fil56 str0" d="M1650.66 157.08l38.53 90.97 45.16 -72.69c-26.82,-8.8 -54.81,-14.99 -83.68,-18.28z"/>
      </g>
     </g>
    </g>
    <g style="clip-path:url(#id4)">
     <polygon class="fil58" points="933.97,323.39 1516.18,323.39 1516.18,866.8 933.97,866.8 "/>
    </g>
    <g style="clip-path:url(#id5)">
     <g>
      <g>
       <path id="1" class="fil2 str1" d="M1144.24 396.03l-18.68 -22.58c-9.08,14.46 -17.3,29.52 -24.62,45.09l43.29 -22.5z"/>
       <path class="fil3 str1" d="M1160.48 325.58l-16.24 70.45 -18.68 -22.58c10.53,-16.78 22.21,-32.78 34.92,-47.87z"/>
       <path class="fil4 str1" d="M1314.74 210.19l53.94 33.42 24.1 -58.85c-27.08,5.98 -53.18,14.54 -78.03,25.43z"/>
       <path class="fil3 str1" d="M1368.67 243.61l-139.21 36.01 -3.24 -16.97c27.1,-20.89 56.8,-38.55 88.52,-52.45l53.94 33.42z"/>
       <path class="fil2 str1" d="M1144.24 396.03l85.22 -116.41 -3.24 -16.97c-24.1,18.58 -46.14,39.68 -65.74,62.93l-16.24 70.45z"/>
       <path class="fil5 str1" d="M1779.12 294.08l-54 82.74 106.79 -20.75c-15.6,-22.33 -33.29,-43.08 -52.79,-61.99z"/>
       <path class="fil6 str1" d="M1675.74 220.33l49.37 156.5 54.01 -82.74c-30.43,-29.46 -65.24,-54.41 -103.38,-73.76z"/>
       <path class="fil7 str1" d="M1571.5 268.51l153.62 108.31 -49.38 -156.5c-18.93,-9.6 -38.67,-17.8 -59.09,-24.51l-45.16 72.69z"/>
       <path class="fil8 str1" d="M1440.69 243.61l130.81 24.9 -38.53 -90.97c-13.43,-1.53 -27.05,-2.43 -40.83,-2.68l-51.45 68.75z"/>
       <path class="fil9 str1" d="M1440.69 243.61l-72.01 0 24.1 -58.85c9.59,-2.12 19.3,-3.93 29.13,-5.38l18.79 64.23z"/>
       <path class="fil10 str1" d="M1144.24 396.03l42.61 132.02 -106.97 -55.21c5.79,-18.69 12.86,-36.81 21.07,-54.3l43.29 -22.5z"/>
       <path class="fil11 str1" d="M1061.23 611.71l125.62 -83.66 -106.97 -55.21c-12.27,39.63 -18.89,81.76 -18.89,125.42l0 0c0,4.5 0.1,8.99 0.24,13.45z"/>
       <path class="fil12 str1" d="M1186.85 528.05l-84.01 201.62 -35.03 -55.39c-3.69,-20.38 -5.91,-41.28 -6.58,-62.57l125.62 -83.66z"/>
       <path class="fil13 str1" d="M1089.48 751.19l13.36 -21.52 -35.03 -55.4c4.82,26.58 12.14,52.3 21.67,76.92z"/>
       <polygon class="fil14 str1" points="1229.46,279.61 1321.41,462.04 1144.24,396.03 "/>
       <polygon class="fil15 str1" points="1186.85,528.05 1321.41,462.04 1144.24,396.03 "/>
       <polygon class="fil16 str1" points="1306.86,697.27 1321.41,462.04 1186.85,528.05 "/>
       <polygon class="fil17 str1" points="1102.84,729.68 1306.86,697.27 1186.85,528.05 "/>
       <path class="fil17 str1" d="M1119.1 812.44l-16.26 -82.77 -13.36 21.52c8.26,21.31 18.19,41.77 29.63,61.25z"/>
       <polygon class="fil18 str1" points="1306.86,697.27 1229.46,855.69 1102.84,729.67 "/>
       <path class="fil19 str1" d="M1186.1 898.75l43.36 -43.06 -126.62 -126.01 16.26 82.77c18.58,31.61 41.13,60.62 66.99,86.31z"/>
       <path class="fil20 str1" d="M1229.46 855.69l78.69 127.69c-45.62,-20.93 -86.88,-49.71 -122.05,-84.63l43.36 -43.06z"/>
       <polygon class="fil21 str1" points="1368.67,243.61 1321.41,462.04 1229.46,279.61 "/>
       <polygon class="fil22 str1" points="1440.69,243.61 1321.41,462.04 1368.67,243.61 "/>
       <polygon class="fil23 str1" points="1571.5,268.51 1551.19,396.03 1440.69,243.61 "/>
       <polygon class="fil24 str1" points="1321.41,462.04 1551.19,396.03 1440.69,243.61 "/>
       <polygon class="fil25 str1" points="1551.19,396.03 1436.72,528.05 1321.41,462.04 "/>
       <polygon class="fil26 str1" points="1306.86,697.27 1436.72,528.05 1321.41,462.04 "/>
       <polygon class="fil27 str1" points="1406.06,820.88 1306.86,697.27 1229.46,855.69 "/>
       <path class="fil28 str1" d="M1354.94 1001.54l51.13 -180.65 -176.61 34.8 78.69 127.69c15.14,6.94 30.75,13.01 46.79,18.16z"/>
       <polygon class="fil29 str1" points="1725.12,376.82 1551.19,396.03 1571.5,268.51 "/>
       <polygon class="fil30 str1" points="1436.72,528.05 1503.7,681.06 1306.86,697.27 "/>
       <path class="fil31 str1" d="M1817.53 820.88l18.28 13.91c8.51,-12.62 16.33,-25.72 23.47,-39.26l-41.75 25.34z"/>
       <path class="fil32 str1" d="M1907.92 602.94l-99.39 -11.89 87.81 106.11c7.25,-30.28 11.23,-61.81 11.58,-94.22z"/>
       <path class="fil33 str1" d="M1897.18 502.81l-88.65 88.24 99.39 11.89c0.02,-1.56 0.06,-3.12 0.06,-4.68l0 0c0,-32.82 -3.74,-64.77 -10.8,-95.44z"/>
       <path class="fil34 str1" d="M1831.91 356.07l-106.79 20.75 151.16 60.47c-11.86,-28.81 -26.78,-56.02 -44.38,-81.22z"/>
       <path class="fil35 str1" d="M1808.53 591.05l-83.41 -214.23 151.17 60.47c8.65,21.05 15.69,42.93 20.89,65.52l-88.65 88.24z"/>
       <polygon class="fil36 str1" points="1551.19,396.03 1611.5,495.64 1725.12,376.82 "/>
       <polygon class="fil37 str1" points="1436.72,528.05 1611.5,495.65 1551.19,396.03 "/>
       <polygon class="fil38 str1" points="1503.7,681.06 1611.5,495.64 1436.72,528.05 "/>
       <polygon class="fil39 str1" points="1808.53,591.05 1611.5,495.65 1725.11,376.82 "/>
       <polygon class="fil40 str1" points="1503.7,681.06 1638.82,730.62 1611.5,495.64 "/>
       <polygon class="fil41 str1" points="1808.53,591.05 1689.71,638.36 1611.5,495.65 "/>
       <polygon class="fil42 str1" points="1638.82,730.62 1689.71,638.36 1611.5,495.64 "/>
       <path class="fil43 str1" d="M1888.42 725.79l-198.7 -87.43 118.81 -47.31 87.81 106.11c-2.31,9.68 -4.95,19.22 -7.92,28.63z"/>
       <polygon class="fil44 str1" points="1638.82,730.62 1817.53,820.88 1689.71,638.36 "/>
       <path class="fil45 str1" d="M1859.28 795.54l-41.75 25.34 -127.81 -182.53 198.7 87.43c-7.65,24.27 -17.45,47.59 -29.14,69.75z"/>
       <path class="fil46 str1" d="M1817.53 820.88l-1.67 41.07c7,-8.78 13.66,-17.83 19.95,-27.16l-18.28 -13.91z"/>
       <polygon class="fil47 str1" points="1654.76,874.44 1817.53,820.88 1638.82,730.62 "/>
       <path class="fil48 str1" d="M1722.89 948.29l-68.13 -73.85 162.76 -53.56 -1.67 41.07c-26.47,33.21 -57.81,62.35 -92.96,86.33z"/>
       <path class="fil49 str1" d="M1607.4 1003.61l47.37 -129.17 68.13 73.85c-35.07,23.94 -73.94,42.73 -115.5,55.32z"/>
       <path class="fil50 str1" d="M1406.06 820.88l163.75 192.26c-27.56,5.64 -56.1,8.6 -85.33,8.6l0 0c-45.19,0 -88.72,-7.11 -129.55,-20.21l51.13 -180.65z"/>
       <path class="fil51 str1" d="M1654.76 874.44l-248.7 -53.56 163.75 192.26c12.75,-2.61 25.27,-5.81 37.58,-9.54l47.37 -129.17z"/>
       <polygon class="fil52 str1" points="1638.82,730.62 1406.06,820.88 1654.76,874.44 "/>
       <polygon class="fil53 str1" points="1503.7,681.06 1406.06,820.88 1638.82,730.62 "/>
       <polygon class="fil54 str1" points="1306.86,697.27 1406.06,820.88 1503.7,681.06 "/>
       <path class="fil55 str1" d="M1421.9 179.38l18.79 64.23 51.45 -68.75c-2.54,-0.05 -5.09,-0.1 -7.65,-0.1l0 0c-21.27,0 -42.16,1.58 -62.59,4.61z"/>
       <path class="fil56 str1" d="M1532.97 177.54l38.53 90.97 45.16 -72.69c-26.82,-8.8 -54.81,-14.99 -83.68,-18.28z"/>
      </g>
     </g>
    </g>
    <path class="fil57" d="M933.97 633.63l0 -78.33 582.21 -231.91 0 114.62 -412.47 156.1 197.25 75.05 -0.79 -96.14c26.81,-41.61 56.94,-43.65 90.78,-0.88l4.49 132.97 120.74 45.95 0 115.73 -582.21 -233.16z"/>
   </g>
  </g>
 </g>
</svg>
