<?xml version="1.0" encoding="UTF-8"?>
<!DOCTYPE svg PUBLIC "-//W3C//DTD SVG 1.1//EN" "http://www.w3.org/Graphics/SVG/1.1/DTD/svg11.dtd">
<!-- Creator: CorelDRAW 2020 (64-Bit) -->
<svg xmlns="http://www.w3.org/2000/svg" xml:space="preserve" width="56.6209mm" height="5.326mm" version="1.1" style="shape-rendering:geometricPrecision; text-rendering:geometricPrecision; image-rendering:optimizeQuality; fill-rule:evenodd; clip-rule:evenodd"
viewBox="0 0 5651.7 531.62"
 xmlns:xlink="http://www.w3.org/1999/xlink"
 xmlns:xodm="http://www.corel.com/coreldraw/odm/2003">
 <defs>
  <style type="text/css">
   <![CDATA[
    .fil0 {fill:#7C51A0}
    .fil1 {fill:#FFFBD4;fill-rule:nonzero}
   ]]>
  </style>
 </defs>
 <g id="Capa_x0020_1">
  <metadata id="CorelCorpID_0Corel-Layer"/>
  <path class="fil0" d="M726.64 0l4925.06 0 0 230.23c0,165.77 -455.61,301.4 -650.69,301.4l-5001.01 0 0 -129.75c0,-221.04 466.52,-401.87 726.64,-401.87z"/>
  <path class="fil1" d="M1240.82 365.22l25.98 -24.81 -32.19 -30.97c14.32,-20.13 22.17,-47.86 22.17,-77.02 0,-62.12 -34.26,-117.45 -108.81,-117.45 -74.5,0 -108.81,55.07 -108.81,117.12 0,62.06 34.31,117.17 108.81,117.17 23.8,0 44.06,-5.78 60.5,-16.78l32.35 32.74zm-92.85 -54.47c-48.36,0 -68.29,-35.64 -68.29,-78.67 0,-42.91 19.93,-78.51 68.29,-78.51 48.35,0 68.28,35.59 68.28,78.51 0,17.88 -3.31,33.34 -11.16,47.53l-30.01 -28.06 -26.13 24.21 30.76 28.39c-8.27,3.85 -19.01,6.6 -31.74,6.6z"/>
  <path id="1" class="fil1" d="M1354.42 349.65c17.43,0 34.64,-7.43 46.13,-22.5l0 18.87 39.54 0 0 -161.08 -39.54 0 0 79.16c0,40.06 -18.63,48.25 -36.86,48.25 -23.59,0 -28.87,-14.8 -28.87,-34.66l0 -92.76 -39.44 0 0 94.69c0,34.99 17.28,70.03 59.04,70.03z"/>
  <path id="2" class="fil1" d="M1528.2 164.8l28.38 0 48.9 -46.54 -41.44 0 -35.83 46.54zm23.59 183.19c26.46,0 47.64,-7.59 66.27,-27.72l-26.74 -23.72c-11.49,11.94 -22.49,14.8 -39.86,14.8 -23.1,0 -35.56,-13.21 -38.23,-33.01l109.29 0c0,0 1.48,-5.01 1.48,-12.27 0,-41.59 -17.11,-83.13 -75.1,-83.13 -51.94,0 -76.84,41.2 -76.84,83.46 0,43.02 26.46,81.58 79.73,81.58zm-38.56 -98.03c3.31,-19.47 13.99,-34 35.66,-34 23.15,0 34.25,12.21 36.81,34l-72.48 0z"/>
  <path id="3" class="fil1" d="M1801.43 349.32c10.99,0 22.81,-2.59 28.69,-4.84l0 -35.59c-5.22,2.59 -13.98,5.77 -22.16,5.77 -10.18,0 -19.27,-4.5 -19.27,-19.96l0 -76.8 41.43 0 0 -32.9 -41.43 0 0 -68.05 -36.6 28.06 0 40 -26.3 0 0 32.9 25.65 0 0 83.73c0,29.33 18.63,47.7 50,47.7z"/>
  <path id="4" class="fil1" d="M1864.21 154.57l40.84 0 0 -36.31 -40.84 0 0 36.31zm0.98 191.45l38.56 0 0 -161.08 -38.56 0 0 161.08z"/>
  <path id="5" class="fil1" d="M1950.41 416.65l39.54 0 0 -86.7c11.17,13.86 28.71,19.36 45.48,19.36 44.01,0 68.23,-39.17 68.23,-83.9 0,-44.79 -24.23,-83.79 -68.89,-83.79 -17.04,0 -33.65,5.66 -44.82,19.52l0 -16.23 -39.54 0 0 231.72zm74.77 -103.65c-26.63,0 -38.77,-20.46 -38.77,-47.58 0,-27.07 12.14,-48.52 38.77,-48.52 26.85,0 38.94,21.45 38.94,48.57 0,27.07 -12.09,47.53 -38.94,47.53z"/>
  <path id="6" class="fil1" d="M2203.6 349.26c49.34,0 81.69,-37.57 81.69,-83.18 0,-45.45 -32.35,-83.13 -81.69,-83.13 -49.34,0 -81.69,37.68 -81.69,83.13 0,45.61 32.35,83.18 81.69,83.18zm0 -33.89c-29.36,0 -41.17,-22.89 -41.17,-49.29 0,-26.3 11.82,-49.13 41.17,-49.13 29.52,0 41.17,22.83 41.17,49.13 0,26.4 -11.66,49.29 -41.17,49.29z"/>
  <path id="7" class="fil1" d="M2505.79 118.25l0 82.91c-10.99,-13.86 -28.69,-19.52 -45.3,-19.52 -44.17,0 -68.41,39.33 -68.41,83.79 0,45.06 24.25,83.9 69.06,83.9 17.7,0 35.24,-6.17 46.28,-21.29l1.75 17.99 36.16 0 0 -227.76 -39.55 0zm-35.24 194.75c-26.84,0 -38.94,-20.46 -38.94,-47.53 0,-26.79 12.1,-48.19 38.94,-48.19 26.8,0 38.62,21.13 38.62,48.19 0,27.4 -11.82,47.53 -38.62,47.53z"/>
  <path id="8" class="fil1" d="M2657.36 347.99c26.46,0 47.64,-7.59 66.27,-27.72l-26.74 -23.72c-11.49,11.94 -22.49,14.8 -39.86,14.8 -23.09,0 -35.56,-13.21 -38.23,-33.01l109.29 0c0,0 1.48,-5.01 1.48,-12.27 0,-41.59 -17.11,-83.13 -75.09,-83.13 -51.95,0 -76.85,41.2 -76.85,83.46 0,43.02 26.46,81.58 79.73,81.58zm-38.56 -98.03c3.32,-19.47 13.99,-34 35.67,-34 23.14,0 34.25,12.21 36.8,34l-72.48 0z"/>
  <path id="9" class="fil1" d="M2904.66 349.65c17.43,0 34.64,-7.43 46.13,-22.5l0 18.87 39.54 0 0 -161.08 -39.54 0 0 79.16c0,40.06 -18.63,48.25 -36.86,48.25 -23.59,0 -28.87,-14.8 -28.87,-34.66l0 -92.76 -39.44 0 0 94.69c0,34.99 17.28,70.03 59.04,70.03z"/>
  <path id="10" class="fil1" d="M3085.74 349.26c30.01,0 62.03,-16.45 62.03,-53.69 0,-59.19 -81.03,-44.67 -81.03,-69.04 0,-7.6 7.79,-12.88 20.59,-12.88 17.26,0 26.19,9.52 31.79,19.47l29.91 -16.61c-12.09,-21.68 -32.95,-33.89 -60.4,-33.89 -30.65,0 -59.14,15.13 -59.14,49.07 0,56.95 80.05,38.73 80.05,65.8 0,8.52 -7.79,19.19 -25.87,19.19 -21.23,0 -29.67,-14.85 -33.98,-26.46l-30.87 13.86c7.85,24.86 33.28,45.17 66.93,45.17z"/>
  <path id="11" class="fil1" d="M3236.86 349.65c17.43,0 34.64,-7.43 46.13,-22.5l0 18.87 39.53 0 0 -161.08 -39.53 0 0 79.16c0,40.06 -18.63,48.25 -36.87,48.25 -23.58,0 -28.86,-14.8 -28.86,-34.66l0 -92.76 -39.44 0 0 94.69c0,34.99 17.28,70.03 59.04,70.03z"/>
  <path id="12" class="fil1" d="M3412.33 349.32c19.01,0 35.94,-6.11 49.67,-26.13l2.5 22.83 32.08 0 0 -97.65c0,-39.34 -25.48,-66.07 -69.22,-66.07 -31.14,0 -51.41,13.54 -66.66,34.61l29.8 21.78c6.81,-11.77 19.12,-22.06 37.47,-22.06 20.58,0 31.48,12.88 31.48,33.34l-41.5 0c-35.77,0 -65.41,11.61 -65.41,46.59 0,33.84 27.12,52.76 59.8,52.76zm5.61 -33.01c-15.19,0 -25.54,-7.6 -25.54,-18.33 0,-10.23 10.02,-19.63 27.78,-19.63l39.27 0c-0.67,20.3 -19.34,37.96 -41.5,37.96z"/>
  <path id="13" class="fil1" d="M3538.13 346.01l37.58 0 0 -74.65c0,-28.72 14.97,-51.44 36.81,-51.44 8.65,0 13.13,1.59 17.75,5.44l17.71 -32.12c-9.58,-7.55 -23.31,-10.62 -33.67,-10.62 -13.39,0 -30.81,7.59 -38.33,29.43l0 -27.12 -37.85 0 0 161.08z"/>
  <path id="14" class="fil1" d="M3660.66 154.57l40.83 0 0 -36.31 -40.83 0 0 36.31zm0.98 191.45l38.56 0 0 -161.08 -38.56 0 0 161.08z"/>
  <path id="15" class="fil1" d="M3813.19 349.26c49.34,0 81.69,-37.57 81.69,-83.18 0,-45.45 -32.35,-83.13 -81.69,-83.13 -49.33,0 -81.68,37.68 -81.68,83.13 0,45.61 32.35,83.18 81.68,83.18zm0 -33.89c-29.36,0 -41.17,-22.89 -41.17,-49.29 0,-26.3 11.82,-49.13 41.17,-49.13 29.52,0 41.17,22.83 41.17,49.13 0,26.4 -11.66,49.29 -41.17,49.29z"/>
  <path id="16" class="fil1" d="M4063.82 349.26c30.01,0 62.03,-16.45 62.03,-53.69 0,-59.19 -81.03,-44.67 -81.03,-69.04 0,-7.6 7.79,-12.88 20.59,-12.88 17.26,0 26.19,9.52 31.79,19.47l29.91 -16.61c-12.09,-21.68 -32.94,-33.89 -60.39,-33.89 -30.66,0 -59.15,15.13 -59.15,49.07 0,56.95 80.05,38.73 80.05,65.8 0,8.52 -7.79,19.19 -25.86,19.19 -21.24,0 -29.68,-14.85 -33.99,-26.46l-30.87 13.86c7.85,24.86 33.28,45.17 66.93,45.17z"/>
  <path id="17" class="fil1" d="M4227.41 349.26c49.34,0 81.69,-37.57 81.69,-83.18 0,-45.45 -32.35,-83.13 -81.69,-83.13 -49.33,0 -81.68,37.68 -81.68,83.13 0,45.61 32.35,83.18 81.68,83.18zm0 -33.89c-29.36,0 -41.17,-22.89 -41.17,-49.29 0,-26.3 11.82,-49.13 41.17,-49.13 29.52,0 41.17,22.83 41.17,49.13 0,26.4 -11.66,49.29 -41.17,49.29z"/>
  <path id="18" class="fil1" d="M4389.82 349.26c30,0 62.02,-16.45 62.02,-53.69 0,-59.19 -81.03,-44.67 -81.03,-69.04 0,-7.6 7.79,-12.88 20.59,-12.88 17.26,0 26.19,9.52 31.8,19.47l29.9 -16.61c-12.09,-21.68 -32.94,-33.89 -60.39,-33.89 -30.66,0 -59.15,15.13 -59.15,49.07 0,56.95 80.05,38.73 80.05,65.8 0,8.52 -7.79,19.19 -25.86,19.19 -21.24,0 -29.68,-14.85 -33.99,-26.46l-30.87 13.86c7.85,24.86 33.28,45.17 66.94,45.17z"/>
  <path id="19" class="fil1" d="M4525.3 277.69l33.01 0 0 -23.06c0,-22.55 54.23,-16.28 54.23,-75.25 0,-42.2 -33.65,-64.42 -72.26,-64.42 -41.77,0 -69.54,26.07 -69.54,71.35l34.31 0c0,-24.81 10.84,-38.67 36.54,-38.67 21.94,0 36.97,9.62 36.97,31.08 0,38.18 -53.26,22.39 -53.26,75.58l0 23.39zm-4.24 68.32l42.47 0 0 -42.58 -42.47 0 0 42.58z"/>
 </g>
</svg>
