<?xml version="1.0" encoding="UTF-8"?>
<!DOCTYPE svg PUBLIC "-//W3C//DTD SVG 1.1//EN" "http://www.w3.org/Graphics/SVG/1.1/DTD/svg11.dtd">
<!-- Creator: CorelDRAW 2020 (64-Bit) -->
<svg xmlns="http://www.w3.org/2000/svg" xml:space="preserve" width="56.6209mm" height="5.326mm" version="1.1" style="shape-rendering:geometricPrecision; text-rendering:geometricPrecision; image-rendering:optimizeQuality; fill-rule:evenodd; clip-rule:evenodd"
viewBox="0 0 5651.7 531.62"
 xmlns:xlink="http://www.w3.org/1999/xlink"
 xmlns:xodm="http://www.corel.com/coreldraw/odm/2003">
 <defs>
  <style type="text/css">
   <![CDATA[
    .fil0 {fill:#7C51A0}
    .fil1 {fill:white;fill-rule:nonzero}
   ]]>
  </style>
 </defs>
 <g id="Capa_x0020_1">
  <metadata id="CorelCorpID_0Corel-Layer"/>
  <path class="fil0" d="M726.64 0l4925.06 0 0 230.23c0,165.77 -455.61,301.4 -650.69,301.4l-5001.01 0 0 -129.75c0,-221.04 466.52,-401.87 726.64,-401.87z"/>
  <path class="fil1" d="M676.87 332.17l34.93 0 0 -83.38 23.34 0 47.89 83.38 40.05 0 -54.09 -86.81c22.02,-7.56 37.99,-26.1 37.99,-50.61 0,-36.43 -30.99,-57.23 -67.29,-57.23l-62.81 0 0 194.65zm35.17 -111.83l0 -51.56 27.93 0c19.91,0 32.45,10.43 32.45,26.53 0,14.6 -10.99,24.23 -29.59,25.02l-30.79 0z"/>
  <path id="1" class="fil1" d="M902.55 333.58c22.82,0 41.08,-6.48 57.14,-23.66l-23.06 -20.24c-9.9,10.19 -19.39,12.64 -34.37,12.64 -19.9,0 -30.66,-11.27 -32.96,-28.18l94.23 0c0,0 1.27,-4.27 1.27,-10.46 0,-35.49 -14.74,-70.95 -64.74,-70.95 -44.79,0 -66.25,35.17 -66.25,71.23 0,36.71 22.82,69.62 68.73,69.62zm-33.24 -83.67c2.86,-16.62 12.07,-29.01 30.75,-29.01 19.95,0 29.53,10.42 31.74,29.01l-62.5 0z"/>
  <path id="2" class="fil1" d="M1021.67 334.7c6.71,0 17.18,-1.41 24.18,-2.76l0 -28.22c-3.56,0.56 -7.56,0.84 -8.35,0.84 -7.85,0 -11.83,-2.76 -11.83,-9.19l0 -157.85 -33.53 0 0 167.04c0,24.6 12.92,30.14 29.54,30.14z"/>
  <path id="3" class="fil1" d="M1100.5 334.7c6.71,0 17.18,-1.41 24.18,-2.76l0 -28.22c-3.56,0.56 -7.56,0.84 -8.35,0.84 -7.85,0 -11.83,-2.76 -11.83,-9.19l0 -157.85 -33.53 0 0 167.04c0,24.6 12.92,30.14 29.54,30.14z"/>
  <path id="4" class="fil1" d="M1206.97 333.58c22.82,0 41.08,-6.48 57.14,-23.66l-23.06 -20.24c-9.9,10.19 -19.39,12.64 -34.37,12.64 -19.9,0 -30.66,-11.27 -32.96,-28.18l94.23 0c0,0 1.27,-4.27 1.27,-10.46 0,-35.49 -14.74,-70.95 -64.74,-70.95 -44.79,0 -66.25,35.17 -66.25,71.23 0,36.71 22.82,69.62 68.73,69.62zm-33.24 -83.67c2.86,-16.62 12.07,-29.01 30.75,-29.01 19.95,0 29.53,10.42 31.74,29.01l-62.5 0z"/>
  <path id="5" class="fil1" d="M1297.4 331.89l34.09 0 0 -75.26c0,-17.23 15.77,-33.19 34.37,-33.19 17.46,0 21.97,13.19 21.97,30.13l0 78.32 34.09 0 0 -82.59c0,-28.78 -14.69,-57.13 -50.71,-57.13 -13.48,0 -28.74,4.79 -39.72,18.22l0 -15.96 -34.09 0 0 137.47z"/>
  <path id="6" class="fil1" d="M1490.84 177.23l24.5 0 42.26 -39.72 -35.78 0 -30.98 39.72zm4.55 157.47c16.39,0 30.99,-5.21 42.82,-22.3l2.16 19.48 27.66 0 0 -83.34c0,-33.57 -21.97,-56.39 -59.67,-56.39 -26.86,0 -44.33,11.55 -57.47,29.53l25.68 18.6c5.87,-10.04 16.48,-18.83 32.3,-18.83 17.75,0 27.14,10.99 27.14,28.45l-35.77 0c-30.85,0 -56.39,9.91 -56.39,39.77 0,28.88 23.38,45.03 51.55,45.03zm4.84 -28.17c-13.11,0 -22.02,-6.48 -22.02,-15.63 0,-8.73 8.63,-16.77 23.95,-16.77l33.85 0c-0.56,17.33 -16.67,32.4 -35.77,32.4z"/>
  <path id="7" class="fil1" d="M1734.32 334.66c27.23,0 48.69,-15.12 57.8,-40.72l-30.57 -11.55c-3.56,12.92 -14.03,20.8 -27.51,20.8 -23.38,0 -32.16,-18.88 -32.16,-39.82 0,-20.56 9.06,-39.67 32.16,-39.67 13.75,0 23.95,7.56 27.51,20.79l31.93 -12.39c-10.47,-24.47 -32.21,-39.96 -59.44,-39.96 -44.79,0 -66.25,35.12 -66.25,71.22 0,36.48 21.69,71.28 66.53,71.28z"/>
  <path id="8" class="fil1" d="M1875.45 334.66c42.54,0 70.43,-32.07 70.43,-70.99 0,-38.79 -27.89,-70.95 -70.43,-70.95 -42.53,0 -70.42,32.16 -70.42,70.95 0,38.92 27.89,70.99 70.42,70.99zm0 -28.93c-25.3,0 -35.49,-19.53 -35.49,-42.06 0,-22.45 10.19,-41.93 35.49,-41.93 25.44,0 35.49,19.48 35.49,41.93 0,22.53 -10.05,42.06 -35.49,42.06z"/>
  <path id="9" class="fil1" d="M1973.16 331.89l34.09 0 0 -75.26c0,-17.23 15.77,-33.19 34.37,-33.19 17.46,0 21.97,13.19 21.97,30.13l0 78.32 34.09 0 0 -82.59c0,-28.78 -14.69,-57.13 -50.71,-57.13 -13.48,0 -28.74,4.79 -39.72,18.22l0 -15.96 -34.09 0 0 137.47z"/>
  <path id="10" class="fil1" d="M2258.48 334.7c9.48,0 19.67,-2.21 24.74,-4.13l0 -30.37c-4.51,2.21 -12.07,4.93 -19.1,4.93 -8.78,0 -16.62,-3.85 -16.62,-17.05l0 -65.54 35.72 0 0 -28.08 -35.72 0 0 -58.07 -31.55 23.95 0 34.13 -22.68 0 0 28.08 22.11 0 0 71.46c0,25.02 16.06,40.71 43.1,40.71z"/>
  <path id="11" class="fil1" d="M2360.17 334.98c15.02,0 29.86,-6.34 39.77,-19.19l0 16.1 34.09 0 0 -137.47 -34.09 0 0 67.56c0,34.19 -16.06,41.17 -31.78,41.17 -20.33,0 -24.88,-12.63 -24.88,-29.58l0 -79.15 -34 0 0 80.8c0,29.86 14.88,59.76 50.9,59.76z"/>
  <path id="12" class="fil1" d="M2516.28 334.66c25.86,0 53.47,-14.04 53.47,-45.83 0,-50.52 -69.86,-38.13 -69.86,-58.92 0,-6.48 6.72,-10.99 17.75,-10.99 14.88,0 22.59,8.13 27.42,16.62l25.77 -14.17c-10.42,-18.51 -28.4,-28.93 -52.06,-28.93 -26.43,0 -50.99,12.92 -50.99,41.88 0,48.59 69.01,33.05 69.01,56.15 0,7.28 -6.71,16.39 -22.3,16.39 -18.31,0 -25.58,-12.68 -29.3,-22.59l-26.62 11.84c6.76,21.22 28.69,38.55 57.7,38.55z"/>
  <path id="13" class="fil1" d="M2762.68 137.52l0 70.75c-9.48,-11.83 -24.74,-16.67 -39.06,-16.67 -38.08,0 -58.97,33.58 -58.97,71.51 0,38.45 20.89,71.6 59.53,71.6 15.26,0 30.37,-5.26 39.91,-18.17l1.51 15.35 31.17 0 0 -194.37 -34.09 0zm-30.37 166.2c-23.15,0 -33.57,-17.47 -33.57,-40.57 0,-22.87 10.42,-41.13 33.57,-41.13 23.1,0 33.29,18.04 33.29,41.13 0,23.38 -10.19,40.57 -33.29,40.57z"/>
  <path id="14" class="fil1" d="M2874.47 334.7c16.39,0 30.99,-5.21 42.82,-22.3l2.16 19.48 27.66 0 0 -83.34c0,-33.57 -21.97,-56.39 -59.67,-56.39 -26.86,0 -44.33,11.55 -57.47,29.53l25.68 18.6c5.87,-10.04 16.48,-18.83 32.3,-18.83 17.75,0 27.14,10.99 27.14,28.45l-35.77 0c-30.85,0 -56.39,9.91 -56.39,39.77 0,28.88 23.38,45.03 51.55,45.03zm4.84 -28.17c-13.11,0 -22.02,-6.48 -22.02,-15.63 0,-8.73 8.63,-16.77 23.95,-16.77l33.85 0c-0.56,17.33 -16.67,32.4 -35.77,32.4z"/>
  <path id="15" class="fil1" d="M3031.66 334.7c9.48,0 19.67,-2.21 24.74,-4.13l0 -30.37c-4.51,2.21 -12.07,4.93 -19.1,4.93 -8.78,0 -16.62,-3.85 -16.62,-17.05l0 -65.54 35.72 0 0 -28.08 -35.72 0 0 -58.07 -31.55 23.95 0 34.13 -22.68 0 0 28.08 22.11 0 0 71.46c0,25.02 16.06,40.71 43.1,40.71z"/>
  <path id="16" class="fil1" d="M3144.1 334.66c42.54,0 70.43,-32.07 70.43,-70.99 0,-38.79 -27.89,-70.95 -70.43,-70.95 -42.53,0 -70.42,32.16 -70.42,70.95 0,38.92 27.89,70.99 70.42,70.99zm0 -28.93c-25.3,0 -35.49,-19.53 -35.49,-42.06 0,-22.45 10.19,-41.93 35.49,-41.93 25.44,0 35.49,19.48 35.49,41.93 0,22.53 -10.05,42.06 -35.49,42.06z"/>
  <path id="17" class="fil1" d="M3284.11 334.66c25.86,0 53.47,-14.04 53.47,-45.83 0,-50.52 -69.86,-38.13 -69.86,-58.92 0,-6.48 6.72,-10.99 17.75,-10.99 14.88,0 22.59,8.13 27.42,16.62l25.77 -14.17c-10.42,-18.51 -28.4,-28.93 -52.06,-28.93 -26.43,0 -50.99,12.92 -50.99,41.88 0,48.59 69.01,33.05 69.01,56.15 0,7.28 -6.71,16.39 -22.3,16.39 -18.31,0 -25.58,-12.68 -29.3,-22.59l-26.62 11.84c6.76,21.22 28.69,38.55 57.7,38.55z"/>
  <polygon id="18" class="fil1" points="3451.39,391 3487.98,391 3566.52,194.42 3529.66,194.42 3494.46,289.92 3459.8,194.42 3422.95,194.42 3476.71,328.14 "/>
  <path id="19" class="fil1" d="M3666.81 332.17l34.93 0 0 -83.38 23.34 0 47.89 83.38 40.05 0 -54.09 -86.81c22.02,-7.56 37.99,-26.1 37.99,-50.61 0,-36.43 -30.99,-57.23 -67.29,-57.23l-62.81 0 0 194.65zm35.17 -111.83l0 -51.56 27.93 0c19.91,0 32.45,10.43 32.45,26.53 0,14.6 -10.99,24.23 -29.59,25.02l-30.79 0z"/>
  <path id="20" class="fil1" d="M3892.49 333.58c22.82,0 41.08,-6.48 57.14,-23.66l-23.06 -20.24c-9.9,10.19 -19.39,12.64 -34.37,12.64 -19.9,0 -30.66,-11.27 -32.96,-28.18l94.23 0c0,0 1.27,-4.27 1.27,-10.46 0,-35.49 -14.74,-70.95 -64.74,-70.95 -44.79,0 -66.25,35.17 -66.25,71.23 0,36.71 22.82,69.62 68.73,69.62zm-33.24 -83.67c2.86,-16.62 12.07,-29.01 30.75,-29.01 19.95,0 29.53,10.42 31.74,29.01l-62.5 0z"/>
  <path id="21" class="fil1" d="M4045.74 310.34c-24.5,-3 -41.4,-3.28 -41.4,-14.55 0,-3.19 1.22,-5.49 3.98,-7.28 7.85,3.42 16.63,5.35 26.15,5.35 30.09,0 55.78,-19.48 55.78,-50.19 0,-8.92 -2.21,-17.05 -5.91,-23.95l19.9 -16.01 -17.42 -21.27 -21.41 18.36c-9.2,-5.16 -20.23,-8.08 -32.06,-8.08 -30.38,0 -56.35,19.48 -56.35,49.3 0,12.12 4.27,23.01 11.41,31.64 -8.13,7.14 -12.82,16.06 -12.82,28.32 0,13.19 5.35,21.59 13.48,27.09l-14.27 12.96c-0.28,1.36 -0.56,2.72 -0.56,5.92 0,28.22 23.62,48.97 64.17,48.97 34.14,0 60.81,-14.84 60.81,-45.97 0,-31.5 -27.52,-37.14 -53.48,-40.62zm-11.27 -91.69c14.7,0 22.54,10.98 22.54,24.23 0,13.2 -7.56,23.38 -22.54,23.38 -14.83,0 -22.82,-10.18 -22.82,-23.38 0,-13.25 8.22,-24.23 22.82,-24.23zm4.27 151.88c-19.66,0 -34.37,-7.19 -36.29,-21.78l7 -11.55c8.13,1.92 16.77,2.76 24.47,3.7 21.74,2.49 33.57,3.85 33.57,14.04 0,9.95 -11.32,15.58 -28.74,15.58z"/>
  <path id="22" class="fil1" d="M4126.35 168.5l35.22 0 0 -30.98 -35.22 0 0 30.98zm0.85 163.39l33.24 0 0 -137.47 -33.24 0 0 137.47z"/>
  <path id="23" class="fil1" d="M4242.7 334.66c25.86,0 53.47,-14.04 53.47,-45.83 0,-50.52 -69.86,-38.13 -69.86,-58.92 0,-6.48 6.72,-10.99 17.75,-10.99 14.88,0 22.59,8.13 27.42,16.62l25.77 -14.17c-10.42,-18.51 -28.4,-28.93 -52.06,-28.93 -26.43,0 -50.99,12.92 -50.99,41.88 0,48.59 69.01,33.05 69.01,56.15 0,7.28 -6.71,16.39 -22.3,16.39 -18.31,0 -25.58,-12.68 -29.3,-22.59l-26.62 11.84c6.76,21.22 28.69,38.55 57.7,38.55z"/>
  <path id="24" class="fil1" d="M4375.01 334.7c9.48,0 19.67,-2.21 24.74,-4.13l0 -30.37c-4.51,2.21 -12.07,4.93 -19.1,4.93 -8.78,0 -16.62,-3.85 -16.62,-17.05l0 -65.54 35.72 0 0 -28.08 -35.72 0 0 -58.07 -31.55 23.95 0 34.13 -22.68 0 0 28.08 22.11 0 0 71.46c0,25.02 16.06,40.71 43.1,40.71z"/>
  <path id="25" class="fil1" d="M4429.99 331.89l32.39 0 0 -63.71c0,-24.5 12.92,-43.9 31.74,-43.9 7.47,0 11.32,1.37 15.3,4.65l15.26 -27.42c-8.26,-6.43 -20.09,-9.06 -29.02,-9.06 -11.55,0 -26.57,6.48 -33.05,25.12l0 -23.15 -32.63 0 0 137.47z"/>
  <path id="26" class="fil1" d="M4573.93 334.7c16.39,0 30.99,-5.21 42.82,-22.3l2.16 19.48 27.66 0 0 -83.34c0,-33.57 -21.97,-56.39 -59.67,-56.39 -26.86,0 -44.33,11.55 -57.47,29.53l25.68 18.6c5.87,-10.04 16.48,-18.83 32.3,-18.83 17.75,0 27.14,10.99 27.14,28.45l-35.77 0c-30.85,0 -56.39,9.91 -56.39,39.77 0,28.88 23.38,45.03 51.55,45.03zm4.84 -28.17c-13.11,0 -22.02,-6.48 -22.02,-15.63 0,-8.73 8.63,-16.77 23.95,-16.77l33.85 0c-0.56,17.33 -16.67,32.4 -35.77,32.4z"/>
  <path id="27" class="fil1" d="M4731.12 334.7c9.48,0 19.67,-2.21 24.74,-4.13l0 -30.37c-4.51,2.21 -12.07,4.93 -19.1,4.93 -8.78,0 -16.62,-3.85 -16.62,-17.05l0 -65.54 35.72 0 0 -28.08 -35.72 0 0 -58.07 -31.55 23.95 0 34.13 -22.68 0 0 28.08 22.11 0 0 71.46c0,25.02 16.06,40.71 43.1,40.71z"/>
  <path id="28" class="fil1" d="M4842.44 333.58c22.82,0 41.08,-6.48 57.14,-23.66l-23.06 -20.24c-9.9,10.19 -19.39,12.64 -34.37,12.64 -19.9,0 -30.66,-11.27 -32.96,-28.18l94.23 0c0,0 1.27,-4.27 1.27,-10.46 0,-35.49 -14.74,-70.95 -64.74,-70.95 -44.79,0 -66.25,35.17 -66.25,71.23 0,36.71 22.82,69.62 68.73,69.62zm-33.24 -83.67c2.86,-16.62 12.07,-29.01 30.75,-29.01 19.95,0 29.53,10.42 31.74,29.01l-62.5 0z"/>
  <path id="29" class="fil1" d="M4943.81 273.02l25.44 0 3.85 -138.32 -33.15 0 3.85 138.32zm-5.59 58.87l36.62 0 0 -36.34 -36.62 0 0 36.34z"/>
 </g>
</svg>
